<svg width="44" height="30" viewBox="0 0 44 30" fill="none" xmlns="http://www.w3.org/2000/svg">
<path d="M21.2547 28.2439C21.2547 28.7962 20.807 29.2439 20.2547 29.2439H6.00806C5.45577 29.2439 5.00806 28.7962 5.00806 28.2439V26.9946C5.00806 26.4423 5.45577 25.9946 6.00806 25.9946H17.0054C17.5576 25.9946 18.0054 25.5469 18.0054 24.9946V20.496C18.0054 19.9437 18.4531 19.496 19.0054 19.496H21.8793C22.4316 19.496 22.8793 19.0482 22.8793 18.496V13.9973C22.8793 13.445 23.3271 12.9973 23.8793 12.9973H28.378C28.9303 12.9973 29.378 12.5496 29.378 11.9973V7.49865C29.378 6.94637 29.8257 6.49865 30.378 6.49865H34.8767C35.4289 6.49865 35.8767 6.05094 35.8767 5.49865V0.999999C35.8767 0.447714 36.3244 0 36.8767 0H43C43.5522 0 44 0.447715 44 1V2.24933C44 2.80161 43.5522 3.24933 43 3.24933H40.126C39.5737 3.24933 39.126 3.69704 39.126 4.24933V8.74798C39.126 9.30026 38.6783 9.74798 38.126 9.74798H33.6273C33.075 9.74798 32.6273 10.1957 32.6273 10.748V15.2466C32.6273 15.7989 32.1796 16.2466 31.6273 16.2466H27.1287C26.5764 16.2466 26.1287 16.6943 26.1287 17.2466V21.7453C26.1287 22.2976 25.681 22.7453 25.1287 22.7453H22.2547C21.7024 22.7453 21.2547 23.193 21.2547 23.7453V28.2439Z" fill="white"/>
<path d="M39.3577 13.6784L26.9862 26.0499C26.5956 26.4404 26.5956 27.0736 26.9862 27.4641L27.8696 28.3475C28.2601 28.7381 28.8933 28.7381 29.2838 28.3475L41.6553 15.976C42.0458 15.5855 42.0458 14.9523 41.6553 14.5618L40.7719 13.6784C40.3814 13.2879 39.7482 13.2879 39.3577 13.6784Z" fill="#FFE500"/>
<path d="M40.6682 18.195C41.2981 18.8249 42.3753 18.3788 42.3753 17.4879V13.9973C42.3753 13.445 41.9276 12.9973 41.3753 12.9973H37.8847C36.9938 12.9973 36.5476 14.0744 37.1776 14.7044L40.6682 18.195Z" fill="#FFE500"/>
<path d="M15.7413 15.7846C15.5127 15.0811 14.8531 14.5623 14.0705 14.5623H13.191V11.9241C13.191 11.6908 13.0984 11.4671 12.9335 11.3022C12.7686 11.1373 12.5449 11.0447 12.3116 11.0447H7.03522V9.28585H8.79403C9.02726 9.28585 9.25094 9.1932 9.41586 9.02828C9.58078 8.86336 9.67343 8.63968 9.67343 8.40644V6.64763H11.4322C11.8987 6.64763 12.3461 6.46233 12.6759 6.13249C13.0057 5.80265 13.191 5.35529 13.191 4.88882V4.52827C15.7677 5.56597 17.5881 8.08986 17.5881 11.0447C17.5881 12.8738 16.8845 14.5359 15.7413 15.7846ZM9.67343 18.0183C6.19978 17.5874 3.5176 14.6326 3.5176 11.0447C3.5176 10.4994 3.58795 9.97178 3.70227 9.47052L7.91462 13.6829V14.5623C7.91462 15.0287 8.09992 15.4761 8.42977 15.8059C8.75961 16.1358 9.20697 16.3211 9.67343 16.3211V18.0183ZM10.5528 2.25061C9.39798 2.25061 8.25444 2.47808 7.1875 2.92002C6.12056 3.36196 5.15111 4.00972 4.33451 4.82633C2.6853 6.47553 1.75879 8.71233 1.75879 11.0447C1.75879 13.377 2.6853 15.6138 4.33451 17.263C5.15111 18.0796 6.12056 18.7274 7.1875 19.1693C8.25444 19.6112 9.39798 19.8387 10.5528 19.8387C12.8852 19.8387 15.122 18.9122 16.7712 17.263C18.4204 15.6138 19.3469 13.377 19.3469 11.0447C19.3469 9.88981 19.1194 8.74626 18.6775 7.67932C18.2355 6.61238 17.5878 5.64293 16.7712 4.82633C15.9546 4.00972 14.9851 3.36196 13.9182 2.92002C12.8512 2.47808 11.7077 2.25061 10.5528 2.25061Z" fill="white"/>
</svg>
