<svg width="37" height="37" viewBox="0 0 37 37" fill="none" xmlns="http://www.w3.org/2000/svg">
<g clip-path="url(#clip0_207_14697)">
<path d="M18.5001 0L17.4826 0.04625L23.3563 5.92L25.4376 3.85417C30.448 6.27458 34.0555 11.1617 34.6105 16.9583H36.923C36.1367 7.46167 28.1971 0 18.5001 0ZM0.0771484 20.0417C0.863398 29.5383 8.80298 37 18.5001 37L19.5176 36.9538L13.6438 31.08L11.5626 33.1458C6.55215 30.7408 2.94465 25.8383 2.38965 20.0417H0.0771484Z" fill="#FFE500"/>
</g>
<path d="M24.1738 24.7822C23.9237 24.0129 23.2025 23.4456 22.3467 23.4456H21.385V20.5607C21.385 20.3056 21.2837 20.061 21.1034 19.8807C20.923 19.7003 20.6784 19.599 20.4234 19.599H14.6536V17.6758H16.5769C16.8319 17.6758 17.0765 17.5745 17.2568 17.3941C17.4372 17.2138 17.5385 16.9692 17.5385 16.7141V14.7909H19.4618C19.9718 14.7909 20.461 14.5882 20.8217 14.2276C21.1824 13.8669 21.385 13.3777 21.385 12.8676V12.4733C24.2026 13.6081 26.1932 16.3679 26.1932 19.599C26.1932 21.5992 25.4239 23.4167 24.1738 24.7822ZM17.5385 27.2248C13.74 26.7536 10.8071 23.5225 10.8071 19.599C10.8071 19.0028 10.884 18.4258 11.009 17.8777L15.6152 22.4839V23.4456C15.6152 23.9556 15.8179 24.4448 16.1785 24.8055C16.5392 25.1662 17.0284 25.3688 17.5385 25.3688V27.2248ZM18.5001 9.9827C17.2373 9.9827 15.9868 10.2314 14.8201 10.7147C13.6534 11.198 12.5933 11.9063 11.7003 12.7993C9.89694 14.6027 8.88379 17.0486 8.88379 19.599C8.88379 22.1494 9.89694 24.5954 11.7003 26.3988C12.5933 27.2918 13.6534 28.0001 14.8201 28.4834C15.9868 28.9666 17.2373 29.2154 18.5001 29.2154C21.0505 29.2154 23.4965 28.2022 25.2999 26.3988C27.1033 24.5954 28.1165 22.1494 28.1165 19.599C28.1165 18.3362 27.8677 17.0857 27.3845 15.919C26.9012 14.7523 26.1929 13.6922 25.2999 12.7993C24.4069 11.9063 23.3468 11.198 22.1801 10.7147C21.0134 10.2314 19.763 9.9827 18.5001 9.9827Z" fill="white"/>
<defs>
<clipPath id="clip0_207_14697">
<rect width="37" height="37" fill="white"/>
</clipPath>
</defs>
</svg>
