<svg width="44" height="34" viewBox="0 0 44 34" fill="none" xmlns="http://www.w3.org/2000/svg">
<path d="M16.4298 1.74298H14.9438C14.3916 1.74298 13.9438 2.1907 13.9438 2.74298V30.3738C13.9438 30.9261 14.3916 31.3738 14.9438 31.3738H16.4298C16.9821 31.3738 17.4298 30.9261 17.4298 30.3738V2.74298C17.4298 2.1907 16.9821 1.74298 16.4298 1.74298Z" fill="#FFE500"/>
<path d="M18.5017 5.22897C19.3926 5.22897 19.8388 4.15183 19.2088 3.52187L16.3941 0.707107C16.0036 0.316583 15.3704 0.316583 14.9799 0.707107L12.1651 3.52187C11.5352 4.15183 11.9813 5.22897 12.8722 5.22897H18.5017Z" fill="#FFE500"/>
<path d="M5.97182 12.201H4.48584C3.93356 12.201 3.48584 12.6487 3.48584 13.201V30.3739C3.48584 30.9261 3.93355 31.3739 4.48584 31.3739H5.97182C6.52411 31.3739 6.97182 30.9261 6.97182 30.3739V13.201C6.97182 12.6487 6.52411 12.201 5.97182 12.201Z" fill="#FFE500"/>
<path d="M8.04373 15.687C8.93464 15.687 9.3808 14.6098 8.75084 13.9798L5.93608 11.1651C5.54556 10.7746 4.91239 10.7746 4.52187 11.1651L1.70711 13.9798C1.07714 14.6098 1.52331 15.687 2.41421 15.687H8.04373Z" fill="#FFE500"/>
<path d="M37.3711 27.1734C37.1026 26.3472 36.328 25.7379 35.4089 25.7379H34.3761V22.6396C34.3761 22.3657 34.2673 22.103 34.0736 21.9093C33.8799 21.7156 33.6173 21.6068 33.3433 21.6068H27.1468V19.5413H29.2123C29.4862 19.5413 29.7489 19.4325 29.9426 19.2388C30.1363 19.0451 30.2451 18.7824 30.2451 18.5085V16.443H32.3106C32.8584 16.443 33.3838 16.2254 33.7711 15.838C34.1585 15.4507 34.3761 14.9253 34.3761 14.3775V13.9541C37.4021 15.1727 39.5399 18.1367 39.5399 21.6068C39.5399 23.755 38.7137 25.7069 37.3711 27.1734ZM30.2451 29.7966C26.1656 29.2906 23.0157 25.8205 23.0157 21.6068C23.0157 20.9665 23.0983 20.3469 23.2326 19.7582L28.1795 24.7051V25.7379C28.1795 26.2857 28.3972 26.8111 28.7845 27.1984C29.1719 27.5858 29.6972 27.8034 30.2451 27.8034V29.7966ZM31.2778 11.2792C29.9216 11.2792 28.5786 11.5463 27.3256 12.0653C26.0726 12.5844 24.9341 13.3451 23.9751 14.3041C22.0383 16.2409 20.9502 18.8678 20.9502 21.6068C20.9502 24.3459 22.0383 26.9728 23.9751 28.9096C24.9341 29.8686 26.0726 30.6293 27.3256 31.1483C28.5786 31.6673 29.9216 31.9345 31.2778 31.9345C34.0169 31.9345 36.6438 30.8464 38.5806 28.9096C40.5174 26.9728 41.6054 24.3459 41.6054 21.6068C41.6054 20.2506 41.3383 18.9076 40.8193 17.6546C40.3003 16.4016 39.5396 15.2631 38.5806 14.3041C37.6215 13.3451 36.483 12.5844 35.23 12.0653C33.977 11.5463 32.6341 11.2792 31.2778 11.2792Z" fill="white"/>
</svg>
