<svg width="40" height="35" viewBox="0 0 40 35" fill="none" xmlns="http://www.w3.org/2000/svg">
<path d="M10.4314 20.3402C10.0151 20.7071 9.37965 20.6649 9.01556 20.2461L8.15461 19.256C7.79369 18.8409 7.83577 18.2122 8.2488 17.8489L21.1392 6.51101C21.5365 6.16154 22.1373 6.18208 22.5098 6.55788L25.9959 10.0746C26.3867 10.4688 27.0237 10.4693 27.4151 10.0758L36.3548 1.08799C36.7457 0.694936 37.3818 0.694928 37.7727 1.08797L38.6849 2.005C39.0727 2.3949 39.0729 3.0248 38.6854 3.41496L27.4139 14.7619C27.023 15.1554 26.3866 15.1556 25.9954 14.7623L22.3458 11.093C21.9729 10.718 21.3724 10.6983 20.9756 11.048L10.4314 20.3402Z" fill="#FFE500"/>
<path d="M39.7607 10.6282C39.7607 11.1805 39.313 11.6282 38.7607 11.6282H37.4384C36.8861 11.6282 36.4384 11.1805 36.4384 10.6282V4.32233C36.4384 3.77005 35.9907 3.32234 35.4384 3.32234H29.1326C28.5803 3.32234 28.1326 2.87462 28.1326 2.32234V1C28.1326 0.447716 28.5803 0 29.1326 0H38.7607C39.313 0 39.7607 0.447715 39.7607 1V10.6282Z" fill="#FFE500"/>
<path d="M36.4475 28.1327H3.31341C2.43464 28.1327 1.5918 27.784 0.970421 27.1633C0.349037 26.5426 0 25.7008 0 24.823V3.30973C0 2.43193 0.349037 1.59009 0.970421 0.969394C1.5918 0.3487 2.43464 0 3.31341 0H23.8505C24.4028 0 24.8505 0.447715 24.8505 1V2.30973C24.8505 2.86201 24.4028 3.30973 23.8505 3.30973H4.31341C3.76112 3.30973 3.31341 3.75744 3.31341 4.30973V23.823C3.31341 24.3752 3.76112 24.823 4.31341 24.823H35.4475C35.9997 24.823 36.4475 24.3752 36.4475 23.823V15.8938C36.4475 15.3415 36.8952 14.8938 37.4475 14.8938H38.7609C39.3131 14.8938 39.7609 15.3415 39.7609 15.8938V24.823C39.7609 25.7008 39.4117 26.5426 38.7903 27.1633C38.169 27.784 37.3262 28.1327 36.4475 28.1327Z" fill="white"/>
<path d="M25.6323 31.1335H14.5037C13.9514 31.1335 13.5037 31.5813 13.5037 32.1335V33.5095C13.5037 34.0618 13.9514 34.5095 14.5037 34.5095H25.6322C26.1845 34.5095 26.6322 34.0618 26.6322 33.5095V32.1335C26.6322 31.5813 26.1845 31.1335 25.6323 31.1335Z" fill="white"/>
<path d="M24.1318 28.1326H22.7559C22.2036 28.1326 21.7559 28.5803 21.7559 29.1326V32.0089C21.7559 32.5612 22.2036 33.0089 22.7559 33.0089H24.1318C24.6841 33.0089 25.1318 32.5612 25.1318 32.0089V29.1326C25.1318 28.5803 24.6841 28.1326 24.1318 28.1326Z" fill="white"/>
<path d="M17.3801 28.1326H16.0042C15.4519 28.1326 15.0042 28.5803 15.0042 29.1326V32.0089C15.0042 32.5612 15.4519 33.0089 16.0042 33.0089H17.3801C17.9324 33.0089 18.3801 32.5612 18.3801 32.0089V29.1326C18.3801 28.5803 17.9324 28.1326 17.3801 28.1326Z" fill="white"/>
<path d="M37.2605 18.0049H2.50049C1.9482 18.0049 1.50049 18.4527 1.50049 19.0049V20.3809C1.50049 20.9332 1.94821 21.3809 2.50049 21.3809H37.2605C37.8128 21.3809 38.2605 20.9332 38.2605 20.3809V19.0049C38.2605 18.4527 37.8128 18.0049 37.2605 18.0049Z" fill="white"/>
</svg>
