<svg width="664" height="313" viewBox="0 0 664 313" fill="none" xmlns="http://www.w3.org/2000/svg">
<g filter="url(#filter0_b_235_31582)">
<rect y="125" width="96" height="95" rx="10" fill="#EDF4FF" fill-opacity="0.5"/>
<rect x="0.5" y="125.5" width="95" height="94" rx="9.5" stroke="#FF637F" style="mix-blend-mode:multiply"/>
</g>
<g filter="url(#filter1_b_235_31582)">
<rect x="133" y="37" width="95" height="96" rx="10" fill="#EDF4FF" fill-opacity="0.5"/>
<rect x="133.5" y="37.5" width="94" height="95" rx="9.5" stroke="#FF637F" style="mix-blend-mode:multiply"/>
</g>
<g filter="url(#filter2_b_235_31582)">
<rect x="284" width="96" height="96" rx="10" fill="#EDF4FF" fill-opacity="0.5"/>
<rect x="284.5" y="0.5" width="95" height="95" rx="9.5" stroke="#FF637F" style="mix-blend-mode:multiply"/>
</g>
<path fill-rule="evenodd" clip-rule="evenodd" d="M326.177 27.4587C326.604 25.0414 328.823 23.3908 331.227 23.6341L331.571 23.6819L340.742 25.2989C343.159 25.7252 344.81 27.9449 344.567 30.3484L344.519 30.6928L344.114 32.9855C345.29 33.1928 346.103 34.2487 346.035 35.4123L346.003 35.6824L344.386 44.8532C345.652 45.0765 346.498 46.2838 346.274 47.55C346.067 48.7258 345.011 49.5388 343.847 49.4702L343.577 49.4385L342.365 56.3165C343.631 56.5398 344.476 57.7473 344.253 59.0135C344.046 60.1893 342.988 61.002 341.824 60.9333L341.554 60.9016L339.753 71.0586C339.572 72.0776 338.745 72.8431 337.739 72.9636L337.46 72.9802H318.549C317.86 72.9802 317.207 72.6755 316.765 72.1479C316.385 71.6958 316.194 71.1196 316.223 70.5373L316.256 70.2462L318.627 56.8589C317.362 56.635 316.518 55.4279 316.741 54.1624C316.948 52.9866 318.004 52.1735 319.168 52.2421L319.438 52.2738L320.651 45.3959C319.384 45.1726 318.539 43.965 318.762 42.6989C318.969 41.5232 320.025 40.7102 321.189 40.7788L321.459 40.8105L323.076 31.6398C323.183 31.0318 323.528 30.4912 324.033 30.137C324.455 29.8419 324.96 29.6964 325.468 29.7181L325.773 29.7514L326.177 27.4587ZM323.213 57.6675L321.325 68.3241H325.915L326.849 63.0234C327.072 61.7572 328.28 60.9116 329.546 61.1349C330.812 61.3581 331.658 62.5657 331.435 63.8319L330.643 68.3241H335.509L336.969 60.0931L323.213 57.6675ZM325.236 46.2044L324.023 53.0824L328.608 53.8909L329.013 51.5982C329.236 50.332 330.443 49.4867 331.71 49.71C332.885 49.9173 333.699 50.9731 333.63 52.1367L333.598 52.4068L333.194 54.6994L337.779 55.508L338.992 48.63L325.236 46.2044ZM327.257 34.741L326.044 41.619L330.63 42.4276L331.034 40.1349C331.257 38.8687 332.465 38.0232 333.731 38.2465C334.997 38.4697 335.843 39.6772 335.619 40.9434L335.215 43.2361L339.801 44.0447L341.013 37.1666L327.257 34.741ZM330.763 28.2672L330.358 30.5599L339.529 32.1769L339.934 29.8843L330.763 28.2672Z" fill="#B90B0B"/>
<g filter="url(#filter3_b_235_31582)">
<rect x="436" y="37" width="95" height="96" rx="10" fill="#EDF4FF" fill-opacity="0.5"/>
<rect x="436.5" y="37.5" width="94" height="95" rx="9.5" stroke="#FF637F" style="mix-blend-mode:multiply"/>
</g>
<g filter="url(#filter4_b_235_31582)">
<rect x="568" y="125" width="96" height="95" rx="10" fill="#EDF4FF" fill-opacity="0.5"/>
<rect x="568.5" y="125.5" width="95" height="94" rx="9.5" stroke="#FF637F" style="mix-blend-mode:multiply"/>
</g>
<path fill-rule="evenodd" clip-rule="evenodd" d="M483.02 58.2695C484.343 58.2695 485.415 59.3421 485.415 60.6651V65.352C485.489 66.1912 485.58 67.0286 485.676 67.8656C486.876 67.9954 487.811 69.0121 487.811 70.2472C487.811 71.2639 487.177 72.1327 486.284 72.4805L486.435 73.4706C487.094 77.6918 488.091 82.7432 489.506 87.0159H490.206C491.529 87.0159 492.602 88.0884 492.602 89.4114C492.602 90.3334 492.081 91.1338 491.317 91.5343C491.744 92.4334 492.203 93.3259 492.684 94.2025H494.997C496.32 94.2025 497.393 95.2749 497.393 96.598C497.393 97.7318 496.605 98.6814 495.548 98.93C497.394 101.729 499.389 104.465 501.591 106.998C502.21 107.706 502.358 108.71 501.97 109.565C501.581 110.421 500.728 110.971 499.789 110.971H490.206C489.375 110.971 488.612 110.542 488.178 109.85L488.031 109.579C487.721 108.939 487.275 108.361 486.78 107.854C485.905 106.957 484.688 106.18 483.02 106.18C481.351 106.18 480.135 106.957 479.259 107.854C478.867 108.255 478.502 108.709 478.213 109.199L478.008 109.579C477.617 110.427 476.768 110.971 475.833 110.971H466.251C465.311 110.971 464.458 110.421 464.07 109.565C463.684 108.715 463.838 107.698 464.451 106.995C466.653 104.461 468.643 101.732 470.492 98.93C469.434 98.6814 468.647 97.7318 468.647 96.598C468.647 95.2749 469.719 94.2025 471.042 94.2025H473.355C473.836 93.3259 474.296 92.4334 474.722 91.5343C473.959 91.1338 473.438 90.3334 473.438 89.4114C473.438 88.0884 474.51 87.0159 475.833 87.0159H476.533C477.791 83.2179 478.719 78.8047 479.372 74.9062L479.756 72.4805C478.862 72.1327 478.229 71.2639 478.229 70.2472C478.229 69.0121 479.163 67.9954 480.364 67.8656C480.459 67.0286 480.55 66.1912 480.624 65.352V60.6651C480.624 59.3421 481.697 58.2695 483.02 58.2695ZM486.189 91.8069H479.851L479.32 93.0107L478.754 94.2025H487.285L486.72 93.0107L486.189 91.8069Z" fill="#B90B0B"/>
<path d="M593.997 188.455C592.756 188.455 591.75 187.449 591.75 186.208C591.75 185.055 592.617 184.105 593.735 183.975L596.343 183.963C596.314 179.68 595.043 175.242 592.271 171.915C591.051 170.451 592.092 168.229 593.997 168.229C597.313 168.229 600.375 169.153 603.114 170.69C602.469 167.095 601.227 163.528 598.965 160.619C597.792 159.111 598.916 156.921 600.825 156.994C613.075 157.465 620.919 162.11 624.928 169.646C629.167 167.217 634.067 165.982 638.944 165.982C640.795 165.982 641.852 168.096 640.741 169.577C637.084 174.454 635.992 179.534 636.389 183.962L638.944 183.96C640.185 183.96 641.191 184.966 641.191 186.208C641.191 187.36 640.323 188.31 639.206 188.44L593.997 188.455ZM598.552 173.528C600.087 176.765 600.824 180.388 600.84 183.963L603.306 183.96C603.626 181.525 603.761 179.061 603.699 176.605C602.117 175.299 600.476 174.271 598.552 173.528ZM604.993 161.869C606.025 163.988 606.73 166.236 607.265 168.528C608.378 173.609 608.424 178.959 607.837 183.961L623.428 183.964C623.62 180.664 623.204 176.997 621.8 173.553C618.919 166.487 612.281 162.899 604.993 161.869ZM634.64 170.854L634.617 170.859C631.839 171.359 629.077 172.356 626.672 173.847C627.764 177.277 628.092 180.748 627.93 183.963L631.879 183.961C631.544 179.38 632.612 174.941 634.64 170.854Z" fill="#B90B0B"/>
<path fill-rule="evenodd" clip-rule="evenodd" d="M43.2549 156.638C43.9319 156.638 44.5327 156.965 44.9078 157.469L45.0376 157.667H53.8209C54.1372 157.12 54.6979 156.732 55.3536 156.653L55.6036 156.638H61.778C62.4551 156.638 63.0559 156.965 63.431 157.469L63.5608 157.667H65.8943C68.0644 157.667 69.8421 159.346 69.9993 161.476L70.0106 161.783V163.841C70.0106 166.011 68.3314 167.789 66.2015 167.946L65.8943 167.957V184.422C67.031 184.422 67.9524 185.344 67.9524 186.481C67.9524 187.536 67.1579 188.406 66.1343 188.525L65.8943 188.539H30.9061C29.7694 188.539 28.8479 187.617 28.8479 186.481C28.8479 185.425 29.6425 184.555 30.6661 184.436L30.9061 184.422H32.0264C33.7602 182.241 34.7994 179.563 34.9937 176.786L35.0223 176.19V167.825C34.0064 167.713 32.6871 167.502 31.3437 167.099C29.9109 166.669 28.302 165.977 27.0209 164.824C25.6809 163.618 24.7317 161.926 24.7317 159.725C24.7317 158.669 25.5262 157.8 26.5498 157.681L26.7898 157.667H35.2977C35.614 157.12 36.1747 156.732 36.8304 156.653L37.0805 156.638H43.2549ZM53.5455 167.957H47.3711V184.422H50.5495C52.4072 182.085 53.4675 179.178 53.5455 176.19V167.957ZM61.778 178.248H57.5309C57.2799 180.211 56.6776 182.062 55.8101 183.783L55.4725 184.422H61.778V178.248ZM43.2549 178.248H39.0077C38.7252 180.456 37.9983 182.523 36.9494 184.422H43.2549V178.248ZM61.778 167.957H57.6618V174.132H61.778V167.957ZM43.2549 167.957H39.1386V174.132H43.2549V167.957ZM41.4721 160.754H38.8633C38.5469 161.301 37.9863 161.689 37.3305 161.768L37.0805 161.783H29.7951C31.5233 163.316 34.3141 163.762 36.6 163.832L37.0816 163.841H65.8943V161.783H61.778C61.101 161.783 60.5001 161.456 60.1251 160.951L59.9953 160.754H57.3864C57.0701 161.301 56.5094 161.689 55.8537 161.768L55.6036 161.783H43.2549C42.5777 161.783 41.9769 161.456 41.6019 160.951L41.4721 160.754Z" fill="#B90B0B"/>
<path fill-rule="evenodd" clip-rule="evenodd" d="M174.3 62.0137C175.455 62.0137 176.392 62.9502 176.392 64.1055V66.4756C177.398 66.7191 178.487 67.1167 179.587 67.6466C181.555 68.5942 183.712 70.0362 185.715 72.0398C186.477 72.8009 187.214 73.6417 187.91 74.5649H188.943C190.098 74.5649 191.035 75.5015 191.035 76.6568C191.035 77.3263 190.72 77.9223 190.231 78.3052C191.983 81.7894 193.127 86.0932 193.127 91.2999C193.127 95.5166 192.419 99.7318 191.558 103.851H195.218C196.374 103.851 197.31 104.788 197.31 105.943C197.31 107.098 196.374 108.035 195.218 108.035C186.851 108.035 178.484 108.035 170.116 108.035C168.961 108.035 168.024 107.098 168.024 105.943C168.024 104.788 168.961 103.851 170.116 103.851H172.208V78.7486C171.053 78.7486 170.116 77.8121 170.116 76.6568C170.116 75.5015 171.053 74.5649 172.208 74.5649V64.1055C172.208 62.9502 173.144 62.0137 174.3 62.0137ZM176.392 70.8377V74.5649H182.31C180.61 72.9699 178.6 71.6188 176.392 70.8377ZM185.698 78.7486H176.392V82.9324H187.641C187.112 81.3743 186.448 79.9837 185.698 78.7486ZM188.644 87.1161H176.392V93.3917H188.871C189.019 91.0905 188.925 89.0103 188.644 87.1161ZM188.423 97.5755H176.392V103.851H187.279C187.6 102.387 188.07 100.054 188.423 97.5755Z" fill="#B90B0B"/>
<path d="M437.121 294.984C436.935 292.431 439.083 290.163 441.45 289.067C443.817 287.971 446.48 287.598 448.913 286.612C449.878 286.206 450.952 285.516 450.985 284.486C450.985 282.951 448.848 282.294 448.289 280.902C447.697 279.291 449.385 277.801 450.064 276.223C451.576 272.639 447.806 269.023 444.146 267.554C440.486 266.086 436.124 265.033 434.425 261.527C433.804 259.84 433.406 258.079 433.242 256.288C432.387 251.905 429.099 247.587 424.595 246.852C420.091 246.118 415.017 250.14 415.751 254.524C416.201 256.979 418.042 258.907 419.039 261.099C420.036 263.291 419.784 266.732 417.417 267.466C413.538 268.639 409.8 261.614 406.546 264.025C407.883 268.529 409.176 273.023 410.502 277.56C405.406 280.124 399.302 275.477 397.121 270.206C394.94 264.935 394.863 258.984 392.277 253.932C389.691 248.88 382.699 245.088 378.26 248.672C378.041 255.181 386.732 257.811 390.578 263.083C393.351 266.886 392.946 273.066 388.836 275.477C384.726 277.888 378.304 273.691 379.849 269.264C380.408 267.729 381.702 266.447 381.844 264.792C381.997 262.754 380.255 261.099 378.666 259.784C376.189 257.702 373.712 255.653 371.236 253.603C369.714 252.163 367.918 251.045 365.953 250.316C360.847 248.847 355.751 252.946 353.044 257.45C350.337 261.954 348.835 267.313 345.098 271.05C339.739 276.529 329.569 276.869 324.539 271.127C319.509 265.384 322.063 254.688 329.493 252.551C332.309 251.784 335.849 251.85 337.339 249.395C339.926 245.011 332.528 239.532 335.082 235.148C337.033 231.784 342.216 233.318 345.986 232.178C349.756 231.039 351.827 227.313 354.041 224.102C356.255 220.891 359.663 217.701 363.51 218.534C363.214 216.343 362.918 213.899 363.915 211.882C364.912 209.866 367.729 208.518 369.57 209.833C367.685 212.912 369.942 217.186 373.23 218.721C376.518 220.255 380.365 219.893 383.992 219.488C387.619 219.082 392.167 217.734 392.463 214.151C392.573 212.978 392.124 211.74 392.573 210.644C394.162 206.359 402.151 212.244 405.22 208.814C406.995 207.016 405.033 203.838 402.557 203.246C400.08 202.655 397.559 203.542 395.05 203.619C392.54 203.696 389.461 202.414 389.351 199.926C389.241 197.438 392.014 195.718 392.31 193.35C392.792 189.252 385.734 188.189 383.291 191.52C380.847 194.852 381.702 199.422 382.436 203.477C383.17 207.531 383.586 212.331 380.551 215.181C379.258 217.121 375.893 216.101 374.786 214.085C373.68 212.068 373.899 209.548 373.69 207.247C373.482 204.945 372.474 202.271 370.184 201.646C368.595 201.208 366.896 201.975 365.263 202.194C358.83 202.962 354.359 194.731 356.386 188.66C358.414 182.589 364.222 178.643 369.888 175.509C374.03 173.241 379.17 171.126 383.269 173.427C385.187 174.523 386.556 176.309 388.408 177.416C391.696 179.312 395.696 178.622 399.422 178.687C405.328 178.849 411.001 181.026 415.499 184.857C417.165 186.359 418.71 188.846 417.417 190.644C416.124 192.441 411.992 192.945 412.694 195.181C417.077 196.605 422.261 193.274 422.743 188.781C423.812 189.255 424.734 190.006 425.416 190.955C426.098 191.905 426.515 193.019 426.623 194.183C431.324 189.471 440.343 190.161 444.157 195.619C445.187 197.044 445.932 198.764 447.445 199.751C448.957 200.737 451.511 200.222 451.697 198.501C451.73 197.948 451.628 197.395 451.401 196.89C450.513 194.403 449.593 191.959 448.705 189.504C452.135 187.674 456.201 190.534 458.568 193.603C467.215 205.055 473.396 198.172 485.593 200.035C493.845 201.285 497.462 206.512 502.119 212.836C516.366 232.299 535.248 248.244 548.224 268.584C549.594 270.699 550.854 272.858 552.038 275.05C551.819 274.502 551.632 273.954 551.402 273.406C546.329 260.197 540.018 247.497 532.553 235.477C530.964 232.924 529.331 230.392 527.676 227.904C526.635 226.37 525.561 224.803 524.487 223.301C523.128 221.329 521.681 219.422 520.235 217.526C519.139 215.981 517.944 214.49 516.761 213.022C515.95 212.003 515.095 210.973 514.251 209.953C513.407 208.934 512.399 207.652 511.369 206.512L508.256 202.962C507.961 202.6 507.632 202.238 507.259 201.866C506.163 200.627 505.067 199.422 503.895 198.216C503.815 198.069 503.703 197.941 503.566 197.844C503.27 197.515 502.941 197.186 502.602 196.857C501.681 195.838 500.684 194.841 499.719 193.855C498.13 192.255 496.497 190.644 494.843 189.109C493.473 187.75 492.07 186.468 490.623 185.186C489.363 184.09 488.114 182.928 486.821 181.822C485.527 180.715 484.3 179.63 483.007 178.611C481.451 177.295 479.862 176.013 478.24 174.731C473.768 171.18 469.162 167.827 464.42 164.671C463.237 163.871 462.086 163.104 460.902 162.336C459.719 161.569 458.502 160.791 457.319 160.068C456.135 159.345 454.919 158.567 453.691 157.876C452.464 157.186 451.259 156.419 450.031 155.684C449.034 155.093 448.08 154.588 447.072 154.029C446.585 153.723 446.08 153.445 445.56 153.197C443.456 152.024 441.308 150.884 439.16 149.832C438.064 149.284 437.023 148.736 435.872 148.221C434.513 147.52 433.099 146.862 431.697 146.249C431.498 146.13 431.289 146.031 431.072 145.953C429.812 145.361 428.562 144.78 427.258 144.232C425.45 143.465 423.642 142.698 421.779 141.964C419.707 141.12 417.636 140.287 415.521 139.509C413.198 138.632 410.863 137.799 408.496 137.032C406.129 136.265 403.729 135.454 401.329 134.72C398.929 133.985 396.518 133.328 394.074 132.67C389.274 131.399 384.397 130.259 379.477 129.273C379.388 129.253 379.3 129.227 379.214 129.196C377.329 128.835 375.444 128.473 373.559 128.177C373.438 128.139 373.313 128.113 373.186 128.1C372.375 127.958 371.532 127.816 370.677 127.706C367.159 127.114 363.619 126.61 360.025 126.237C359.597 126.166 359.165 126.118 358.731 126.095C357.701 125.942 356.66 125.876 355.586 125.766C353.23 125.547 350.863 125.361 348.452 125.218C346.041 125.076 343.465 124.922 340.945 124.846C338.424 124.769 335.696 124.703 333.076 124.703C326.128 124.703 319.25 125.006 312.44 125.613C310.819 125.722 309.229 125.876 307.64 126.051C306.051 126.226 304.353 126.424 302.643 126.643C300.934 126.862 299.355 127.081 297.69 127.333C296.024 127.585 294.402 127.848 292.736 128.144C291.333 128.363 289.887 128.615 288.484 128.911C285.01 129.569 281.569 130.292 278.172 131.103C276.583 131.465 274.993 131.87 273.404 132.309C271.815 132.747 270.215 133.153 268.67 133.591C266.04 134.325 263.487 135.125 260.944 135.925C258.873 136.627 256.769 137.317 254.741 138.018C254.684 138.024 254.631 138.047 254.588 138.084C252.484 138.818 250.445 139.585 248.374 140.396L248.045 140.506C246.16 141.229 244.275 141.996 242.423 142.775C240.089 143.717 237.799 144.747 235.541 145.766C233.623 146.643 231.738 147.52 229.886 148.44C228.034 149.361 225.897 150.413 223.935 151.432L223.716 151.553C221.831 152.539 219.946 153.558 218.094 154.621C216.242 155.684 214.291 156.813 212.406 157.909C210.631 159.005 208.9 160.024 207.157 161.12C206.489 161.525 205.864 161.964 205.195 162.402C203.354 163.575 201.579 164.78 199.716 166.019C197.524 167.52 195.332 169.098 193.217 170.665C191.321 172.057 189.48 173.482 187.661 174.906C177.214 183.162 167.494 192.299 158.609 202.216C155.463 205.647 152.504 209.164 149.622 212.748C147.178 215.816 144.811 218.929 142.554 222.151C143.145 222.074 143.748 221.997 144.329 221.964C147.617 221.712 151.178 221.822 154.192 220.386C156.965 219.038 158.926 216.584 161.436 214.83C167.869 210.293 178.412 209.449 180.143 201.844C180.735 199.29 180.034 196.507 180.998 194.052C182.806 189.482 188.987 188.824 193.941 188.901C196.045 188.901 198.521 189.197 199.486 191.016C200.187 192.298 199.782 193.909 199.256 195.268C196.143 203.891 190.151 211.176 182.291 215.893C175.858 219.773 167.464 222.764 165.688 230.008C166.576 232.463 171.091 232.277 171.453 234.841C171.716 236.88 169.053 237.943 168.088 239.773C166.685 242.447 169.907 245.702 172.976 245.548C176.044 245.395 178.598 243.214 180.844 241.165C187.573 234.984 194.642 228.321 197.075 219.554C198.171 215.926 198.489 211.685 201.458 209.274C204.976 206.414 211.267 208.397 212.417 212.748C215.333 211.137 219.881 209.931 221.393 212.934C221.919 214.03 221.766 215.236 222.029 216.364C222.982 221.044 229.459 223.17 230.127 227.882C230.894 233.362 223.837 236.156 218.324 237C213.338 237.767 208.341 238.535 203.354 239.335C201.156 239.491 199.027 240.167 197.141 241.307C195.365 242.622 194.258 245.11 195.288 247.05C196.043 248.033 196.915 248.92 197.886 249.691C202.028 253.779 198.62 262.228 192.779 262.414C190.784 262.491 188.823 261.757 186.828 261.68C180.91 261.428 176.22 266.579 173.403 271.74C170.587 276.902 168.483 282.787 163.759 286.294C156.088 291.96 143.014 290.678 139.321 299.357C137.841 302.864 138.608 306.809 139.2 310.579C139.299 311.171 139.376 311.785 139.452 312.398H301.975C305.361 311.05 309.032 310.053 311.925 307.905C318.589 302.974 319.476 293.571 323.673 286.469C327.871 279.368 340.978 276.376 342.95 284.409C356.846 254.995 387.554 298.656 405.811 295.368C411.116 294.415 416.288 291.894 421.625 292.639C430.82 293.911 435.675 303.697 438.886 312.366H446.557C445.68 309.319 445.724 305.965 443.938 303.379C441.801 300.398 437.417 298.656 437.121 294.984ZM313.175 164.408C311.739 167.695 312.386 171.838 310.183 174.709C308.429 176.978 305.394 177.789 302.588 178.446L284.922 182.6C282.274 183.084 279.714 183.963 277.328 185.208C272.703 187.948 270.237 193.12 266.665 197.109C263.092 201.099 256.692 203.959 252.473 200.638C251.516 199.774 250.742 198.726 250.198 197.557C249.654 196.388 249.35 195.121 249.306 193.833C248.986 190.125 249.87 186.412 251.826 183.246C253.832 179.959 256.911 177.449 258.61 174.041C260.308 170.632 259.969 165.624 256.418 164.024C254.533 163.158 252.155 163.498 250.478 162.282C247.464 160.09 249.623 154.895 253.119 153.58C256.615 152.265 260.506 153.295 264.243 153.525C277.777 154.38 287.739 145.613 297.92 138.325C305.843 132.659 322.709 125.963 331.893 131.75C335.542 134.062 336.978 140.002 333.537 142.61C331.991 143.772 329.865 144.035 328.43 145.328C326.709 146.884 326.468 149.427 325.482 151.52C322.95 156.934 315.553 158.906 313.175 164.408Z" fill="#FFA2A2"/>
<g opacity="0.3">
<path d="M310.183 174.709C312.374 171.838 311.739 167.728 313.174 164.407C315.553 158.928 322.95 156.933 325.514 151.52C326.501 149.426 326.742 146.884 328.462 145.328C329.898 144.035 332.024 143.772 333.569 142.61C337.01 140.002 335.575 134.062 331.925 131.749C322.764 125.963 305.898 132.659 297.952 138.325C287.771 145.613 277.81 154.38 264.275 153.525C260.538 153.295 256.659 152.276 253.152 153.58C249.645 154.884 247.497 160.079 250.511 162.281C252.187 163.498 254.566 163.158 256.45 164.024C259.946 165.624 260.297 170.599 258.642 174.04C256.987 177.481 253.864 180.002 251.859 183.246C249.903 186.412 249.019 190.124 249.338 193.832C249.383 195.121 249.687 196.388 250.231 197.557C250.775 198.726 251.548 199.774 252.505 200.638C256.724 203.926 263.135 201.109 266.697 197.109C270.259 193.109 272.736 187.947 277.36 185.208C279.747 183.963 282.307 183.083 284.955 182.599L302.621 178.446C305.393 177.788 308.429 177.01 310.183 174.709Z" fill="black"/>
<path d="M421.625 292.65C416.288 291.905 411.116 294.425 405.811 295.379C387.554 298.666 356.846 254.962 342.95 284.42C341.011 276.419 327.871 279.433 323.673 286.535C319.476 293.636 318.588 303.039 311.925 307.97C309.032 310.162 305.35 311.116 301.975 312.464H438.886C435.675 303.707 430.842 293.921 421.625 292.65Z" fill="black"/>
<path d="M230.116 227.904C229.448 223.192 222.971 221.065 222.017 216.386C221.754 215.29 221.908 214.008 221.382 212.956C219.869 209.953 215.321 211.158 212.406 212.769C211.223 208.386 204.932 206.435 201.447 209.295C198.499 211.706 198.16 215.948 197.064 219.575C194.631 228.342 187.562 235.005 180.833 241.186C178.642 243.236 176.033 245.427 172.965 245.57C169.896 245.712 166.674 242.468 168.077 239.794C169.041 237.964 171.704 236.901 171.441 234.863C171.08 232.298 166.565 232.485 165.677 230.03C167.452 222.786 175.847 219.794 182.28 215.915C190.14 211.197 196.132 203.912 199.245 195.29C199.771 193.931 200.176 192.32 199.475 191.038C198.51 189.218 196.034 188.923 193.929 188.923C188.976 188.846 182.795 189.503 180.987 194.073C180.022 196.528 180.724 199.312 180.132 201.865C178.4 209.471 167.858 210.315 161.425 214.852C158.915 216.605 156.954 219.06 154.181 220.408C151.189 221.844 147.671 221.734 144.318 221.986C143.737 221.986 143.134 222.096 142.543 222.172C140.526 224.941 138.572 227.787 136.679 230.709C134.787 233.632 132.961 236.572 131.2 239.531C122.854 253.657 116.064 268.645 110.948 284.233C109.136 289.705 107.536 295.262 106.148 300.902C105.212 304.701 104.38 308.54 103.649 312.42H104.745C105.479 309.877 106.027 307.335 106.487 305.121C106.608 304.562 106.717 304.025 106.827 303.51C108.054 298.031 109.863 292.211 114.192 288.507C118.52 284.803 126.104 284.409 129.468 288.989C131.868 292.277 131.32 296.781 130.696 300.803C130.071 304.825 129.468 308.518 128.844 312.42H139.441C139.364 311.806 139.288 311.192 139.189 310.601C138.597 306.831 137.83 302.929 139.31 299.379C143.003 290.611 156.132 291.981 163.748 286.315C168.472 282.809 170.587 276.913 173.392 271.762C176.198 266.611 180.899 261.449 186.817 261.702C188.812 261.778 190.773 262.513 192.768 262.436C198.609 262.249 202.017 253.8 197.875 249.712C196.904 248.941 196.032 248.054 195.277 247.071C194.247 245.131 195.354 242.688 197.129 241.329C199.015 240.189 201.145 239.513 203.343 239.356C208.33 238.556 213.327 237.789 218.313 237.022C223.826 236.189 230.883 233.361 230.116 227.904Z" fill="black"/>
<path d="M557.967 292.901C557.09 289.888 556.169 286.896 555.183 283.926C554.197 280.956 553.156 278.019 552.049 275.093C550.865 272.901 549.605 270.709 548.235 268.627C535.259 248.287 516.454 232.342 502.13 212.879C497.473 206.555 493.856 201.328 485.604 200.078C473.407 198.215 467.226 205.098 458.579 193.646C456.245 190.577 452.179 187.717 448.716 189.547C449.604 192.002 450.524 194.446 451.412 196.933C451.639 197.438 451.741 197.991 451.708 198.544C451.522 200.265 448.935 200.736 447.456 199.794C445.976 198.851 445.264 197.087 444.168 195.662C440.321 190.182 431.302 189.514 426.634 194.226C426.526 193.062 426.109 191.948 425.427 190.998C424.745 190.049 423.823 189.298 422.754 188.824C422.272 193.317 417.066 196.648 412.705 195.224C412.003 193.032 415.992 192.583 417.428 190.687C418.864 188.791 417.176 186.402 415.51 184.9C411.011 181.063 405.333 178.882 399.422 178.719C395.696 178.654 391.663 179.344 388.408 177.448C386.524 176.352 385.187 174.522 383.269 173.459C379.17 171.158 374.03 173.273 369.888 175.541C364.222 178.654 358.381 182.566 356.386 188.692C354.392 194.818 358.83 202.939 365.263 202.226C366.885 202.007 368.551 201.24 370.184 201.679C372.474 202.303 373.471 204.966 373.69 207.279C373.91 209.591 373.614 212.068 374.786 214.117C375.959 216.166 379.258 217.186 380.551 215.213C383.586 212.364 383.214 207.542 382.436 203.509C381.658 199.476 380.847 194.873 383.291 191.552C385.734 188.232 392.792 189.284 392.31 193.383C392.014 195.794 389.241 197.547 389.351 199.958C389.461 202.369 392.529 203.761 395.05 203.651C397.57 203.542 400.113 202.665 402.557 203.279C405 203.892 406.995 207.048 405.22 208.846C402.151 212.276 394.162 206.391 392.573 210.676C392.124 211.772 392.573 213.01 392.463 214.183C392.167 217.766 387.619 219.081 383.992 219.52C380.365 219.958 376.529 220.287 373.23 218.753C369.932 217.218 367.685 212.944 369.57 209.865C367.729 208.55 364.912 209.865 363.915 211.914C362.918 213.964 363.214 216.298 363.51 218.566C359.663 217.734 356.222 220.944 354.041 224.134C351.86 227.323 349.723 231.082 345.986 232.21C342.249 233.339 337.033 231.816 335.082 235.18C332.528 239.564 339.926 245.12 337.339 249.427C335.849 251.882 332.309 251.816 329.493 252.583C322.062 254.665 319.476 265.416 324.539 271.159C329.602 276.901 339.739 276.573 345.098 271.082C348.835 267.312 350.348 262.019 353.044 257.482C355.74 252.945 360.847 248.879 365.953 250.348C367.918 251.077 369.714 252.195 371.236 253.635C373.712 255.685 376.189 257.734 378.666 259.816C380.255 261.131 381.954 262.786 381.844 264.824C381.702 266.479 380.408 267.761 379.849 269.296C378.304 273.679 384.77 277.92 388.836 275.509C392.902 273.099 393.351 266.918 390.578 263.115C386.732 257.844 378.041 255.213 378.26 248.704C382.699 245.12 389.691 248.879 392.277 253.964C394.863 259.049 394.94 265.011 397.121 270.238C399.302 275.466 405.406 280.156 410.502 277.592C409.176 273.055 407.883 268.561 406.546 264.057C409.833 261.646 413.538 268.671 417.417 267.498C419.784 266.764 420.08 263.4 419.039 261.131C417.998 258.863 416.201 256.967 415.751 254.556C415.017 250.096 420.047 246.106 424.595 246.885C429.143 247.663 432.387 251.904 433.242 256.32C433.406 258.111 433.804 259.872 434.425 261.559C436.124 265.066 440.53 266.129 444.146 267.586C447.763 269.044 451.576 272.671 450.064 276.255C449.363 277.833 447.697 279.323 448.289 280.934C448.848 282.359 450.985 282.984 450.985 284.518C450.985 285.548 449.889 286.238 448.913 286.644C446.48 287.63 443.817 287.959 441.45 289.099C439.083 290.238 436.935 292.463 437.121 295.017C437.417 298.677 441.823 300.43 443.894 303.466C445.68 306.052 445.636 309.406 446.513 312.452H473.582C472.607 310.502 471.642 308.562 470.656 306.611C472.848 304.781 476.311 305.515 478.568 307.345C480.213 308.851 481.65 310.569 482.842 312.452H562.58C561.324 305.826 559.786 299.309 557.967 292.901Z" fill="black"/>
</g>
<path d="M325.514 151.52C326.5 149.426 326.741 146.884 328.462 145.328C329.898 144.035 332.024 143.772 333.569 142.61C337.01 140.002 335.574 134.062 331.925 131.749C322.763 125.963 305.897 132.659 297.952 138.325C287.771 145.613 277.809 154.38 264.275 153.525C260.538 153.295 256.658 152.276 253.152 153.58C249.645 154.884 247.497 160.079 250.51 162.281C252.187 163.498 254.565 163.158 256.45 164.024C259.946 165.624 260.297 170.599 258.642 174.04C256.987 177.481 253.864 180.002 251.858 183.246C249.902 186.412 249.018 190.124 249.338 193.832C249.383 195.121 249.686 196.388 250.23 197.557C250.774 198.726 251.548 199.774 252.505 200.638C256.724 203.926 263.135 201.109 266.697 197.109C270.259 193.109 272.735 187.947 277.36 185.208C279.747 183.963 282.307 183.083 284.955 182.599L302.621 178.446C305.426 177.788 308.462 176.977 310.215 174.709C312.407 171.838 311.771 167.728 313.207 164.407C315.552 158.906 322.95 156.933 325.514 151.52Z" fill="#B90B0B"/>
<path d="M421.625 292.65C416.288 291.905 411.115 294.425 405.811 295.379C387.553 298.666 356.846 254.962 342.95 284.42C341.01 276.419 327.87 279.433 323.673 286.535C319.476 293.636 318.588 303.039 311.925 307.97C309.032 310.162 305.35 311.116 301.974 312.464H438.885C435.674 303.707 430.841 293.921 421.625 292.65Z" fill="#B90B0B"/>
<path d="M555.172 283.927C554.185 280.957 553.144 278.02 552.037 275.094C550.854 272.902 549.594 270.71 548.224 268.628C535.248 248.288 516.443 232.343 502.119 212.88C497.461 206.556 493.845 201.329 485.593 200.079C473.395 198.216 467.215 205.099 458.568 193.647C456.234 190.578 452.168 187.718 448.705 189.548C449.592 192.003 450.513 194.447 451.401 196.934C451.628 197.439 451.729 197.992 451.697 198.545C451.51 200.266 448.924 200.737 447.444 199.795C445.965 198.852 445.253 197.088 444.157 195.663C440.31 190.183 431.291 189.515 426.622 194.227C426.514 193.063 426.098 191.949 425.416 190.999C424.734 190.05 423.811 189.299 422.743 188.825C422.261 193.318 417.055 196.649 412.693 195.225C411.992 193.033 415.981 192.584 417.417 190.688C418.852 188.792 417.165 186.403 415.499 184.901C411 181.064 405.322 178.883 399.411 178.72C395.685 178.655 391.652 179.345 388.397 177.449C386.512 176.353 385.175 174.523 383.257 173.46C379.159 171.159 374.019 173.274 369.876 175.542C364.211 178.655 358.369 182.567 356.375 188.693C354.38 194.819 358.819 202.94 365.252 202.227C366.874 202.008 368.539 201.241 370.172 201.68C372.463 202.304 373.46 204.967 373.679 207.28C373.898 209.592 373.603 212.069 374.775 214.118C375.948 216.167 379.246 217.187 380.54 215.214C383.575 212.365 383.203 207.543 382.425 203.51C381.646 199.477 380.835 194.874 383.279 191.553C385.723 188.233 392.781 189.285 392.299 193.384C392.003 195.795 389.23 197.548 389.34 199.959C389.449 202.37 392.518 203.762 395.038 203.652C397.559 203.543 400.101 202.666 402.545 203.28C404.989 203.893 406.984 207.049 405.208 208.847C402.14 212.277 394.151 206.392 392.562 210.677C392.112 211.773 392.562 213.011 392.452 214.184C392.156 217.767 387.608 219.082 383.981 219.521C380.353 219.959 376.518 220.288 373.219 218.754C369.92 217.219 367.674 212.945 369.559 209.866C367.718 208.551 364.901 209.866 363.904 211.915C362.907 213.965 363.202 216.299 363.498 218.567C359.652 217.734 356.211 220.945 354.03 224.135C351.849 227.324 349.712 231.083 345.975 232.211C342.238 233.34 337.021 231.817 335.071 235.181C332.517 239.565 339.914 245.121 337.328 249.428C335.838 251.883 332.298 251.817 329.481 252.584C322.051 254.666 319.465 265.417 324.528 271.16C329.591 276.902 339.728 276.573 345.087 271.083C348.824 267.313 350.337 262.02 353.032 257.483C355.728 252.946 360.835 248.88 365.942 250.349C367.906 251.078 369.703 252.196 371.224 253.636C373.701 255.686 376.178 257.735 378.655 259.817C380.244 261.132 381.942 262.787 381.833 264.825C381.69 266.48 380.397 267.762 379.838 269.297C378.293 273.68 384.759 277.921 388.825 275.51C392.89 273.099 393.34 266.919 390.567 263.116C386.72 257.845 378.03 255.214 378.249 248.705C382.688 245.121 389.679 248.88 392.266 253.965C394.852 259.05 394.929 265.012 397.11 270.239C399.29 275.467 405.395 280.157 410.491 277.593C409.165 273.056 407.871 268.562 406.534 264.058C409.822 261.647 413.526 268.672 417.406 267.499C419.773 266.765 420.069 263.401 419.028 261.132C417.987 258.864 416.189 256.968 415.74 254.557C415.006 250.096 420.036 246.107 424.584 246.885C429.132 247.664 432.376 251.905 433.231 256.321C433.394 258.112 433.792 259.873 434.414 261.56C436.113 265.067 440.518 266.13 444.135 267.587C447.751 269.045 451.565 272.672 450.053 276.256C449.351 277.834 447.686 279.324 448.277 280.935C448.836 282.36 450.973 282.985 450.973 284.519C450.973 285.549 449.877 286.239 448.902 286.645C446.469 287.631 443.806 287.96 441.439 289.1C439.072 290.239 436.924 292.464 437.11 295.018C437.406 298.678 441.812 300.431 443.883 303.467C445.669 306.053 445.625 309.407 446.502 312.453H473.582C472.606 310.503 471.642 308.563 470.656 306.612C472.847 304.782 476.311 305.516 478.568 307.346C480.212 308.852 481.65 310.569 482.842 312.453H562.58C561.323 305.878 559.782 299.372 557.955 292.935C557.079 289.889 556.158 286.897 555.172 283.927Z" fill="#B90B0B"/>
<path d="M478.568 307.313C476.31 305.516 472.836 304.749 470.656 306.579C471.642 308.53 472.606 310.47 473.582 312.42H482.842C481.649 310.536 480.212 308.819 478.568 307.313Z" fill="#FFA2A2"/>
<path d="M139.331 299.379C143.024 290.611 156.153 291.981 163.77 286.315C168.493 282.809 170.608 276.913 173.414 271.762C176.219 266.611 180.921 261.449 186.839 261.702C188.833 261.778 190.795 262.513 192.789 262.436C198.631 262.249 202.039 253.8 197.896 249.712C196.926 248.941 196.054 248.054 195.299 247.071C194.269 245.131 195.376 242.688 197.151 241.329C199.037 240.189 201.167 239.513 203.365 239.356C208.351 238.556 213.349 237.789 218.335 237.022C223.814 236.178 230.905 233.361 230.138 227.904C229.469 223.192 222.992 221.065 222.039 216.386C221.776 215.29 221.929 214.008 221.403 212.956C219.891 209.953 215.343 211.158 212.428 212.769C211.244 208.386 204.954 206.435 201.469 209.295C198.521 211.706 198.181 215.948 197.085 219.575C194.652 228.342 187.584 235.005 180.855 241.186C178.663 243.236 176.055 245.427 172.986 245.57C169.918 245.712 166.696 242.468 168.099 239.794C169.063 237.964 171.726 236.901 171.463 234.863C171.102 232.298 166.586 232.485 165.699 230.03C167.474 222.786 175.869 219.794 182.302 215.915C190.162 211.197 196.154 203.912 199.266 195.29C199.792 193.931 200.198 192.32 199.496 191.038C198.532 189.218 196.055 188.923 193.951 188.923C188.998 188.846 182.817 189.503 181.008 194.073C180.044 196.528 180.745 199.312 180.154 201.865C178.422 209.471 167.88 210.315 161.447 214.852C158.937 216.605 156.975 219.06 154.203 220.408C151.211 221.844 147.693 221.734 144.34 221.986C143.759 221.986 143.156 222.096 142.564 222.172C140.533 224.941 138.571 227.787 136.679 230.709C134.787 233.632 132.96 236.572 131.2 239.531C122.854 253.657 116.063 268.645 110.947 284.233C109.136 289.705 107.535 295.262 106.147 300.902C105.212 304.701 104.379 308.54 103.649 312.42H104.745C105.479 309.877 106.027 307.335 106.487 305.121C106.608 304.562 106.717 304.025 106.827 303.51C108.054 298.031 109.862 292.211 114.191 288.507C118.52 284.803 126.104 284.409 129.468 288.989C131.868 292.277 131.32 296.781 130.696 300.803C130.071 304.825 129.468 308.518 128.843 312.42H139.441C139.364 311.806 139.287 311.192 139.189 310.601C138.597 306.831 137.83 302.886 139.331 299.379Z" fill="#B90B0B"/>
<path d="M129.468 288.99C126.104 284.376 118.509 284.815 114.202 288.508C109.896 292.201 108.065 297.987 106.838 303.511C106.728 304.015 106.619 304.607 106.498 305.122C106.038 307.314 105.49 309.878 104.756 312.42H128.866C129.479 308.541 130.097 304.669 130.718 300.804C131.32 296.782 131.868 292.278 129.468 288.99Z" fill="#FFA2A2"/>
<path d="M278.752 272.167C279.267 268.474 274.062 265.45 270.149 265.132C268.286 264.978 266.357 265.263 264.593 264.65C260.768 263.313 259.234 258.381 255.508 256.803C252.713 255.63 249.502 256.671 246.796 258.03C244.089 259.389 241.415 261.11 238.401 261.318C235.771 261.482 232.921 260.507 230.609 261.789C228.899 262.743 228.001 264.726 226.423 265.888C224.777 266.901 222.875 267.419 220.943 267.378C219.021 267.327 217.106 267.639 215.299 268.299C213.546 269.099 212.099 270.94 212.461 272.825L278.752 272.167Z" fill="#FAFAFA"/>
<path d="M295.804 245.877C296.144 243.357 292.582 241.285 289.908 241.066C288.628 241.112 287.348 241.001 286.094 240.737C283.475 239.817 282.434 236.441 279.881 235.356C277.963 234.556 275.771 235.269 273.919 236.2C272.067 237.132 270.226 238.304 268.165 238.447C266.357 238.556 264.406 237.888 262.828 238.765C261.656 239.422 261.042 240.781 259.957 241.57C258.836 242.273 257.532 242.627 256.209 242.589C254.891 242.56 253.58 242.776 252.341 243.225C251.727 243.465 251.207 243.897 250.858 244.455C250.509 245.014 250.348 245.67 250.401 246.326L295.804 245.877Z" fill="#FAFAFA"/>
<defs>
<filter id="filter0_b_235_31582" x="-2" y="123" width="100" height="99" filterUnits="userSpaceOnUse" color-interpolation-filters="sRGB">
<feFlood flood-opacity="0" result="BackgroundImageFix"/>
<feGaussianBlur in="BackgroundImageFix" stdDeviation="1"/>
<feComposite in2="SourceAlpha" operator="in" result="effect1_backgroundBlur_235_31582"/>
<feBlend mode="normal" in="SourceGraphic" in2="effect1_backgroundBlur_235_31582" result="shape"/>
</filter>
<filter id="filter1_b_235_31582" x="131" y="35" width="99" height="100" filterUnits="userSpaceOnUse" color-interpolation-filters="sRGB">
<feFlood flood-opacity="0" result="BackgroundImageFix"/>
<feGaussianBlur in="BackgroundImageFix" stdDeviation="1"/>
<feComposite in2="SourceAlpha" operator="in" result="effect1_backgroundBlur_235_31582"/>
<feBlend mode="normal" in="SourceGraphic" in2="effect1_backgroundBlur_235_31582" result="shape"/>
</filter>
<filter id="filter2_b_235_31582" x="282" y="-2" width="100" height="100" filterUnits="userSpaceOnUse" color-interpolation-filters="sRGB">
<feFlood flood-opacity="0" result="BackgroundImageFix"/>
<feGaussianBlur in="BackgroundImageFix" stdDeviation="1"/>
<feComposite in2="SourceAlpha" operator="in" result="effect1_backgroundBlur_235_31582"/>
<feBlend mode="normal" in="SourceGraphic" in2="effect1_backgroundBlur_235_31582" result="shape"/>
</filter>
<filter id="filter3_b_235_31582" x="434" y="35" width="99" height="100" filterUnits="userSpaceOnUse" color-interpolation-filters="sRGB">
<feFlood flood-opacity="0" result="BackgroundImageFix"/>
<feGaussianBlur in="BackgroundImageFix" stdDeviation="1"/>
<feComposite in2="SourceAlpha" operator="in" result="effect1_backgroundBlur_235_31582"/>
<feBlend mode="normal" in="SourceGraphic" in2="effect1_backgroundBlur_235_31582" result="shape"/>
</filter>
<filter id="filter4_b_235_31582" x="566" y="123" width="100" height="99" filterUnits="userSpaceOnUse" color-interpolation-filters="sRGB">
<feFlood flood-opacity="0" result="BackgroundImageFix"/>
<feGaussianBlur in="BackgroundImageFix" stdDeviation="1"/>
<feComposite in2="SourceAlpha" operator="in" result="effect1_backgroundBlur_235_31582"/>
<feBlend mode="normal" in="SourceGraphic" in2="effect1_backgroundBlur_235_31582" result="shape"/>
</filter>
</defs>
</svg>
