<svg width="406" height="400" viewBox="0 0 406 400" fill="none" xmlns="http://www.w3.org/2000/svg">
<path d="M6.99993 209.043L24.3149 208.606L15.2789 193.829L6.99993 209.043ZM181.964 259.078C184.785 255.678 184.316 250.635 180.916 247.813C177.516 244.992 172.472 245.461 169.651 248.861C166.829 252.261 167.299 257.305 170.699 260.126C174.099 262.948 179.142 262.478 181.964 259.078ZM177.248 254.388C177.641 253.034 177.942 251.688 178.151 250.354L175.188 249.888C174.998 251.094 174.726 252.315 174.367 253.551L177.248 254.388ZM178.3 242.123C177.964 239.395 177.246 236.745 176.187 234.183L173.415 235.33C174.377 237.657 175.021 240.045 175.323 242.49L178.3 242.123ZM172.212 227.04C170.708 224.907 168.961 222.852 166.999 220.882L164.873 222.998C166.728 224.862 168.363 226.788 169.761 228.769L172.212 227.04ZM160.94 215.562C158.897 213.981 156.708 212.465 154.389 211.017L152.8 213.561C155.041 214.961 157.147 216.42 159.104 217.935L160.94 215.562ZM147.46 207.084C145.152 205.892 142.748 204.757 140.261 203.682L139.071 206.436C141.498 207.485 143.84 208.591 146.084 209.75L147.46 207.084ZM132.871 200.752C130.427 199.864 127.92 199.03 125.359 198.252L124.487 201.122C126.998 201.886 129.454 202.703 131.847 203.572L132.871 200.752ZM117.73 196.137C115.195 195.499 112.619 194.915 110.01 194.385L109.413 197.325C111.977 197.846 114.509 198.42 116.999 199.046L117.73 196.137ZM102.221 192.981C99.6281 192.572 97.0115 192.217 94.3787 191.917L94.0392 194.897C96.6294 195.192 99.2033 195.542 101.754 195.944L102.221 192.981ZM86.4981 191.19C83.8696 191.004 81.2322 190.874 78.5929 190.803L78.5114 193.802C81.1069 193.872 83.701 194 86.2867 194.182L86.4981 191.19ZM70.6767 190.763C68.0318 190.81 65.392 190.916 62.7646 191.085L62.9567 194.079C65.5366 193.913 68.1298 193.808 70.7291 193.763L70.6767 190.763ZM54.8736 191.785C52.2348 192.085 49.6159 192.452 47.0246 192.888L47.5216 195.846C50.0589 195.42 52.6253 195.06 55.2132 194.766L54.8736 191.785ZM39.2435 194.423C36.6437 195.015 34.0808 195.682 31.5634 196.426L32.4135 199.303C34.8677 198.577 37.3692 197.926 39.9099 197.348L39.2435 194.423ZM24.0153 198.943C21.5037 199.881 19.05 200.906 16.6638 202.019L17.9322 204.738C20.2436 203.66 22.6244 202.665 25.0657 201.753L24.0153 198.943Z" fill="#B90B0B"/>
<path d="M366.467 67.2002L353.845 79.0614L370.428 84.0617L366.467 67.2002ZM46.3188 223.871C46.3188 228.289 49.9006 231.871 54.3188 231.871C58.7371 231.871 62.3188 228.289 62.3188 223.871C62.3188 219.453 58.7371 215.871 54.3188 215.871C49.9006 215.871 46.3188 219.453 46.3188 223.871ZM52.9259 224.427C53.4471 225.732 53.9975 227.003 54.5765 228.241L57.2941 226.97C56.7398 225.785 56.2121 224.566 55.7117 223.314L52.9259 224.427ZM58.4441 235.367C59.9116 237.713 61.5011 239.911 63.206 241.966L65.5149 240.051C63.8966 238.1 62.3851 236.01 60.9872 233.776L58.4441 235.367ZM68.861 247.888C70.8852 249.728 73.0261 251.414 75.2752 252.947L76.9653 250.469C74.8295 249.012 72.7986 247.413 70.8793 245.668L68.861 247.888ZM82.2999 257.077C84.7004 258.285 87.1951 259.352 89.7762 260.28L90.792 257.458C88.3198 256.568 85.9364 255.549 83.6483 254.398L82.2999 257.077ZM97.5618 262.609C100.155 263.238 102.818 263.748 105.546 264.143L105.976 261.174C103.337 260.792 100.766 260.299 98.2692 259.694L97.5618 262.609ZM113.6 264.966C116.231 265.129 118.912 265.196 121.637 265.171L121.609 262.171C118.951 262.196 116.342 262.13 113.785 261.972L113.6 264.966ZM129.692 264.838C132.342 264.647 135.029 264.375 137.748 264.026L137.366 261.05C134.7 261.393 132.069 261.659 129.476 261.846L129.692 264.838ZM145.667 262.806C148.265 262.341 150.887 261.81 153.532 261.215L152.873 258.288C150.27 258.874 147.691 259.396 145.139 259.853L145.667 262.806ZM161.375 259.277C163.917 258.595 166.475 257.857 169.048 257.064L168.164 254.197C165.625 254.98 163.102 255.708 160.598 256.38L161.375 259.277ZM176.676 254.566C179.185 253.697 181.704 252.779 184.232 251.812L183.16 249.01C180.661 249.966 178.172 250.873 175.694 251.731L176.676 254.566ZM191.646 248.847C194.103 247.822 196.565 246.753 199.031 245.641L197.798 242.906C195.358 244.007 192.921 245.064 190.491 246.078L191.646 248.847ZM206.26 242.263C208.652 241.106 211.045 239.91 213.438 238.675L212.062 236.009C209.693 237.232 207.322 238.417 204.954 239.562L206.26 242.263ZM220.503 234.918C222.831 233.642 225.157 232.332 227.478 230.986L225.974 228.391C223.673 229.724 221.368 231.023 219.061 232.287L220.503 234.918ZM234.364 226.887C236.629 225.502 238.887 224.086 241.138 222.638L239.515 220.115C237.284 221.55 235.045 222.955 232.8 224.327L234.364 226.887ZM247.833 218.224C250.034 216.737 252.224 215.221 254.404 213.676L252.67 211.228C250.508 212.76 248.336 214.264 246.154 215.738L247.833 218.224ZM260.896 208.967C263.03 207.383 265.152 205.772 267.259 204.134L265.418 201.765C263.328 203.389 261.224 204.987 259.108 206.559L260.896 208.967ZM273.533 199.146C275.598 197.467 277.648 195.762 279.68 194.033L277.737 191.748C275.721 193.463 273.688 195.153 271.64 196.819L273.533 199.146ZM285.723 188.776C287.714 187.003 289.687 185.207 291.64 183.389L289.595 181.193C287.66 182.996 285.703 184.777 283.728 186.535L285.723 188.776ZM297.436 177.865C299.347 176.001 301.237 174.115 303.103 172.208L300.958 170.11C299.109 172 297.236 173.87 295.341 175.718L297.436 177.865ZM308.633 166.42C310.456 164.465 312.254 162.49 314.024 160.496L311.78 158.504C310.027 160.48 308.245 162.437 306.439 164.374L308.633 166.42ZM319.264 154.441C320.989 152.397 322.685 150.333 324.35 148.252L322.007 146.378C320.359 148.439 318.679 150.482 316.971 152.507L319.264 154.441ZM329.27 141.929C330.885 139.794 332.466 137.642 334.013 135.474L331.571 133.732C330.041 135.877 328.475 138.006 326.877 140.119L329.27 141.929ZM338.576 128.88C340.066 126.656 341.52 124.417 342.934 122.162L340.393 120.568C338.995 122.796 337.558 125.01 336.084 127.209L338.576 128.88ZM347.093 115.295C348.442 112.984 349.75 110.658 351.014 108.319L348.375 106.893C347.127 109.202 345.835 111.499 344.502 113.782L347.093 115.295ZM354.715 101.181C355.905 98.7826 357.048 96.3713 358.143 93.9479L355.409 92.7127C354.33 95.1024 353.202 97.4809 352.027 99.8472L354.715 101.181ZM361.316 86.5542C362.325 84.0695 363.283 81.5732 364.186 79.0665L361.364 78.0494C360.474 80.5176 359.531 82.9764 358.536 85.4247L361.316 86.5542Z" fill="#B90B0B"/>
<rect x="121.123" y="103.785" width="36.9806" height="17.8939" rx="8.94693" fill="#B90B0B"/>
<path d="M140.026 120.824C140.026 121.374 139.89 121.848 139.62 122.246C139.353 122.644 138.968 122.949 138.464 123.16C137.965 123.372 137.368 123.478 136.674 123.478C136.336 123.478 136.012 123.458 135.703 123.42C135.394 123.382 135.102 123.327 134.827 123.255C134.556 123.179 134.309 123.088 134.084 122.982V121.548C134.461 121.713 134.882 121.863 135.348 121.999C135.813 122.13 136.287 122.195 136.77 122.195C137.163 122.195 137.489 122.145 137.747 122.043C138.009 121.937 138.204 121.789 138.331 121.599C138.458 121.404 138.521 121.178 138.521 120.919C138.521 120.644 138.447 120.412 138.299 120.221C138.151 120.031 137.927 119.857 137.626 119.701C137.33 119.54 136.958 119.368 136.509 119.187C136.205 119.064 135.913 118.924 135.633 118.768C135.358 118.611 135.113 118.427 134.897 118.215C134.681 118.004 134.51 117.754 134.383 117.466C134.26 117.174 134.199 116.832 134.199 116.438C134.199 115.913 134.324 115.465 134.573 115.092C134.827 114.72 135.183 114.434 135.64 114.235C136.101 114.036 136.638 113.937 137.252 113.937C137.739 113.937 138.196 113.988 138.623 114.089C139.055 114.191 139.478 114.335 139.893 114.521L139.41 115.746C139.029 115.59 138.659 115.465 138.299 115.372C137.944 115.278 137.58 115.232 137.208 115.232C136.886 115.232 136.613 115.281 136.389 115.378C136.164 115.475 135.993 115.613 135.875 115.791C135.76 115.964 135.703 116.171 135.703 116.413C135.703 116.683 135.769 116.912 135.9 117.098C136.035 117.28 136.243 117.447 136.522 117.6C136.806 117.752 137.169 117.921 137.614 118.107C138.126 118.319 138.56 118.541 138.915 118.774C139.275 119.007 139.55 119.286 139.74 119.612C139.931 119.933 140.026 120.338 140.026 120.824ZM137.315 133.19C137.942 133.19 138.479 133.319 138.928 133.578C139.376 133.836 139.721 134.202 139.962 134.676C140.204 135.15 140.324 135.717 140.324 136.377V137.177H135.633C135.65 137.858 135.832 138.383 136.179 138.751C136.53 139.119 137.021 139.303 137.652 139.303C138.1 139.303 138.502 139.261 138.858 139.176C139.218 139.087 139.588 138.958 139.969 138.789V140.001C139.618 140.167 139.26 140.287 138.896 140.363C138.532 140.439 138.096 140.478 137.588 140.478C136.899 140.478 136.291 140.344 135.767 140.078C135.246 139.807 134.838 139.405 134.542 138.872C134.25 138.338 134.104 137.676 134.104 136.885C134.104 136.098 134.237 135.429 134.503 134.879C134.77 134.329 135.145 133.91 135.627 133.622C136.109 133.334 136.672 133.19 137.315 133.19ZM137.315 134.314C136.846 134.314 136.465 134.466 136.173 134.771C135.885 135.076 135.716 135.522 135.665 136.11H138.864C138.86 135.759 138.801 135.448 138.687 135.177C138.576 134.906 138.407 134.695 138.179 134.542C137.954 134.39 137.667 134.314 137.315 134.314ZM138.179 150.19C138.97 150.19 139.586 150.396 140.026 150.806C140.47 151.212 140.692 151.866 140.692 152.768V157.351H139.201V153.047C139.201 152.501 139.089 152.093 138.864 151.822C138.64 151.547 138.293 151.409 137.823 151.409C137.142 151.409 136.668 151.619 136.401 152.038C136.139 152.457 136.008 153.064 136.008 153.859V157.351H134.516V150.324H135.678L135.887 151.276H135.97C136.122 151.03 136.31 150.829 136.535 150.673C136.763 150.512 137.017 150.391 137.296 150.311C137.58 150.231 137.874 150.19 138.179 150.19ZM136.877 174.478C136.04 174.478 135.367 174.173 134.859 173.563C134.355 172.95 134.104 172.046 134.104 170.853C134.104 169.647 134.36 168.735 134.872 168.117C135.388 167.499 136.067 167.19 136.909 167.19C137.265 167.19 137.576 167.239 137.842 167.336C138.109 167.43 138.337 167.556 138.528 167.717C138.722 167.878 138.888 168.058 139.023 168.257H139.093C139.072 168.126 139.046 167.937 139.017 167.692C138.991 167.442 138.979 167.212 138.979 167V164.474H140.477V174.351H139.309L139.042 173.392H138.979C138.852 173.595 138.691 173.779 138.496 173.944C138.306 174.105 138.077 174.234 137.811 174.332C137.548 174.429 137.237 174.478 136.877 174.478ZM137.296 173.265C137.935 173.265 138.386 173.081 138.648 172.713C138.911 172.345 139.046 171.792 139.055 171.056V170.859C139.055 170.072 138.928 169.469 138.674 169.05C138.42 168.627 137.957 168.416 137.284 168.416C136.746 168.416 136.336 168.633 136.052 169.069C135.773 169.501 135.633 170.104 135.633 170.878C135.633 171.653 135.773 172.245 136.052 172.656C136.336 173.062 136.75 173.265 137.296 173.265Z" fill="white"/>
<rect x="111.58" width="169.793" height="285.506" rx="30" fill="#F2F2F2"/>
<path d="M111.58 30C111.58 13.4315 125.011 0 141.58 0H251.372C267.941 0 281.372 13.4315 281.372 30V70.3825H111.58V30Z" fill="#B90B0B"/>
<path d="M166.672 40.9624H228.704M166.672 47.7223H202.435" stroke="#918EFF" stroke-width="5" stroke-linecap="round"/>
<path d="M169.892 21.0152C169.639 21.0152 169.414 21.065 169.218 21.1646C169.024 21.2613 168.861 21.4022 168.727 21.5871C168.596 21.7721 168.497 21.9954 168.428 22.2572C168.36 22.519 168.326 22.8135 168.326 23.1407C168.326 23.5817 168.38 23.9587 168.488 24.2717C168.599 24.5818 168.77 24.8194 169 24.9845C169.231 25.1466 169.528 25.2277 169.892 25.2277C170.145 25.2277 170.399 25.1993 170.652 25.1424C170.908 25.0855 171.185 25.0044 171.484 24.8991V26.0088C171.208 26.1226 170.936 26.2037 170.669 26.2521C170.402 26.3033 170.101 26.3289 169.768 26.3289C169.125 26.3289 168.596 26.1966 168.181 25.932C167.768 25.6645 167.462 25.2918 167.263 24.8137C167.064 24.3329 166.964 23.7723 166.964 23.1321C166.964 22.6598 167.028 22.2273 167.156 21.8347C167.284 21.442 167.472 21.102 167.72 20.8146C167.967 20.5272 168.273 20.3053 168.637 20.1488C169.002 19.9923 169.42 19.9141 169.892 19.9141C170.202 19.9141 170.512 19.9539 170.823 20.0336C171.136 20.1104 171.434 20.2171 171.719 20.3537L171.292 21.4292C171.059 21.3182 170.824 21.2215 170.588 21.139C170.352 21.0565 170.12 21.0152 169.892 21.0152Z" fill="white"/>
<path d="M177.05 23.8492C177.05 24.2475 176.996 24.6003 176.887 24.9076C176.782 25.2149 176.627 25.4753 176.422 25.6887C176.22 25.8992 175.976 26.0586 175.688 26.1667C175.404 26.2748 175.082 26.3289 174.724 26.3289C174.388 26.3289 174.079 26.2748 173.797 26.1667C173.519 26.0586 173.275 25.8992 173.068 25.6887C172.863 25.4753 172.703 25.2149 172.59 24.9076C172.479 24.6003 172.423 24.2475 172.423 23.8492C172.423 23.3199 172.517 22.8718 172.705 22.5047C172.893 22.1377 173.16 21.8589 173.507 21.6682C173.854 21.4776 174.268 21.3823 174.749 21.3823C175.196 21.3823 175.591 21.4776 175.936 21.6682C176.283 21.8589 176.555 22.1377 176.751 22.5047C176.95 22.8718 177.05 23.3199 177.05 23.8492ZM173.75 23.8492C173.75 24.1622 173.785 24.4253 173.853 24.6387C173.921 24.8521 174.028 25.0129 174.173 25.121C174.318 25.2292 174.507 25.2832 174.741 25.2832C174.971 25.2832 175.158 25.2292 175.3 25.121C175.445 25.0129 175.55 24.8521 175.616 24.6387C175.684 24.4253 175.718 24.1622 175.718 23.8492C175.718 23.5333 175.684 23.2716 175.616 23.0639C175.55 22.8533 175.445 22.6954 175.3 22.5901C175.155 22.4848 174.965 22.4322 174.732 22.4322C174.388 22.4322 174.137 22.5503 173.981 22.7864C173.827 23.0226 173.75 23.3768 173.75 23.8492Z" fill="white"/>
<path d="M180.835 21.3823C181.345 21.3823 181.754 21.5217 182.065 21.8005C182.375 22.0765 182.53 22.5204 182.53 23.1321V26.2435H181.228V23.4565C181.228 23.1151 181.165 22.8576 181.04 22.684C180.918 22.5104 180.724 22.4237 180.46 22.4237C180.061 22.4237 179.79 22.5588 179.645 22.8291C179.499 23.0994 179.427 23.4892 179.427 23.9985V26.2435H178.125V21.4719H179.12L179.295 22.0822H179.367C179.47 21.9172 179.596 21.7834 179.747 21.681C179.901 21.5786 180.07 21.5032 180.255 21.4548C180.443 21.4064 180.636 21.3823 180.835 21.3823Z" fill="white"/>
<path d="M185.005 26.2435L183.187 21.4719H184.549L185.47 24.1906C185.522 24.3499 185.561 24.5178 185.59 24.6942C185.621 24.8706 185.643 25.0286 185.654 25.168H185.688C185.697 25.0172 185.717 24.8564 185.748 24.6857C185.782 24.515 185.826 24.3499 185.88 24.1906L186.798 21.4719H188.159L186.341 26.2435H185.005Z" fill="white"/>
<path d="M190.814 21.3823C191.255 21.3823 191.635 21.4676 191.954 21.6383C192.272 21.8062 192.518 22.0509 192.692 22.3724C192.865 22.694 192.952 23.0866 192.952 23.5504V24.1821H189.875C189.889 24.5491 189.999 24.8379 190.204 25.0485C190.411 25.2562 190.699 25.36 191.066 25.36C191.37 25.36 191.649 25.3287 191.902 25.2661C192.156 25.2035 192.416 25.1096 192.683 24.9845V25.9917C192.447 26.1084 192.2 26.1937 191.941 26.2478C191.685 26.3018 191.373 26.3289 191.006 26.3289C190.528 26.3289 190.104 26.2407 189.734 26.0643C189.367 25.8878 189.078 25.619 188.868 25.2576C188.66 24.8962 188.556 24.441 188.556 23.8918C188.556 23.3342 188.65 22.8704 188.838 22.5005C189.029 22.1277 189.293 21.8489 189.632 21.6639C189.97 21.4762 190.364 21.3823 190.814 21.3823ZM190.823 22.3084C190.569 22.3084 190.359 22.3895 190.191 22.5517C190.026 22.7139 189.93 22.9685 189.905 23.3157H191.732C191.729 23.1222 191.693 22.95 191.625 22.7992C191.559 22.6484 191.46 22.5289 191.326 22.4407C191.195 22.3525 191.027 22.3084 190.823 22.3084Z" fill="white"/>
<path d="M196.674 21.3823C196.739 21.3823 196.815 21.3865 196.9 21.3951C196.988 21.4008 197.059 21.4093 197.114 21.4207L197.015 22.6413C196.973 22.6271 196.912 22.6171 196.832 22.6114C196.755 22.6029 196.688 22.5986 196.631 22.5986C196.463 22.5986 196.3 22.62 196.14 22.6627C195.984 22.7053 195.843 22.775 195.718 22.8718C195.593 22.9657 195.493 23.0909 195.419 23.2474C195.348 23.401 195.312 23.5902 195.312 23.815V26.2435H194.011V21.4719H194.997L195.189 22.2743H195.253C195.347 22.1121 195.463 21.9641 195.603 21.8304C195.745 21.6938 195.906 21.5857 196.085 21.506C196.267 21.4235 196.463 21.3823 196.674 21.3823Z" fill="white"/>
<path d="M199.99 25.2918C200.132 25.2918 200.27 25.2775 200.404 25.2491C200.541 25.2206 200.676 25.1851 200.81 25.1424V26.1112C200.67 26.1738 200.497 26.225 200.289 26.2649C200.084 26.3075 199.859 26.3289 199.615 26.3289C199.33 26.3289 199.074 26.2834 198.846 26.1923C198.622 26.0984 198.444 25.9376 198.313 25.71C198.185 25.4795 198.121 25.1594 198.121 24.7497V22.4493H197.498V21.8987L198.215 21.4633L198.59 20.4561H199.423V21.4719H200.758V22.4493H199.423V24.7497C199.423 24.9318 199.474 25.0684 199.576 25.1594C199.681 25.2476 199.819 25.2918 199.99 25.2918Z" fill="white"/>
<path d="M205.453 26.2435H204.151V20.0037H207.728V21.0878H205.453V22.6968H207.57V23.7766H205.453V26.2435Z" fill="white"/>
<path d="M208.949 26.2435V20.0037H210.272V26.2435H208.949Z" fill="white"/>
<path d="M215.662 26.2435L215.21 24.7583H212.935L212.483 26.2435H211.057L213.259 19.9781H214.877L217.088 26.2435H215.662ZM214.894 23.6486L214.442 22.1974C214.413 22.1007 214.375 21.9769 214.326 21.8261C214.281 21.6725 214.234 21.5174 214.186 21.3609C214.14 21.2016 214.103 21.0636 214.075 20.9469C214.046 21.0636 214.006 21.2087 213.955 21.3823C213.907 21.553 213.86 21.7152 213.814 21.8688C213.769 22.0225 213.736 22.132 213.716 22.1974L213.268 23.6486H214.894Z" fill="white"/>
<path d="M220.285 26.2435H218.961V21.1048H217.267V20.0037H221.979V21.1048H220.285V26.2435Z" fill="white"/>
<rect x="247.176" y="33.7993" width="21.075" height="21.075" rx="10.5375" fill="white"/>
<path d="M257.923 43.5769L260.102 41.3981L261.072 42.3677L258.893 44.5465L261.094 46.7472L260.124 47.7168L257.923 45.5161L255.75 47.6895L254.78 46.7199L256.954 44.5465L254.731 42.3241L255.701 41.3545L257.923 43.5769Z" fill="#263238"/>
<rect x="126.294" y="133.607" width="136.391" height="29.8231" rx="11" fill="white"/>
<path d="M158.901 145.536H231.669M158.901 152.296H200.854" stroke="#DCDCDC" stroke-width="5" stroke-linecap="round"/>
<rect x="127.587" y="172.281" width="135.391" height="28.8231" rx="10.5" fill="#D4E9EE" stroke="#8BBDCA" stroke-dasharray="2 2"/>
<g filter="url(#filter0_d_235_32108)">
<rect x="79.3708" y="170.985" width="136.391" height="29.8231" rx="11" fill="white"/>
<rect x="79.8708" y="171.485" width="135.391" height="28.8231" rx="10.5" stroke="#EFEFEF"/>
</g>
<path d="M114.762 182.517H187.53M114.762 189.277H156.715" stroke="#DCDCDC" stroke-width="5" stroke-linecap="round"/>
<rect x="124.701" y="83.1069" width="136.789" height="24.6538" rx="12.3269" fill="white"/>
<path d="M246.18 90.2646C245.355 90.2646 244.547 90.5095 243.861 90.9683C243.174 91.4271 242.639 92.0792 242.323 92.8421C242.007 93.605 241.924 94.4445 242.085 95.2544C242.246 96.0643 242.644 96.8083 243.228 97.3922C243.812 97.9761 244.556 98.3738 245.366 98.5349C246.176 98.696 247.015 98.6133 247.778 98.2973C248.541 97.9813 249.193 97.4461 249.652 96.7595C250.111 96.0729 250.356 95.2657 250.356 94.4399C250.356 93.3326 249.916 92.2706 249.133 91.4876C248.35 90.7046 247.288 90.2647 246.18 90.2646V90.2646Z" stroke="#DCDCDC" stroke-width="2" stroke-miterlimit="10"/>
<path d="M249.163 97.4219L252.344 100.603" stroke="#DCDCDC" stroke-width="2" stroke-miterlimit="10" stroke-linecap="round"/>
<path d="M138.572 97.4223L137.547 94.0818H137.52C137.524 94.1614 137.53 94.2818 137.538 94.4429C137.548 94.6022 137.556 94.772 137.564 94.9526C137.572 95.1332 137.576 95.2963 137.576 95.4419V97.4223H136.769V93.1644H137.998L139.006 96.4205H139.023L140.092 93.1644H141.321V97.4223H140.479V95.4069C140.479 95.273 140.481 95.1186 140.485 94.9439C140.491 94.7691 140.498 94.6031 140.506 94.4459C140.513 94.2866 140.519 94.1672 140.523 94.0876H140.497L139.399 97.4223H138.572Z" fill="#333131"/>
<path d="M145.285 95.7885C145.285 96.0603 145.248 96.3011 145.174 96.5108C145.102 96.7204 144.997 96.8981 144.857 97.0437C144.719 97.1874 144.552 97.2961 144.356 97.3699C144.162 97.4437 143.942 97.4806 143.698 97.4806C143.469 97.4806 143.258 97.4437 143.066 97.3699C142.875 97.2961 142.709 97.1874 142.568 97.0437C142.428 96.8981 142.319 96.7204 142.241 96.5108C142.166 96.3011 142.128 96.0603 142.128 95.7885C142.128 95.4273 142.192 95.1215 142.32 94.8711C142.448 94.6206 142.631 94.4303 142.868 94.3002C143.105 94.1701 143.387 94.1051 143.715 94.1051C144.02 94.1051 144.29 94.1701 144.525 94.3002C144.762 94.4303 144.947 94.6206 145.081 94.8711C145.217 95.1215 145.285 95.4273 145.285 95.7885ZM143.034 95.7885C143.034 96.0021 143.057 96.1816 143.104 96.3273C143.15 96.4729 143.223 96.5826 143.322 96.6564C143.421 96.7302 143.55 96.767 143.709 96.767C143.867 96.767 143.994 96.7302 144.091 96.6564C144.19 96.5826 144.262 96.4729 144.306 96.3273C144.353 96.1816 144.376 96.0021 144.376 95.7885C144.376 95.573 144.353 95.3943 144.306 95.2526C144.262 95.1089 144.19 95.0012 144.091 94.9293C143.992 94.8575 143.863 94.8216 143.703 94.8216C143.469 94.8216 143.298 94.9021 143.191 95.0633C143.086 95.2244 143.034 95.4662 143.034 95.7885Z" fill="#333131"/>
<path d="M147.836 94.1051C147.881 94.1051 147.932 94.108 147.991 94.1138C148.051 94.1177 148.099 94.1235 148.136 94.1313L148.069 94.9643C148.04 94.9546 147.998 94.9478 147.944 94.9439C147.892 94.9381 147.846 94.9351 147.807 94.9351C147.693 94.9351 147.581 94.9497 147.472 94.9788C147.365 95.0079 147.269 95.0555 147.184 95.1215C147.098 95.1856 147.03 95.271 146.98 95.3778C146.931 95.4827 146.907 95.6118 146.907 95.7652V97.4223H146.019V94.1663H146.692L146.823 94.7138H146.866C146.93 94.6031 147.01 94.5022 147.105 94.4109C147.202 94.3177 147.312 94.2439 147.434 94.1896C147.559 94.1333 147.693 94.1051 147.836 94.1051Z" fill="#333131"/>
<path d="M150.07 94.1051C150.371 94.1051 150.63 94.1633 150.848 94.2798C151.065 94.3944 151.233 94.5614 151.351 94.7808C151.47 95.0002 151.529 95.2681 151.529 95.5846V96.0156H149.429C149.439 96.2661 149.514 96.4632 149.654 96.6069C149.795 96.7486 149.991 96.8195 150.242 96.8195C150.45 96.8195 150.64 96.7981 150.813 96.7554C150.985 96.7127 151.163 96.6486 151.346 96.5632V97.2505C151.185 97.3301 151.016 97.3884 150.839 97.4252C150.664 97.4621 150.452 97.4806 150.201 97.4806C149.875 97.4806 149.586 97.4204 149.333 97.3C149.083 97.1796 148.886 96.9962 148.742 96.7496C148.6 96.503 148.529 96.1923 148.529 95.8176C148.529 95.437 148.593 95.1206 148.722 94.8682C148.852 94.6138 149.032 94.4235 149.263 94.2973C149.494 94.1692 149.763 94.1051 150.07 94.1051ZM150.076 94.7371C149.903 94.7371 149.759 94.7924 149.645 94.9031C149.532 95.0138 149.467 95.1875 149.45 95.4244H150.696C150.694 95.2924 150.67 95.1749 150.623 95.072C150.579 94.9691 150.511 94.8876 150.42 94.8274C150.33 94.7672 150.216 94.7371 150.076 94.7371Z" fill="#333131"/>
<path d="M155.173 96.7729C155.27 96.7729 155.364 96.7632 155.455 96.7437C155.548 96.7243 155.64 96.7001 155.732 96.6709V97.3321C155.637 97.3748 155.518 97.4097 155.376 97.4369C155.237 97.466 155.083 97.4806 154.916 97.4806C154.722 97.4806 154.547 97.4495 154.392 97.3874C154.239 97.3233 154.117 97.2136 154.028 97.0583C153.941 96.901 153.897 96.6826 153.897 96.403V94.8332H153.472V94.4575L153.961 94.1604L154.217 93.4731H154.785V94.1663H155.697V94.8332H154.785V96.403C154.785 96.5273 154.82 96.6205 154.89 96.6826C154.962 96.7428 155.056 96.7729 155.173 96.7729Z" fill="#333131"/>
<path d="M157.281 92.8906V93.8139C157.281 93.975 157.275 94.1284 157.264 94.274C157.254 94.4196 157.246 94.5225 157.24 94.5827H157.287C157.357 94.4701 157.439 94.3789 157.535 94.309C157.632 94.2391 157.738 94.1876 157.855 94.1546C157.971 94.1216 158.097 94.1051 158.231 94.1051C158.466 94.1051 158.67 94.1468 158.845 94.2303C159.02 94.3119 159.156 94.441 159.253 94.6177C159.35 94.7924 159.398 95.0196 159.398 95.2992V97.4223H158.51V95.5205C158.51 95.2875 158.467 95.1118 158.382 94.9934C158.297 94.8749 158.165 94.8157 157.986 94.8157C157.807 94.8157 157.667 94.8575 157.564 94.941C157.461 95.0225 157.388 95.1439 157.345 95.305C157.303 95.4642 157.281 95.6594 157.281 95.8904V97.4223H156.393V92.8906H157.281Z" fill="#333131"/>
<path d="M161.647 94.0993C162.084 94.0993 162.419 94.1944 162.652 94.3847C162.885 94.575 163.001 94.8643 163.001 95.2526V97.4223H162.381L162.209 96.9797H162.186C162.092 97.0961 161.997 97.1913 161.9 97.2651C161.803 97.3388 161.692 97.3932 161.565 97.4282C161.439 97.4631 161.286 97.4806 161.105 97.4806C160.913 97.4806 160.74 97.4437 160.587 97.3699C160.435 97.2961 160.316 97.1835 160.229 97.0321C160.141 96.8787 160.097 96.6845 160.097 96.4496C160.097 96.104 160.219 95.8496 160.462 95.6865C160.704 95.5215 161.068 95.4302 161.554 95.4128L162.119 95.3953V95.2526C162.119 95.0817 162.074 94.9565 161.985 94.8769C161.895 94.7973 161.771 94.7575 161.612 94.7575C161.455 94.7575 161.3 94.7798 161.149 94.8245C160.997 94.8691 160.846 94.9254 160.695 94.9934L160.4 94.3934C160.573 94.3022 160.766 94.2303 160.98 94.1779C161.195 94.1255 161.418 94.0993 161.647 94.0993ZM162.119 95.9137L161.775 95.9254C161.488 95.9331 161.288 95.9846 161.175 96.0797C161.064 96.1749 161.009 96.3001 161.009 96.4554C161.009 96.5913 161.049 96.6884 161.128 96.7467C161.208 96.803 161.312 96.8311 161.44 96.8311C161.63 96.8311 161.791 96.7748 161.921 96.6622C162.053 96.5496 162.119 96.3894 162.119 96.1816V95.9137Z" fill="#333131"/>
<path d="M165.768 94.1051C166.115 94.1051 166.395 94.2002 166.607 94.3905C166.818 94.5789 166.924 94.8817 166.924 95.2992V97.4223H166.036V95.5205C166.036 95.2875 165.993 95.1118 165.908 94.9934C165.824 94.8749 165.692 94.8157 165.512 94.8157C165.24 94.8157 165.054 94.908 164.955 95.0924C164.856 95.2769 164.807 95.5429 164.807 95.8904V97.4223H163.919V94.1663H164.597L164.717 94.5827H164.766C164.836 94.4701 164.922 94.3789 165.025 94.309C165.13 94.2391 165.246 94.1876 165.372 94.1546C165.5 94.1216 165.632 94.1051 165.768 94.1051Z" fill="#333131"/>
<path d="M172.233 96.5399H171.721V97.4223H170.841V96.5399H169.024V95.9137L170.891 93.1644H171.721V95.8409H172.233V96.5399ZM170.841 95.8409V95.1186C170.841 95.0507 170.842 94.9701 170.844 94.8769C170.848 94.7837 170.852 94.6905 170.856 94.5973C170.86 94.5041 170.864 94.4216 170.868 94.3497C170.873 94.276 170.877 94.2245 170.879 94.1954H170.856C170.819 94.275 170.78 94.3527 170.739 94.4284C170.699 94.5022 170.651 94.5798 170.597 94.6614L169.816 95.8409H170.841Z" fill="#333131"/>
<path d="M175.527 95.2934C175.527 95.637 175.5 95.9438 175.446 96.2137C175.393 96.4836 175.308 96.7127 175.19 96.901C175.073 97.0894 174.92 97.233 174.729 97.3321C174.539 97.4311 174.308 97.4806 174.036 97.4806C173.695 97.4806 173.414 97.3942 173.195 97.2214C172.975 97.0466 172.813 96.7962 172.708 96.47C172.603 96.1418 172.551 95.7496 172.551 95.2934C172.551 94.8332 172.598 94.44 172.694 94.1138C172.791 93.7857 172.948 93.5343 173.165 93.3595C173.383 93.1848 173.673 93.0974 174.036 93.0974C174.376 93.0974 174.656 93.1848 174.875 93.3595C175.096 93.5323 175.26 93.7828 175.367 94.1109C175.474 94.4371 175.527 94.8313 175.527 95.2934ZM173.445 95.2934C173.445 95.6176 173.463 95.8885 173.497 96.1059C173.534 96.3214 173.596 96.4836 173.681 96.5923C173.766 96.701 173.885 96.7554 174.036 96.7554C174.186 96.7554 174.303 96.702 174.389 96.5952C174.476 96.4865 174.538 96.3244 174.575 96.1088C174.612 95.8914 174.63 95.6196 174.63 95.2934C174.63 94.9691 174.612 94.6983 174.575 94.4808C174.538 94.2633 174.476 94.1002 174.389 93.9915C174.303 93.8808 174.186 93.8255 174.036 93.8255C173.885 93.8255 173.766 93.8808 173.681 93.9915C173.596 94.1002 173.534 94.2633 173.497 94.4808C173.463 94.6983 173.445 94.9691 173.445 95.2934Z" fill="#333131"/>
<path d="M179.643 93.8546C179.47 93.8546 179.316 93.8886 179.182 93.9566C179.05 94.0226 178.939 94.1187 178.848 94.2449C178.758 94.3711 178.69 94.5235 178.644 94.7021C178.597 94.8808 178.574 95.0817 178.574 95.305C178.574 95.606 178.611 95.8632 178.684 96.0768C178.76 96.2884 178.877 96.4506 179.034 96.5632C179.191 96.6738 179.394 96.7292 179.643 96.7292C179.815 96.7292 179.988 96.7098 180.161 96.6709C180.336 96.6321 180.525 96.5768 180.729 96.5049V97.2622C180.541 97.3398 180.355 97.3952 180.173 97.4282C179.99 97.4631 179.785 97.4806 179.558 97.4806C179.119 97.4806 178.758 97.3903 178.475 97.2097C178.193 97.0272 177.985 96.7729 177.849 96.4467C177.713 96.1185 177.645 95.7361 177.645 95.2992C177.645 94.9769 177.688 94.6818 177.776 94.4138C177.863 94.1459 177.991 93.9139 178.16 93.7177C178.329 93.5216 178.538 93.3702 178.786 93.2634C179.035 93.1566 179.32 93.1032 179.643 93.1032C179.854 93.1032 180.066 93.1304 180.278 93.1848C180.491 93.2372 180.695 93.31 180.889 93.4032L180.598 94.1371C180.439 94.0614 180.279 93.9954 180.117 93.9391C179.956 93.8828 179.798 93.8546 179.643 93.8546Z" fill="#333131"/>
<path d="M184.556 94.1663V97.4223H183.874L183.755 97.0059H183.708C183.638 97.1165 183.551 97.2068 183.446 97.2767C183.341 97.3466 183.226 97.3981 183.1 97.4311C182.973 97.4641 182.842 97.4806 182.707 97.4806C182.474 97.4806 182.271 97.4398 182.098 97.3583C181.925 97.2748 181.79 97.1457 181.693 96.9709C181.598 96.7962 181.55 96.569 181.55 96.2894V94.1663H182.439V96.0681C182.439 96.3011 182.48 96.4768 182.564 96.5952C182.647 96.7137 182.78 96.7729 182.963 96.7729C183.143 96.7729 183.285 96.7321 183.388 96.6505C183.491 96.5671 183.563 96.4457 183.604 96.2865C183.646 96.1253 183.668 95.9292 183.668 95.6982V94.1663H184.556Z" fill="#333131"/>
<path d="M187.305 94.1051C187.35 94.1051 187.401 94.108 187.46 94.1138C187.52 94.1177 187.568 94.1235 187.605 94.1313L187.538 94.9643C187.509 94.9546 187.467 94.9478 187.413 94.9439C187.361 94.9381 187.315 94.9351 187.276 94.9351C187.162 94.9351 187.05 94.9497 186.941 94.9788C186.834 95.0079 186.738 95.0555 186.653 95.1215C186.567 95.1856 186.499 95.271 186.449 95.3778C186.4 95.4827 186.376 95.6118 186.376 95.7652V97.4223H185.488V94.1663H186.161L186.292 94.7138H186.335C186.399 94.6031 186.479 94.5022 186.574 94.4109C186.671 94.3177 186.781 94.2439 186.903 94.1896C187.028 94.1333 187.162 94.1051 187.305 94.1051Z" fill="#333131"/>
<path d="M190.014 94.1051C190.058 94.1051 190.11 94.108 190.168 94.1138C190.228 94.1177 190.277 94.1235 190.314 94.1313L190.247 94.9643C190.218 94.9546 190.176 94.9478 190.122 94.9439C190.069 94.9381 190.023 94.9351 189.985 94.9351C189.87 94.9351 189.758 94.9497 189.65 94.9788C189.543 95.0079 189.447 95.0555 189.361 95.1215C189.276 95.1856 189.208 95.271 189.157 95.3778C189.109 95.4827 189.085 95.6118 189.085 95.7652V97.4223H188.196V94.1663H188.869L189 94.7138H189.044C189.108 94.6031 189.188 94.5022 189.283 94.4109C189.38 94.3177 189.49 94.2439 189.612 94.1896C189.736 94.1333 189.87 94.1051 190.014 94.1051Z" fill="#333131"/>
<path d="M192.248 94.1051C192.549 94.1051 192.808 94.1633 193.025 94.2798C193.243 94.3944 193.411 94.5614 193.529 94.7808C193.647 95.0002 193.707 95.2681 193.707 95.5846V96.0156H191.607C191.617 96.2661 191.691 96.4632 191.831 96.6069C191.973 96.7486 192.169 96.8195 192.419 96.8195C192.627 96.8195 192.817 96.7981 192.99 96.7554C193.163 96.7127 193.341 96.6486 193.523 96.5632V97.2505C193.362 97.3301 193.193 97.3884 193.016 97.4252C192.842 97.4621 192.629 97.4806 192.379 97.4806C192.052 97.4806 191.763 97.4204 191.511 97.3C191.26 97.1796 191.063 96.9962 190.92 96.7496C190.778 96.503 190.707 96.1923 190.707 95.8176C190.707 95.437 190.771 95.1206 190.899 94.8682C191.029 94.6138 191.21 94.4235 191.441 94.2973C191.672 94.1692 191.941 94.1051 192.248 94.1051ZM192.253 94.7371C192.081 94.7371 191.937 94.7924 191.822 94.9031C191.71 95.0138 191.645 95.1875 191.627 95.4244H192.874C192.872 95.2924 192.848 95.1749 192.801 95.072C192.756 94.9691 192.688 94.8876 192.597 94.8274C192.508 94.7672 192.393 94.7371 192.253 94.7371Z" fill="#333131"/>
<path d="M196.278 94.1051C196.626 94.1051 196.905 94.2002 197.117 94.3905C197.329 94.5789 197.435 94.8817 197.435 95.2992V97.4223H196.546V95.5205C196.546 95.2875 196.504 95.1118 196.418 94.9934C196.335 94.8749 196.203 94.8157 196.022 94.8157C195.75 94.8157 195.565 94.908 195.466 95.0924C195.367 95.2769 195.317 95.5429 195.317 95.8904V97.4223H194.429V94.1663H195.108L195.227 94.5827H195.276C195.346 94.4701 195.433 94.3789 195.536 94.309C195.641 94.2391 195.756 94.1876 195.882 94.1546C196.01 94.1216 196.142 94.1051 196.278 94.1051Z" fill="#333131"/>
<path d="M199.671 97.4806C199.349 97.4806 199.074 97.4223 198.847 97.3058C198.62 97.1874 198.447 97.0049 198.329 96.7583C198.21 96.5117 198.151 96.1962 198.151 95.8118C198.151 95.4137 198.218 95.0895 198.352 94.839C198.488 94.5866 198.675 94.4012 198.914 94.2828C199.155 94.1643 199.433 94.1051 199.75 94.1051C199.975 94.1051 200.169 94.1274 200.332 94.1721C200.497 94.2148 200.641 94.2663 200.763 94.3264L200.501 95.0138C200.362 94.9575 200.231 94.9118 200.111 94.8769C199.991 94.84 199.87 94.8216 199.75 94.8216C199.595 94.8216 199.465 94.8584 199.363 94.9322C199.26 95.0041 199.183 95.1128 199.133 95.2584C199.082 95.404 199.057 95.5865 199.057 95.8059C199.057 96.0215 199.084 96.2001 199.138 96.3418C199.193 96.4836 199.271 96.5894 199.374 96.6593C199.477 96.7272 199.602 96.7612 199.75 96.7612C199.934 96.7612 200.098 96.7369 200.242 96.6884C200.386 96.6379 200.526 96.568 200.662 96.4787V97.2389C200.526 97.3243 200.383 97.3854 200.233 97.4223C200.086 97.4612 199.898 97.4806 199.671 97.4806Z" fill="#333131"/>
<path d="M202.307 94.1663V97.4223H201.419V94.1663H202.307ZM201.864 92.8906C201.996 92.8906 202.11 92.9217 202.205 92.9838C202.3 93.044 202.348 93.1576 202.348 93.3246C202.348 93.4896 202.3 93.6042 202.205 93.6682C202.11 93.7304 201.996 93.7614 201.864 93.7614C201.73 93.7614 201.616 93.7304 201.521 93.6682C201.427 93.6042 201.381 93.4896 201.381 93.3246C201.381 93.1576 201.427 93.044 201.521 92.9838C201.616 92.9217 201.73 92.8906 201.864 92.8906Z" fill="#333131"/>
<path d="M204.585 94.1051C204.885 94.1051 205.145 94.1633 205.362 94.2798C205.58 94.3944 205.748 94.5614 205.866 94.7808C205.984 95.0002 206.044 95.2681 206.044 95.5846V96.0156H203.944C203.954 96.2661 204.028 96.4632 204.168 96.6069C204.31 96.7486 204.506 96.8195 204.756 96.8195C204.964 96.8195 205.154 96.7981 205.327 96.7554C205.5 96.7127 205.678 96.6486 205.86 96.5632V97.2505C205.699 97.3301 205.53 97.3884 205.353 97.4252C205.179 97.4621 204.966 97.4806 204.716 97.4806C204.389 97.4806 204.1 97.4204 203.848 97.3C203.597 97.1796 203.4 96.9962 203.256 96.7496C203.115 96.503 203.044 96.1923 203.044 95.8176C203.044 95.437 203.108 95.1206 203.236 94.8682C203.366 94.6138 203.547 94.4235 203.778 94.2973C204.009 94.1692 204.278 94.1051 204.585 94.1051ZM204.59 94.7371C204.418 94.7371 204.274 94.7924 204.159 94.9031C204.047 95.0138 203.982 95.1875 203.964 95.4244H205.211C205.209 95.2924 205.184 95.1749 205.138 95.072C205.093 94.9691 205.025 94.8876 204.934 94.8274C204.845 94.7672 204.73 94.7371 204.59 94.7371Z" fill="#333131"/>
<path d="M209.038 96.4554C209.038 96.6768 208.985 96.8641 208.88 97.0175C208.777 97.169 208.623 97.2845 208.417 97.3641C208.211 97.4418 207.955 97.4806 207.648 97.4806C207.421 97.4806 207.226 97.466 207.063 97.4369C206.902 97.4078 206.739 97.3592 206.574 97.2913V96.5574C206.75 96.637 206.94 96.703 207.142 96.7554C207.346 96.8059 207.524 96.8311 207.678 96.8311C207.85 96.8311 207.974 96.8059 208.047 96.7554C208.123 96.703 208.161 96.635 208.161 96.5515C208.161 96.4972 208.145 96.4486 208.114 96.4059C208.085 96.3612 208.021 96.3117 207.922 96.2574C207.823 96.2011 207.668 96.1283 207.456 96.0389C207.252 95.9535 207.084 95.8671 206.952 95.7797C206.822 95.6924 206.725 95.5895 206.661 95.471C206.599 95.3506 206.568 95.1982 206.568 95.0138C206.568 94.7128 206.684 94.4866 206.917 94.3352C207.152 94.1818 207.466 94.1051 207.858 94.1051C208.06 94.1051 208.252 94.1255 208.435 94.1663C208.619 94.207 208.809 94.2721 209.003 94.3614L208.735 95.0021C208.574 94.9322 208.421 94.8749 208.277 94.8303C208.136 94.7856 207.991 94.7633 207.844 94.7633C207.713 94.7633 207.615 94.7808 207.549 94.8157C207.483 94.8507 207.45 94.9041 207.45 94.9759C207.45 95.0283 207.467 95.0749 207.5 95.1157C207.535 95.1565 207.601 95.2021 207.698 95.2526C207.797 95.3011 207.942 95.3642 208.132 95.4419C208.316 95.5176 208.476 95.5972 208.612 95.6807C208.748 95.7623 208.853 95.8642 208.927 95.9865C209.001 96.1069 209.038 96.2632 209.038 96.4554Z" fill="#333131"/>
<path d="M128.637 120.497C128.464 120.497 128.311 120.531 128.177 120.598C128.045 120.664 127.933 120.761 127.842 120.887C127.752 121.013 127.684 121.165 127.638 121.344C127.591 121.523 127.568 121.724 127.568 121.947C127.568 122.248 127.605 122.505 127.679 122.719C127.754 122.93 127.871 123.092 128.028 123.205C128.185 123.316 128.388 123.371 128.637 123.371C128.81 123.371 128.982 123.352 129.155 123.313C129.33 123.274 129.519 123.219 129.723 123.147V123.904C129.535 123.982 129.349 124.037 129.167 124.07C128.984 124.105 128.78 124.122 128.552 124.122C128.114 124.122 127.752 124.032 127.469 123.852C127.187 123.669 126.979 123.415 126.843 123.089C126.707 122.76 126.639 122.378 126.639 121.941C126.639 121.619 126.683 121.324 126.77 121.056C126.857 120.788 126.985 120.556 127.154 120.36C127.323 120.164 127.532 120.012 127.781 119.905C128.029 119.799 128.315 119.745 128.637 119.745C128.848 119.745 129.06 119.772 129.272 119.827C129.485 119.879 129.689 119.952 129.883 120.045L129.592 120.779C129.433 120.703 129.273 120.637 129.112 120.581C128.95 120.525 128.792 120.497 128.637 120.497Z" fill="#333131"/>
<path d="M133.521 122.43C133.521 122.702 133.484 122.943 133.41 123.153C133.338 123.362 133.233 123.54 133.093 123.686C132.955 123.829 132.788 123.938 132.592 124.012C132.398 124.086 132.178 124.122 131.934 124.122C131.705 124.122 131.494 124.086 131.302 124.012C131.111 123.938 130.945 123.829 130.804 123.686C130.664 123.54 130.555 123.362 130.477 123.153C130.402 122.943 130.364 122.702 130.364 122.43C130.364 122.069 130.428 121.763 130.556 121.513C130.684 121.262 130.867 121.072 131.104 120.942C131.341 120.812 131.623 120.747 131.951 120.747C132.256 120.747 132.526 120.812 132.761 120.942C132.998 121.072 133.183 121.262 133.317 121.513C133.453 121.763 133.521 122.069 133.521 122.43ZM131.27 122.43C131.27 122.644 131.293 122.824 131.34 122.969C131.386 123.115 131.459 123.224 131.558 123.298C131.657 123.372 131.786 123.409 131.945 123.409C132.103 123.409 132.23 123.372 132.327 123.298C132.426 123.224 132.498 123.115 132.542 122.969C132.589 122.824 132.612 122.644 132.612 122.43C132.612 122.215 132.589 122.036 132.542 121.894C132.498 121.751 132.426 121.643 132.327 121.571C132.228 121.499 132.099 121.463 131.94 121.463C131.705 121.463 131.534 121.544 131.427 121.705C131.322 121.866 131.27 122.108 131.27 122.43Z" fill="#333131"/>
<path d="M136.104 120.747C136.452 120.747 136.731 120.842 136.943 121.032C137.155 121.221 137.26 121.524 137.26 121.941V124.064H136.372V122.162C136.372 121.929 136.329 121.754 136.244 121.635C136.161 121.517 136.029 121.458 135.848 121.458C135.576 121.458 135.391 121.55 135.292 121.734C135.193 121.919 135.143 122.185 135.143 122.532V124.064H134.255V120.808H134.933L135.053 121.225H135.102C135.172 121.112 135.259 121.021 135.362 120.951C135.466 120.881 135.582 120.83 135.708 120.797C135.836 120.764 135.968 120.747 136.104 120.747Z" fill="#333131"/>
<path d="M138.95 124.064L137.709 120.808H138.638L139.267 122.663C139.302 122.772 139.329 122.887 139.349 123.007C139.37 123.127 139.385 123.235 139.392 123.33H139.416C139.421 123.227 139.435 123.118 139.456 123.001C139.48 122.885 139.51 122.772 139.547 122.663L140.173 120.808H141.102L139.861 124.064H138.95Z" fill="#333131"/>
<path d="M142.913 120.747C143.214 120.747 143.474 120.805 143.691 120.922C143.909 121.036 144.076 121.203 144.195 121.423C144.313 121.642 144.373 121.91 144.373 122.227V122.658H142.273C142.282 122.908 142.357 123.105 142.497 123.249C142.639 123.39 142.835 123.461 143.085 123.461C143.293 123.461 143.483 123.44 143.656 123.397C143.829 123.355 144.007 123.291 144.189 123.205V123.892C144.028 123.972 143.859 124.03 143.682 124.067C143.508 124.104 143.295 124.122 143.045 124.122C142.718 124.122 142.429 124.062 142.177 123.942C141.926 123.822 141.729 123.638 141.585 123.391C141.444 123.145 141.373 122.834 141.373 122.459C141.373 122.079 141.437 121.762 141.565 121.51C141.695 121.256 141.876 121.065 142.107 120.939C142.338 120.811 142.607 120.747 142.913 120.747ZM142.919 121.379C142.746 121.379 142.603 121.434 142.488 121.545C142.376 121.656 142.311 121.829 142.293 122.066H143.54C143.538 121.934 143.513 121.817 143.467 121.714C143.422 121.611 143.354 121.529 143.263 121.469C143.174 121.409 143.059 121.379 142.919 121.379Z" fill="#333131"/>
<path d="M146.912 120.747C146.957 120.747 147.008 120.75 147.067 120.756C147.127 120.76 147.175 120.765 147.212 120.773L147.145 121.606C147.116 121.596 147.074 121.59 147.02 121.586C146.968 121.58 146.922 121.577 146.883 121.577C146.769 121.577 146.657 121.592 146.548 121.621C146.441 121.65 146.345 121.697 146.26 121.763C146.174 121.828 146.106 121.913 146.056 122.02C146.007 122.125 145.983 122.254 145.983 122.407V124.064H145.095V120.808H145.768L145.899 121.356H145.942C146.006 121.245 146.086 121.144 146.181 121.053C146.278 120.96 146.388 120.886 146.51 120.831C146.635 120.775 146.769 120.747 146.912 120.747Z" fill="#333131"/>
<path d="M149.175 123.415C149.272 123.415 149.366 123.405 149.458 123.386C149.551 123.366 149.643 123.342 149.734 123.313V123.974C149.639 124.017 149.521 124.052 149.379 124.079C149.239 124.108 149.086 124.122 148.919 124.122C148.725 124.122 148.55 124.091 148.395 124.029C148.241 123.965 148.12 123.856 148.031 123.7C147.943 123.543 147.9 123.324 147.9 123.045V121.475H147.474V121.099L147.964 120.802L148.22 120.115H148.788V120.808H149.699V121.475H148.788V123.045C148.788 123.169 148.823 123.262 148.893 123.324C148.964 123.385 149.059 123.415 149.175 123.415Z" fill="#333131"/>
<path d="M153.745 121.475H152.976V124.064H152.088V121.475H151.598V121.047L152.088 120.808V120.569C152.088 120.292 152.134 120.076 152.227 119.923C152.323 119.767 152.455 119.659 152.626 119.597C152.799 119.533 153.003 119.5 153.238 119.5C153.411 119.5 153.568 119.515 153.71 119.544C153.852 119.571 153.967 119.602 154.056 119.637L153.829 120.29C153.761 120.268 153.687 120.249 153.608 120.232C153.528 120.214 153.437 120.205 153.334 120.205C153.21 120.205 153.119 120.243 153.06 120.319C153.004 120.393 152.976 120.488 152.976 120.604V120.808H153.745V121.475Z" fill="#333131"/>
<path d="M156.075 120.747C156.119 120.747 156.171 120.75 156.229 120.756C156.289 120.76 156.338 120.765 156.375 120.773L156.308 121.606C156.279 121.596 156.237 121.59 156.182 121.586C156.13 121.58 156.084 121.577 156.046 121.577C155.931 121.577 155.819 121.592 155.711 121.621C155.604 121.65 155.508 121.697 155.422 121.763C155.337 121.828 155.269 121.913 155.218 122.02C155.17 122.125 155.146 122.254 155.146 122.407V124.064H154.257V120.808H154.93L155.061 121.356H155.105C155.169 121.245 155.249 121.144 155.344 121.053C155.441 120.96 155.55 120.886 155.673 120.831C155.797 120.775 155.931 120.747 156.075 120.747Z" fill="#333131"/>
<path d="M159.925 122.43C159.925 122.702 159.888 122.943 159.814 123.153C159.742 123.362 159.637 123.54 159.497 123.686C159.359 123.829 159.192 123.938 158.996 124.012C158.802 124.086 158.582 124.122 158.338 124.122C158.108 124.122 157.898 124.086 157.706 124.012C157.515 123.938 157.349 123.829 157.208 123.686C157.068 123.54 156.959 123.362 156.881 123.153C156.806 122.943 156.768 122.702 156.768 122.43C156.768 122.069 156.832 121.763 156.96 121.513C157.088 121.262 157.271 121.072 157.508 120.942C157.744 120.812 158.027 120.747 158.355 120.747C158.66 120.747 158.93 120.812 159.165 120.942C159.402 121.072 159.587 121.262 159.721 121.513C159.857 121.763 159.925 122.069 159.925 122.43ZM157.674 122.43C157.674 122.644 157.697 122.824 157.743 122.969C157.79 123.115 157.863 123.224 157.962 123.298C158.061 123.372 158.19 123.409 158.349 123.409C158.507 123.409 158.634 123.372 158.731 123.298C158.83 123.224 158.902 123.115 158.946 122.969C158.993 122.824 159.016 122.644 159.016 122.43C159.016 122.215 158.993 122.036 158.946 121.894C158.902 121.751 158.83 121.643 158.731 121.571C158.632 121.499 158.503 121.463 158.343 121.463C158.108 121.463 157.938 121.544 157.831 121.705C157.726 121.866 157.674 122.108 157.674 122.43Z" fill="#333131"/>
<path d="M164.483 120.747C164.852 120.747 165.13 120.842 165.319 121.032C165.509 121.221 165.604 121.524 165.604 121.941V124.064H164.713V122.162C164.713 121.929 164.673 121.754 164.593 121.635C164.514 121.517 164.391 121.458 164.224 121.458C163.989 121.458 163.822 121.542 163.723 121.711C163.624 121.878 163.574 122.118 163.574 122.43V124.064H162.686V122.162C162.686 122.007 162.668 121.877 162.633 121.772C162.598 121.667 162.545 121.589 162.473 121.536C162.401 121.484 162.309 121.458 162.197 121.458C162.032 121.458 161.901 121.499 161.806 121.583C161.713 121.664 161.646 121.786 161.605 121.947C161.566 122.106 161.547 122.301 161.547 122.532V124.064H160.659V120.808H161.337L161.457 121.225H161.506C161.572 121.112 161.655 121.021 161.754 120.951C161.855 120.881 161.965 120.83 162.086 120.797C162.206 120.764 162.329 120.747 162.453 120.747C162.692 120.747 162.894 120.786 163.059 120.863C163.226 120.941 163.354 121.062 163.443 121.225H163.522C163.619 121.058 163.756 120.936 163.932 120.861C164.111 120.785 164.294 120.747 164.483 120.747Z" fill="#333131"/>
<rect x="128.281" y="231.028" width="104.182" height="4.37405" rx="2.18703" fill="#D6D6D6"/>
<rect x="128.281" y="240.174" width="62.4297" height="4.37405" rx="2.18703" fill="#E0E0E0"/>
<g filter="url(#filter1_d_235_32108)">
<rect x="102.832" y="229.438" width="17.0986" height="17.0986" rx="8.54928" fill="white"/>
<rect x="103.332" y="229.938" width="16.0986" height="16.0986" rx="8.04928" stroke="#EFEFEF"/>
</g>
<path d="M110.214 240.158V239.717C110.214 239.446 110.254 239.208 110.333 239.001C110.411 238.79 110.538 238.591 110.712 238.404C110.886 238.214 111.116 238.019 111.402 237.82C111.659 237.645 111.864 237.488 112.017 237.349C112.175 237.209 112.289 237.072 112.359 236.937C112.434 236.798 112.471 236.641 112.471 236.466C112.471 236.207 112.372 236.01 112.173 235.875C111.974 235.74 111.696 235.672 111.34 235.672C110.983 235.672 110.629 235.726 110.277 235.834C109.928 235.941 109.574 236.082 109.214 236.257L108.536 234.951C108.95 234.728 109.4 234.549 109.885 234.414C110.37 234.275 110.9 234.205 111.476 234.205C112.363 234.205 113.049 234.41 113.534 234.819C114.023 235.225 114.268 235.742 114.268 236.37C114.268 236.704 114.212 236.995 114.1 237.241C113.992 237.484 113.826 237.711 113.603 237.921C113.383 238.128 113.107 238.347 112.776 238.577C112.527 238.752 112.336 238.9 112.204 239.019C112.071 239.138 111.98 239.257 111.93 239.377C111.885 239.492 111.862 239.633 111.862 239.8V240.158H110.214ZM110.015 242.198C110.015 241.824 110.121 241.562 110.333 241.411C110.548 241.26 110.807 241.184 111.11 241.184C111.404 241.184 111.657 241.26 111.868 241.411C112.084 241.562 112.191 241.824 112.191 242.198C112.191 242.556 112.084 242.815 111.868 242.974C111.657 243.133 111.404 243.212 111.11 243.212C110.807 243.212 110.548 243.133 110.333 242.974C110.121 242.815 110.015 242.556 110.015 242.198Z" fill="#B90B0B"/>
<g filter="url(#filter2_d_235_32108)">
<rect x="103.229" y="254.888" width="17.0986" height="17.0986" rx="8.54928" fill="white"/>
<rect x="103.729" y="255.388" width="16.0986" height="16.0986" rx="8.04928" stroke="#EFEFEF"/>
</g>
<path d="M110.213 265.265V264.784C110.213 264.489 110.253 264.228 110.332 264.003C110.41 263.773 110.537 263.556 110.711 263.352C110.885 263.144 111.115 262.931 111.401 262.714C111.658 262.524 111.863 262.352 112.016 262.2C112.174 262.048 112.288 261.899 112.358 261.751C112.433 261.599 112.47 261.428 112.47 261.237C112.47 260.955 112.371 260.741 112.172 260.593C111.973 260.446 111.695 260.372 111.339 260.372C110.982 260.372 110.628 260.43 110.276 260.547C109.927 260.665 109.573 260.819 109.213 261.009L108.535 259.584C108.949 259.341 109.399 259.146 109.884 258.999C110.369 258.847 110.899 258.771 111.475 258.771C112.362 258.771 113.048 258.994 113.533 259.441C114.022 259.884 114.267 260.448 114.267 261.133C114.267 261.498 114.211 261.814 114.099 262.083C113.991 262.348 113.825 262.595 113.602 262.825C113.382 263.051 113.106 263.289 112.775 263.541C112.526 263.732 112.335 263.892 112.203 264.022C112.07 264.153 111.979 264.283 111.929 264.413C111.884 264.539 111.861 264.693 111.861 264.875V265.265H110.213ZM110.014 267.491C110.014 267.083 110.12 266.797 110.332 266.632C110.547 266.467 110.806 266.385 111.109 266.385C111.403 266.385 111.656 266.467 111.867 266.632C112.083 266.797 112.19 267.083 112.19 267.491C112.19 267.881 112.083 268.163 111.867 268.337C111.656 268.51 111.403 268.597 111.109 268.597C110.806 268.597 110.547 268.51 110.332 268.337C110.12 268.163 110.014 267.881 110.014 267.491Z" fill="#B90B0B"/>
<path d="M258.708 240.174L261.492 237.192L258.708 234.21" stroke="black" stroke-width="2.5" stroke-linecap="round" stroke-linejoin="round"/>
<rect x="129.076" y="256.082" width="104.182" height="4.37405" rx="2.18703" fill="#D6D6D6"/>
<rect x="129.076" y="265.229" width="62.4297" height="4.37405" rx="2.18703" fill="#E0E0E0"/>
<path d="M259.502 265.229L262.285 262.247L259.502 259.264" stroke="black" stroke-width="2.5" stroke-linecap="round" stroke-linejoin="round"/>
<g filter="url(#filter3_d_235_32108)">
<rect x="225.703" y="159.852" width="136.391" height="156.273" rx="11" fill="white"/>
<rect x="226.203" y="160.352" width="135.391" height="155.273" rx="10.5" stroke="#EFEFEF"/>
</g>
<rect x="332.668" y="267.215" width="13.1222" height="13.1222" rx="6.56108" fill="#AFADFF"/>
<rect x="264.275" y="288.688" width="62.4297" height="2.78349" rx="1.39174" fill="#FF3D6B" fill-opacity="0.53"/>
<rect x="264.275" y="294.652" width="21.075" height="2.78349" rx="1.39174" fill="#FF3D6B" fill-opacity="0.45"/>
<rect x="238.825" y="185.699" width="106.965" height="73.9613" rx="11" fill="#B90B0B"/>
<path d="M262.184 215.003C261.91 215.003 261.666 215.053 261.449 215.152C261.236 215.251 261.055 215.394 260.906 215.582C260.758 215.766 260.645 215.992 260.567 216.257C260.489 216.52 260.449 216.817 260.449 217.148C260.449 217.591 260.512 217.972 260.637 218.292C260.762 218.61 260.952 218.855 261.207 219.027C261.462 219.196 261.785 219.281 262.176 219.281C262.418 219.281 262.654 219.257 262.883 219.21C263.112 219.164 263.349 219.1 263.594 219.019V219.816C263.362 219.907 263.128 219.973 262.891 220.015C262.654 220.057 262.38 220.078 262.071 220.078C261.487 220.078 261.003 219.957 260.617 219.714C260.235 219.472 259.948 219.131 259.758 218.691C259.571 218.251 259.477 217.735 259.477 217.144C259.477 216.712 259.537 216.316 259.656 215.957C259.776 215.597 259.951 215.287 260.18 215.027C260.409 214.764 260.692 214.562 261.028 214.421C261.366 214.278 261.753 214.207 262.188 214.207C262.474 214.207 262.755 214.239 263.031 214.304C263.31 214.367 263.568 214.457 263.805 214.574L263.477 215.347C263.279 215.253 263.072 215.173 262.856 215.105C262.64 215.037 262.416 215.003 262.184 215.003ZM268.555 217.828C268.555 218.187 268.508 218.506 268.414 218.785C268.321 219.063 268.184 219.299 268.004 219.492C267.824 219.682 267.608 219.828 267.356 219.929C267.103 220.028 266.818 220.078 266.5 220.078C266.203 220.078 265.931 220.028 265.684 219.929C265.436 219.828 265.222 219.682 265.039 219.492C264.86 219.299 264.72 219.063 264.621 218.785C264.522 218.506 264.473 218.187 264.473 217.828C264.473 217.351 264.555 216.947 264.719 216.617C264.886 216.283 265.123 216.029 265.43 215.855C265.737 215.681 266.103 215.593 266.528 215.593C266.926 215.593 267.278 215.681 267.582 215.855C267.887 216.029 268.125 216.283 268.297 216.617C268.469 216.95 268.555 217.354 268.555 217.828ZM265.418 217.828C265.418 218.143 265.456 218.412 265.531 218.636C265.61 218.86 265.729 219.032 265.891 219.152C266.052 219.269 266.261 219.328 266.516 219.328C266.771 219.328 266.979 219.269 267.141 219.152C267.302 219.032 267.421 218.86 267.496 218.636C267.572 218.412 267.61 218.143 267.61 217.828C267.61 217.513 267.572 217.246 267.496 217.027C267.421 216.806 267.302 216.638 267.141 216.523C266.979 216.406 266.77 216.347 266.512 216.347C266.132 216.347 265.854 216.475 265.68 216.73C265.505 216.985 265.418 217.351 265.418 217.828ZM271.864 215.593C272.351 215.593 272.729 215.72 273 215.972C273.274 216.222 273.41 216.625 273.41 217.179V220H272.492V217.351C272.492 217.015 272.423 216.764 272.285 216.597C272.147 216.428 271.934 216.343 271.645 216.343C271.226 216.343 270.934 216.472 270.77 216.73C270.608 216.988 270.528 217.361 270.528 217.851V220H269.61V215.675H270.324L270.453 216.261H270.504C270.598 216.11 270.714 215.986 270.852 215.89C270.992 215.791 271.149 215.717 271.321 215.667C271.495 215.618 271.676 215.593 271.864 215.593ZM275.684 220L274.039 215.675H275.012L275.903 218.214C275.96 218.376 276.012 218.55 276.059 218.738C276.106 218.925 276.138 219.083 276.156 219.21H276.188C276.206 219.078 276.241 218.919 276.293 218.734C276.345 218.546 276.399 218.373 276.453 218.214L277.344 215.675H278.313L276.668 220H275.684ZM280.692 215.593C281.077 215.593 281.408 215.673 281.684 215.832C281.96 215.99 282.172 216.216 282.321 216.507C282.469 216.799 282.543 217.148 282.543 217.554V218.046H279.656C279.667 218.466 279.779 218.789 279.992 219.015C280.209 219.242 280.511 219.355 280.899 219.355C281.175 219.355 281.422 219.329 281.641 219.277C281.862 219.222 282.09 219.143 282.324 219.039V219.785C282.108 219.886 281.888 219.96 281.664 220.007C281.44 220.054 281.172 220.078 280.86 220.078C280.435 220.078 280.061 219.996 279.739 219.832C279.418 219.665 279.167 219.417 278.985 219.089C278.805 218.761 278.715 218.354 278.715 217.867C278.715 217.382 278.797 216.971 278.961 216.632C279.125 216.294 279.356 216.036 279.653 215.859C279.949 215.682 280.296 215.593 280.692 215.593ZM280.692 216.285C280.403 216.285 280.168 216.378 279.989 216.566C279.811 216.753 279.707 217.028 279.676 217.39H281.645C281.642 217.174 281.606 216.983 281.535 216.816C281.468 216.649 281.364 216.519 281.223 216.425C281.085 216.332 280.908 216.285 280.692 216.285ZM285.77 215.593C285.843 215.593 285.922 215.597 286.008 215.605C286.094 215.613 286.168 215.623 286.231 215.636L286.145 216.496C286.09 216.48 286.022 216.468 285.942 216.46C285.864 216.453 285.793 216.449 285.731 216.449C285.567 216.449 285.41 216.476 285.262 216.531C285.114 216.583 284.982 216.664 284.867 216.773C284.753 216.88 284.663 217.014 284.598 217.175C284.533 217.337 284.5 217.524 284.5 217.738V220H283.578V215.675H284.297L284.422 216.437H284.465C284.551 216.283 284.658 216.143 284.785 216.015C284.913 215.888 285.059 215.786 285.223 215.71C285.39 215.632 285.572 215.593 285.77 215.593ZM288.641 219.335C288.761 219.335 288.879 219.325 288.996 219.304C289.114 219.281 289.22 219.253 289.317 219.222V219.917C289.215 219.962 289.084 220 288.922 220.031C288.761 220.062 288.593 220.078 288.418 220.078C288.173 220.078 287.953 220.037 287.758 219.957C287.563 219.873 287.408 219.731 287.293 219.531C287.179 219.33 287.121 219.053 287.121 218.699V216.375H286.531V215.964L287.164 215.64L287.465 214.714H288.043V215.675H289.281V216.375H288.043V218.687C288.043 218.906 288.098 219.069 288.207 219.175C288.317 219.282 288.461 219.335 288.641 219.335ZM293.969 215.593C294.516 215.593 294.929 215.714 295.207 215.957C295.489 216.199 295.629 216.576 295.629 217.089V220H294.977L294.801 219.386H294.77C294.647 219.542 294.521 219.671 294.391 219.773C294.261 219.875 294.11 219.95 293.938 220C293.768 220.052 293.561 220.078 293.317 220.078C293.059 220.078 292.828 220.031 292.625 219.937C292.422 219.841 292.262 219.695 292.145 219.5C292.028 219.304 291.969 219.057 291.969 218.757C291.969 218.312 292.134 217.977 292.465 217.753C292.798 217.529 293.301 217.406 293.973 217.382L294.723 217.355V217.128C294.723 216.829 294.653 216.615 294.512 216.488C294.374 216.36 294.179 216.296 293.926 216.296C293.71 216.296 293.5 216.328 293.297 216.39C293.094 216.453 292.896 216.529 292.703 216.621L292.406 215.972C292.617 215.86 292.857 215.769 293.125 215.699C293.396 215.628 293.677 215.593 293.969 215.593ZM294.719 217.933L294.16 217.953C293.702 217.968 293.38 218.046 293.196 218.187C293.011 218.328 292.918 218.52 292.918 218.765C292.918 218.979 292.982 219.135 293.11 219.234C293.237 219.33 293.405 219.378 293.614 219.378C293.931 219.378 294.194 219.289 294.403 219.109C294.614 218.927 294.719 218.66 294.719 218.308V217.933ZM299.168 215.593C299.655 215.593 300.034 215.72 300.305 215.972C300.578 216.222 300.715 216.625 300.715 217.179V220H299.797V217.351C299.797 217.015 299.728 216.764 299.59 216.597C299.452 216.428 299.239 216.343 298.949 216.343C298.53 216.343 298.239 216.472 298.074 216.73C297.913 216.988 297.832 217.361 297.832 217.851V220H296.914V215.675H297.629L297.758 216.261H297.809C297.903 216.11 298.018 215.986 298.156 215.89C298.297 215.791 298.453 215.717 298.625 215.667C298.8 215.618 298.981 215.593 299.168 215.593ZM301.348 215.675H302.348L303.235 218.144C303.274 218.256 303.309 218.367 303.34 218.476C303.374 218.583 303.403 218.688 303.426 218.792C303.452 218.897 303.473 219.001 303.489 219.105H303.512C303.538 218.97 303.574 218.819 303.621 218.652C303.671 218.483 303.726 218.313 303.785 218.144L304.637 215.675H305.625L303.77 220.593C303.663 220.875 303.531 221.114 303.375 221.312C303.222 221.513 303.039 221.664 302.828 221.765C302.617 221.869 302.377 221.921 302.106 221.921C301.976 221.921 301.862 221.914 301.766 221.898C301.67 221.885 301.587 221.871 301.52 221.855V221.121C301.574 221.134 301.643 221.145 301.727 221.156C301.81 221.166 301.896 221.171 301.985 221.171C302.149 221.171 302.291 221.139 302.41 221.074C302.53 221.009 302.632 220.916 302.715 220.796C302.798 220.679 302.867 220.545 302.922 220.394L303.074 219.988L301.348 215.675ZM309.817 219.996L309.27 217.984C309.244 217.885 309.212 217.765 309.176 217.625C309.14 217.484 309.103 217.339 309.067 217.191C309.03 217.04 308.996 216.901 308.965 216.773C308.936 216.645 308.914 216.546 308.899 216.476H308.867C308.854 216.546 308.834 216.645 308.805 216.773C308.776 216.901 308.744 217.04 308.707 217.191C308.671 217.342 308.634 217.489 308.598 217.632C308.564 217.776 308.533 217.898 308.504 218L307.93 219.996H306.922L305.711 215.671H306.641L307.203 217.82C307.24 217.966 307.275 218.123 307.309 218.292C307.345 218.462 307.377 218.623 307.403 218.777C307.429 218.931 307.448 219.057 307.461 219.156H307.492C307.503 219.085 307.517 218.997 307.535 218.89C307.554 218.781 307.574 218.667 307.598 218.55C307.621 218.431 307.645 218.319 307.668 218.214C307.692 218.108 307.714 218.022 307.735 217.957L308.399 215.671H309.403L310.039 217.957C310.068 218.056 310.099 218.181 310.133 218.332C310.167 218.48 310.197 218.63 310.223 218.781C310.252 218.929 310.27 219.053 310.278 219.152H310.309C310.319 219.063 310.337 218.944 310.364 218.792C310.392 218.639 310.425 218.476 310.461 218.304C310.498 218.13 310.535 217.968 310.574 217.82L311.149 215.671H312.063L310.844 219.996H309.817ZM313.723 213.921V215.449C313.723 215.608 313.718 215.763 313.707 215.914C313.699 216.065 313.69 216.182 313.68 216.265H313.731C313.822 216.114 313.934 215.99 314.067 215.894C314.199 215.795 314.348 215.721 314.512 215.671C314.679 215.622 314.856 215.597 315.043 215.597C315.374 215.597 315.655 215.653 315.887 215.765C316.119 215.875 316.296 216.045 316.418 216.277C316.543 216.509 316.606 216.809 316.606 217.179V220H315.688V217.351C315.688 217.015 315.619 216.764 315.481 216.597C315.343 216.428 315.129 216.343 314.84 216.343C314.561 216.343 314.34 216.402 314.176 216.519C314.015 216.634 313.899 216.804 313.828 217.031C313.758 217.255 313.723 217.528 313.723 217.851V220H312.805V213.921H313.723ZM319.614 215.593C319.999 215.593 320.33 215.673 320.606 215.832C320.882 215.99 321.094 216.216 321.242 216.507C321.391 216.799 321.465 217.148 321.465 217.554V218.046H318.578C318.589 218.466 318.701 218.789 318.914 219.015C319.13 219.242 319.433 219.355 319.821 219.355C320.097 219.355 320.344 219.329 320.563 219.277C320.784 219.222 321.012 219.143 321.246 219.039V219.785C321.03 219.886 320.81 219.96 320.586 220.007C320.362 220.054 320.094 220.078 319.781 220.078C319.357 220.078 318.983 219.996 318.66 219.832C318.34 219.665 318.089 219.417 317.906 219.089C317.727 218.761 317.637 218.354 317.637 217.867C317.637 217.382 317.719 216.971 317.883 216.632C318.047 216.294 318.278 216.036 318.574 215.859C318.871 215.682 319.218 215.593 319.614 215.593ZM319.614 216.285C319.324 216.285 319.09 216.378 318.91 216.566C318.733 216.753 318.629 217.028 318.598 217.39H320.567C320.564 217.174 320.528 216.983 320.457 216.816C320.39 216.649 320.285 216.519 320.145 216.425C320.007 216.332 319.83 216.285 319.614 216.285ZM324.692 215.593C324.765 215.593 324.844 215.597 324.93 215.605C325.016 215.613 325.09 215.623 325.153 215.636L325.067 216.496C325.012 216.48 324.944 216.468 324.864 216.46C324.785 216.453 324.715 216.449 324.653 216.449C324.489 216.449 324.332 216.476 324.184 216.531C324.035 216.583 323.904 216.664 323.789 216.773C323.675 216.88 323.585 217.014 323.52 217.175C323.455 217.337 323.422 217.524 323.422 217.738V220H322.5V215.675H323.219L323.344 216.437H323.387C323.473 216.283 323.58 216.143 323.707 216.015C323.835 215.888 323.981 215.786 324.145 215.71C324.311 215.632 324.494 215.593 324.692 215.593ZM327.676 215.593C328.061 215.593 328.392 215.673 328.668 215.832C328.944 215.99 329.156 216.216 329.305 216.507C329.453 216.799 329.528 217.148 329.528 217.554V218.046H326.641C326.651 218.466 326.763 218.789 326.977 219.015C327.193 219.242 327.495 219.355 327.883 219.355C328.159 219.355 328.406 219.329 328.625 219.277C328.847 219.222 329.074 219.143 329.309 219.039V219.785C329.093 219.886 328.873 219.96 328.649 220.007C328.425 220.054 328.156 220.078 327.844 220.078C327.42 220.078 327.046 219.996 326.723 219.832C326.403 219.665 326.151 219.417 325.969 219.089C325.789 218.761 325.699 218.354 325.699 217.867C325.699 217.382 325.781 216.971 325.946 216.632C326.11 216.294 326.34 216.036 326.637 215.859C326.934 215.682 327.28 215.593 327.676 215.593ZM327.676 216.285C327.387 216.285 327.153 216.378 326.973 216.566C326.796 216.753 326.692 217.028 326.66 217.39H328.629C328.627 217.174 328.59 216.983 328.52 216.816C328.452 216.649 328.348 216.519 328.207 216.425C328.069 216.332 327.892 216.285 327.676 216.285Z" fill="white"/>
<path d="M241.212 269.602H313.981M241.212 276.362H283.166" stroke="#9FE870" stroke-width="5" stroke-linecap="round"/>
<circle cx="97.0651" cy="186.69" r="8.94693" fill="#F2F0F2"/>
<mask id="mask0_235_32108" style="mask-type:alpha" maskUnits="userSpaceOnUse" x="88" y="177" width="19" height="19">
<circle cx="97.0656" cy="186.69" r="8.94693" fill="#FCFCFC"/>
</mask>
<g mask="url(#mask0_235_32108)">
<rect x="91.0254" y="193.625" width="12.302" height="2.23673" fill="#D90026"/>
<rect x="91.0254" y="193.625" width="12.302" height="2.23673" fill="#D90026"/>
<rect x="88.3413" y="189.151" width="17.6702" height="2.23673" fill="#D90026"/>
<rect x="88.3413" y="189.151" width="17.6702" height="2.23673" fill="#D90026"/>
<rect x="88.3413" y="184.453" width="17.6702" height="2.23673" fill="#D90026"/>
<rect x="88.3413" y="184.453" width="17.6702" height="2.23673" fill="#D90026"/>
<rect x="88.3413" y="179.979" width="17.6702" height="2.23673" fill="#D90026"/>
<rect x="88.3413" y="179.979" width="17.6702" height="2.23673" fill="#D90026"/>
<rect x="88.1187" y="177.743" width="9.1706" height="8.94693" fill="#0052B5"/>
<path d="M95.5009 185.235L94.8299 185.57L95.0535 184.899L94.6062 184.452H95.2772L95.5009 183.781L95.8364 184.452H96.3956L95.9482 184.899L96.1719 185.57L95.5009 185.235Z" fill="#EFEFEF"/>
<path d="M92.3683 185.235L91.6973 185.57L91.921 184.899L91.4736 184.452H92.1447L92.3683 183.781L92.7038 184.452H93.263L92.8157 184.899L93.0393 185.57L92.3683 185.235Z" fill="#EFEFEF"/>
<path d="M89.236 185.235L88.565 185.57L88.7887 184.899L88.3413 184.452H89.0123L89.236 183.781L89.5715 184.452H90.1307L89.6833 184.899L89.907 185.57L89.236 185.235Z" fill="#EFEFEF"/>
<path d="M95.5009 182.775L94.8299 183.111L95.0535 182.44L94.6062 181.992H95.2772L95.5009 181.321L95.8364 181.992H96.3956L95.9482 182.44L96.1719 183.111L95.5009 182.775Z" fill="#EFEFEF"/>
<path d="M95.5009 180.314L94.8299 180.649L95.0535 179.978L94.6062 179.531H95.2772L95.5009 178.86L95.8364 179.531H96.3956L95.9482 179.978L96.1719 180.649L95.5009 180.314Z" fill="#EFEFEF"/>
<path d="M95.5009 177.853L94.8299 178.189L95.0535 177.518L94.6062 177.07H95.2772L95.5009 176.399L95.8364 177.07H96.3956L95.9482 177.518L96.1719 178.189L95.5009 177.853Z" fill="#EFEFEF"/>
<path d="M92.3683 180.314L91.6973 180.649L91.921 179.978L91.4736 179.531H92.1447L92.3683 178.86L92.7038 179.531H93.263L92.8157 179.978L93.0393 180.649L92.3683 180.314Z" fill="#EFEFEF"/>
<path d="M92.3683 182.775L91.6973 183.111L91.921 182.44L91.4736 181.992H92.1447L92.3683 181.321L92.7038 181.992H93.263L92.8157 182.44L93.0393 183.111L92.3683 182.775Z" fill="#EFEFEF"/>
<path d="M89.236 182.775L88.565 183.111L88.7887 182.44L88.3413 181.992H89.0123L89.236 181.321L89.5715 181.992H90.1307L89.6833 182.44L89.907 183.111L89.236 182.775Z" fill="#EFEFEF"/>
</g>
<circle cx="142" cy="42.7462" r="8.94693" fill="#F2F0F2"/>
<mask id="mask1_235_32108" style="mask-type:alpha" maskUnits="userSpaceOnUse" x="133" y="33" width="18" height="19">
<circle cx="142" cy="42.7458" r="8.94693" fill="#FCFCFC"/>
</mask>
<g mask="url(#mask1_235_32108)">
<rect x="135.961" y="49.6787" width="12.302" height="2.23673" fill="#D90026"/>
<rect x="135.961" y="49.6787" width="12.302" height="2.23673" fill="#D90026"/>
<rect x="133.277" y="45.2061" width="17.6702" height="2.23673" fill="#D90026"/>
<rect x="133.277" y="45.2061" width="17.6702" height="2.23673" fill="#D90026"/>
<rect x="133.277" y="40.5088" width="17.6702" height="2.23673" fill="#D90026"/>
<rect x="133.277" y="40.5088" width="17.6702" height="2.23673" fill="#D90026"/>
<rect x="133.277" y="36.0356" width="17.6702" height="2.23673" fill="#D90026"/>
<rect x="133.277" y="36.0356" width="17.6702" height="2.23673" fill="#D90026"/>
<rect x="133.053" y="33.7988" width="9.1706" height="8.94693" fill="#0052B5"/>
<path d="M140.435 41.2908L139.764 41.6263L139.988 40.9553L139.541 40.5079H140.212L140.435 39.8369L140.771 40.5079H141.33L140.883 40.9553L141.106 41.6263L140.435 41.2908Z" fill="#EFEFEF"/>
<path d="M137.303 41.2908L136.632 41.6263L136.856 40.9553L136.408 40.5079H137.079L137.303 39.8369L137.638 40.5079H138.198L137.75 40.9553L137.974 41.6263L137.303 41.2908Z" fill="#EFEFEF"/>
<path d="M134.172 41.2908L133.501 41.6263L133.724 40.9553L133.277 40.5079H133.948L134.172 39.8369L134.507 40.5079H135.066L134.619 40.9553L134.843 41.6263L134.172 41.2908Z" fill="#EFEFEF"/>
<path d="M140.435 38.8313L139.764 39.1668L139.988 38.4958L139.541 38.0485H140.212L140.435 37.3774L140.771 38.0485H141.33L140.883 38.4958L141.106 39.1668L140.435 38.8313Z" fill="#EFEFEF"/>
<path d="M140.435 36.3699L139.764 36.7054L139.988 36.0344L139.541 35.587H140.212L140.435 34.916L140.771 35.587H141.33L140.883 36.0344L141.106 36.7054L140.435 36.3699Z" fill="#EFEFEF"/>
<path d="M140.435 33.9094L139.764 34.245L139.988 33.5739L139.541 33.1266H140.212L140.435 32.4556L140.771 33.1266H141.33L140.883 33.5739L141.106 34.245L140.435 33.9094Z" fill="#EFEFEF"/>
<path d="M137.303 36.3699L136.632 36.7054L136.856 36.0344L136.408 35.587H137.079L137.303 34.916L137.638 35.587H138.198L137.75 36.0344L137.974 36.7054L137.303 36.3699Z" fill="#EFEFEF"/>
<path d="M137.303 38.8313L136.632 39.1668L136.856 38.4958L136.408 38.0485H137.079L137.303 37.3774L137.638 38.0485H138.198L137.75 38.4958L137.974 39.1668L137.303 38.8313Z" fill="#EFEFEF"/>
<path d="M134.172 38.8313L133.501 39.1668L133.724 38.4958L133.277 38.0485H133.948L134.172 37.3774L134.507 38.0485H135.066L134.619 38.4958L134.843 39.1668L134.172 38.8313Z" fill="#EFEFEF"/>
</g>
<circle cx="142.198" cy="148.718" r="8.74811" fill="#0052B5"/>
<path d="M142.153 145.167L141.382 145.558L141.636 144.783L141.117 144.27L141.891 144.266L142.195 143.465L142.536 144.263L143.18 144.259L142.667 144.778L142.929 145.55L142.153 145.167Z" fill="#FFDB44"/>
<path d="M142.153 152.434L141.382 152.044L141.636 152.819L141.117 153.332L141.891 153.336L142.195 154.137L142.536 153.339L143.18 153.342L142.667 152.824L142.929 152.051L142.153 152.434Z" fill="#FFDB44"/>
<path d="M145.737 148.789L145.195 148.115L146.005 148.202L146.4 147.589L146.564 148.345L147.411 148.476L146.701 148.975L146.839 149.604L146.225 149.21L145.524 149.627L145.737 148.789Z" fill="#FFDB44"/>
<path d="M144.78 146.382L143.931 146.216L144.608 145.761L144.515 145.038L145.127 145.511L145.859 145.066L145.637 145.904L146.148 146.298L145.424 146.391L145.156 147.161L144.78 146.382Z" fill="#FFDB44"/>
<path d="M144.791 151.234L145.16 150.452L145.436 151.219L146.16 151.305L145.552 151.784L145.804 152.603L145.045 152.182L144.539 152.581L144.625 151.857L143.944 151.409L144.791 151.234Z" fill="#FFDB44"/>
<path d="M145.737 148.789L145.195 148.115L146.005 148.202L146.4 147.589L146.564 148.345L147.411 148.476L146.701 148.975L146.839 149.604L146.225 149.21L145.524 149.627L145.737 148.789Z" fill="#FFDB44"/>
<path d="M138.682 148.789L139.225 148.115L138.414 148.202L138.02 147.589L137.855 148.345L137.009 148.476L137.718 148.975L137.581 149.604L138.195 149.21L138.896 149.627L138.682 148.789Z" fill="#FFDB44"/>
<path d="M139.64 146.382L140.488 146.216L139.812 145.761L139.905 145.038L139.293 145.511L138.56 145.066L138.782 145.904L138.272 146.298L138.995 146.391L139.264 147.161L139.64 146.382Z" fill="#FFDB44"/>
<path d="M139.628 151.234L139.26 150.452L138.984 151.219L138.26 151.305L138.868 151.784L138.615 152.603L139.374 152.182L139.881 152.581L139.794 151.857L140.476 151.409L139.628 151.234Z" fill="#FFDB44"/>
<path d="M138.682 148.789L139.225 148.115L138.414 148.202L138.02 147.589L137.855 148.345L137.009 148.476L137.718 148.975L137.581 149.604L138.195 149.21L138.896 149.627L138.682 148.789Z" fill="#FFDB44"/>
<circle cx="131.065" cy="42.5474" r="8.74811" fill="#0052B5"/>
<path d="M131.02 38.9967L130.249 39.3873L130.503 38.6125L129.984 38.0993L130.758 38.0955L131.062 37.2944L131.402 38.0923L132.047 38.0891L131.534 38.6073L131.796 39.3796L131.02 38.9967Z" fill="#FFDB44"/>
<path d="M131.02 46.264L130.249 45.8734L130.503 46.6482L129.984 47.1613L130.758 47.1651L131.062 47.9662L131.402 47.1684L132.047 47.1716L131.534 46.6533L131.796 45.881L131.02 46.264Z" fill="#FFDB44"/>
<path d="M134.604 42.6183L134.062 41.9448L134.872 42.0321L135.267 41.4184L135.431 42.1742L136.278 42.3051L135.568 42.8041L135.706 43.4339L135.092 43.0398L134.391 43.4564L134.604 42.6183Z" fill="#FFDB44"/>
<path d="M133.647 40.2121L132.798 40.0456L133.475 39.5908L133.382 38.8675L133.994 39.3401L134.726 38.8954L134.504 39.734L135.015 40.1279L134.291 40.221L134.023 40.9909L133.647 40.2121Z" fill="#FFDB44"/>
<path d="M133.658 45.0636L134.027 44.2813L134.303 45.0486L135.027 45.1349L134.419 45.6133L134.671 46.4322L133.912 46.012L133.406 46.4107L133.492 45.6865L132.811 45.2381L133.658 45.0636Z" fill="#FFDB44"/>
<path d="M134.604 42.6183L134.062 41.9448L134.872 42.0321L135.267 41.4184L135.431 42.1742L136.278 42.3051L135.568 42.8041L135.706 43.4339L135.092 43.0398L134.391 43.4564L134.604 42.6183Z" fill="#FFDB44"/>
<path d="M127.549 42.6183L128.092 41.9448L127.281 42.0321L126.887 41.4184L126.722 42.1742L125.875 42.3051L126.585 42.8041L126.448 43.4339L127.062 43.0398L127.762 43.4564L127.549 42.6183Z" fill="#FFDB44"/>
<path d="M128.507 40.2121L129.355 40.0456L128.679 39.5908L128.772 38.8675L128.159 39.3401L127.427 38.8954L127.649 39.734L127.139 40.1279L127.862 40.221L128.131 40.9909L128.507 40.2121Z" fill="#FFDB44"/>
<path d="M128.495 45.0636L128.127 44.2813L127.851 45.0486L127.127 45.1349L127.735 45.6133L127.482 46.4322L128.241 46.012L128.748 46.4107L128.661 45.6865L129.342 45.2381L128.495 45.0636Z" fill="#FFDB44"/>
<path d="M127.549 42.6183L128.092 41.9448L127.281 42.0321L126.887 41.4184L126.722 42.1742L125.875 42.3051L126.585 42.8041L126.448 43.4339L127.062 43.0398L127.762 43.4564L127.549 42.6183Z" fill="#FFDB44"/>
<circle cx="156.429" cy="42.3312" r="9.45967" fill="white"/>
<path d="M151.697 44.5363L150.665 40.9937H150.643C150.648 41.073 150.654 41.1813 150.661 41.3186C150.667 41.456 150.673 41.603 150.678 41.7596C150.683 41.9163 150.685 42.0662 150.685 42.2093V44.5363H150.151V40.2944H150.977L151.969 43.6803H151.984L153.011 40.2944H153.834V44.5363H153.273V42.1745C153.273 42.0449 153.275 41.9047 153.278 41.7538C153.283 41.603 153.288 41.4598 153.292 41.3244C153.299 41.189 153.304 41.0807 153.307 40.9995H153.288L152.217 44.5363H151.697Z" fill="#B90B0B"/>
<path d="M157.12 42.9231C157.12 43.19 157.091 43.427 157.032 43.6339C156.973 43.8409 156.887 44.0159 156.775 44.1591C156.662 44.3003 156.526 44.4086 156.368 44.484C156.209 44.5575 156.031 44.5943 155.831 44.5943C155.645 44.5943 155.474 44.5575 155.319 44.484C155.164 44.4086 155.029 44.3003 154.915 44.1591C154.802 44.0159 154.715 43.8409 154.653 43.6339C154.59 43.427 154.559 43.19 154.559 42.9231C154.559 42.5691 154.611 42.2693 154.714 42.0237C154.818 41.7761 154.967 41.5875 155.16 41.4579C155.353 41.3283 155.582 41.2635 155.848 41.2635C156.098 41.2635 156.319 41.3283 156.51 41.4579C156.701 41.5875 156.851 41.7761 156.959 42.0237C157.066 42.2712 157.12 42.5711 157.12 42.9231ZM155.152 42.9231C155.152 43.1571 155.176 43.3573 155.224 43.5237C155.273 43.69 155.348 43.8177 155.449 43.9067C155.55 43.9937 155.681 44.0372 155.841 44.0372C156.001 44.0372 156.132 43.9937 156.233 43.9067C156.334 43.8177 156.409 43.69 156.456 43.5237C156.504 43.3573 156.527 43.1571 156.527 42.9231C156.527 42.689 156.504 42.4908 156.456 42.3283C156.409 42.1639 156.334 42.0391 156.233 41.954C156.132 41.867 156 41.8235 155.839 41.8235C155.6 41.8235 155.426 41.9182 155.317 42.1078C155.207 42.2974 155.152 42.5691 155.152 42.9231Z" fill="#B90B0B"/>
<path d="M159.157 41.2635C159.202 41.2635 159.252 41.2664 159.306 41.2722C159.36 41.278 159.407 41.2857 159.446 41.2954L159.392 41.9337C159.358 41.9221 159.315 41.9134 159.264 41.9076C159.215 41.9018 159.171 41.8989 159.132 41.8989C159.029 41.8989 158.931 41.9192 158.838 41.9598C158.745 41.9985 158.662 42.0585 158.591 42.1397C158.519 42.219 158.462 42.3186 158.422 42.4386C158.381 42.5585 158.36 42.6977 158.36 42.8564V44.5363H157.782V41.3244H158.233L158.311 41.8902H158.338C158.392 41.7761 158.459 41.6716 158.539 41.5768C158.619 41.4821 158.711 41.4066 158.814 41.3505C158.918 41.2925 159.033 41.2635 159.157 41.2635Z" fill="#B90B0B"/>
<path d="M161.029 41.2635C161.271 41.2635 161.478 41.3225 161.651 41.4405C161.825 41.5585 161.958 41.7258 162.051 41.9424C162.144 42.1591 162.19 42.4182 162.19 42.72V43.0856H160.379C160.386 43.397 160.456 43.6368 160.59 43.8051C160.726 43.9734 160.915 44.0575 161.159 44.0575C161.332 44.0575 161.487 44.0382 161.624 43.9995C161.763 43.9589 161.906 43.8999 162.053 43.8225V44.3767C161.918 44.4521 161.78 44.5072 161.639 44.5421C161.499 44.5769 161.33 44.5943 161.134 44.5943C160.868 44.5943 160.634 44.5334 160.431 44.4115C160.23 44.2877 160.072 44.1039 159.958 43.8602C159.845 43.6165 159.789 43.3138 159.789 42.9521C159.789 42.5923 159.84 42.2867 159.943 42.0353C160.046 41.7838 160.191 41.5923 160.377 41.4608C160.563 41.3293 160.781 41.2635 161.029 41.2635ZM161.029 41.777C160.848 41.777 160.701 41.8467 160.588 41.9859C160.477 42.1252 160.411 42.3293 160.392 42.5981H161.627C161.625 42.4376 161.602 42.2954 161.558 42.1716C161.516 42.0478 161.45 41.9511 161.362 41.8815C161.276 41.8119 161.164 41.777 161.029 41.777Z" fill="#B90B0B"/>
<path fill-rule="evenodd" clip-rule="evenodd" d="M106.767 104.966V104.966C106.728 104.969 106.526 104.982 106.075 104.982C105.716 104.982 105.462 104.97 105.373 104.966V104.967C103.989 104.901 102.955 104.639 102.955 104.326C102.955 104.013 103.989 103.751 105.373 103.684V104.706C105.464 104.713 105.723 104.73 106.081 104.73C106.511 104.73 106.727 104.71 106.767 104.707V103.685C108.149 103.751 109.18 104.013 109.18 104.326C109.18 104.639 108.149 104.9 106.767 104.966ZM106.767 103.578V102.663H108.695V101.268H103.445V102.663H105.373V103.578C103.806 103.656 102.628 103.993 102.628 104.397C102.628 104.801 103.806 105.137 105.373 105.216V108.148H106.767V105.215C108.332 105.137 109.507 104.8 109.507 104.397C109.507 103.994 108.332 103.657 106.767 103.578Z" fill="white"/>
<defs>
<filter id="filter0_d_235_32108" x="0.37085" y="131.985" width="258.391" height="151.823" filterUnits="userSpaceOnUse" color-interpolation-filters="sRGB">
<feFlood flood-opacity="0" result="BackgroundImageFix"/>
<feColorMatrix in="SourceAlpha" type="matrix" values="0 0 0 0 0 0 0 0 0 0 0 0 0 0 0 0 0 0 127 0" result="hardAlpha"/>
<feOffset dx="-18" dy="22"/>
<feGaussianBlur stdDeviation="30.5"/>
<feComposite in2="hardAlpha" operator="out"/>
<feColorMatrix type="matrix" values="0 0 0 0 0.629167 0 0 0 0 0.629167 0 0 0 0 0.629167 0 0 0 0.25 0"/>
<feBlend mode="normal" in2="BackgroundImageFix" result="effect1_dropShadow_235_32108"/>
<feBlend mode="normal" in="SourceGraphic" in2="effect1_dropShadow_235_32108" result="shape"/>
</filter>
<filter id="filter1_d_235_32108" x="23.8323" y="190.438" width="139.099" height="139.099" filterUnits="userSpaceOnUse" color-interpolation-filters="sRGB">
<feFlood flood-opacity="0" result="BackgroundImageFix"/>
<feColorMatrix in="SourceAlpha" type="matrix" values="0 0 0 0 0 0 0 0 0 0 0 0 0 0 0 0 0 0 127 0" result="hardAlpha"/>
<feOffset dx="-18" dy="22"/>
<feGaussianBlur stdDeviation="30.5"/>
<feComposite in2="hardAlpha" operator="out"/>
<feColorMatrix type="matrix" values="0 0 0 0 0.629167 0 0 0 0 0.629167 0 0 0 0 0.629167 0 0 0 0.25 0"/>
<feBlend mode="normal" in2="BackgroundImageFix" result="effect1_dropShadow_235_32108"/>
<feBlend mode="normal" in="SourceGraphic" in2="effect1_dropShadow_235_32108" result="shape"/>
</filter>
<filter id="filter2_d_235_32108" x="24.229" y="215.888" width="139.099" height="139.099" filterUnits="userSpaceOnUse" color-interpolation-filters="sRGB">
<feFlood flood-opacity="0" result="BackgroundImageFix"/>
<feColorMatrix in="SourceAlpha" type="matrix" values="0 0 0 0 0 0 0 0 0 0 0 0 0 0 0 0 0 0 127 0" result="hardAlpha"/>
<feOffset dx="-18" dy="22"/>
<feGaussianBlur stdDeviation="30.5"/>
<feComposite in2="hardAlpha" operator="out"/>
<feColorMatrix type="matrix" values="0 0 0 0 0.629167 0 0 0 0 0.629167 0 0 0 0 0.629167 0 0 0 0.25 0"/>
<feBlend mode="normal" in2="BackgroundImageFix" result="effect1_dropShadow_235_32108"/>
<feBlend mode="normal" in="SourceGraphic" in2="effect1_dropShadow_235_32108" result="shape"/>
</filter>
<filter id="filter3_d_235_32108" x="146.703" y="120.852" width="258.391" height="278.273" filterUnits="userSpaceOnUse" color-interpolation-filters="sRGB">
<feFlood flood-opacity="0" result="BackgroundImageFix"/>
<feColorMatrix in="SourceAlpha" type="matrix" values="0 0 0 0 0 0 0 0 0 0 0 0 0 0 0 0 0 0 127 0" result="hardAlpha"/>
<feOffset dx="-18" dy="22"/>
<feGaussianBlur stdDeviation="30.5"/>
<feComposite in2="hardAlpha" operator="out"/>
<feColorMatrix type="matrix" values="0 0 0 0 0.629167 0 0 0 0 0.629167 0 0 0 0 0.629167 0 0 0 0.25 0"/>
<feBlend mode="normal" in2="BackgroundImageFix" result="effect1_dropShadow_235_32108"/>
<feBlend mode="normal" in="SourceGraphic" in2="effect1_dropShadow_235_32108" result="shape"/>
</filter>
</defs>
</svg>
