<svg width="485" height="515" viewBox="0 0 485 515" fill="none" xmlns="http://www.w3.org/2000/svg">
<path d="M34.9999 309.368L52.3135 308.876L43.2303 294.128L34.9999 309.368ZM234.479 365.928C237.3 362.528 236.831 357.485 233.431 354.663C230.03 351.842 224.987 352.311 222.166 355.711C219.344 359.111 219.813 364.155 223.213 366.976C226.614 369.798 231.657 369.329 234.479 365.928ZM229.762 361.238C230.151 359.901 230.46 358.573 230.69 357.253L227.735 356.736C227.524 357.945 227.24 359.167 226.882 360.401L229.762 361.238ZM231.138 349.157C230.959 346.431 230.445 343.767 229.624 341.174L226.764 342.079C227.514 344.45 227.982 346.877 228.145 349.354L231.138 349.157ZM226.362 333.772C225.07 331.503 223.54 329.303 221.796 327.178L219.477 329.082C221.123 331.087 222.554 333.147 223.755 335.256L226.362 333.772ZM216.3 321.359C214.415 319.604 212.377 317.908 210.201 316.274L208.4 318.674C210.498 320.249 212.454 321.877 214.256 323.555L216.3 321.359ZM203.678 311.814C201.495 310.45 199.21 309.139 196.835 307.882L195.431 310.533C197.748 311.759 199.97 313.035 202.089 314.358L203.678 311.814ZM189.756 304.416C187.405 303.351 184.983 302.333 182.499 301.366L181.41 304.161C183.846 305.11 186.218 306.107 188.518 307.148L189.756 304.416ZM175.103 298.693C172.648 297.871 170.144 297.096 167.597 296.367L166.773 299.252C169.278 299.968 171.739 300.731 174.151 301.538L175.103 298.693ZM160.003 294.367C157.478 293.757 154.921 293.193 152.336 292.676L151.747 295.618C154.294 296.127 156.813 296.683 159.298 297.283L160.003 294.367ZM144.611 291.284C142.039 290.871 139.447 290.504 136.84 290.184L136.475 293.162C139.045 293.477 141.6 293.839 144.135 294.246L144.611 291.284ZM129.034 289.374C126.433 289.153 123.821 288.979 121.205 288.855L121.063 291.852C123.641 291.974 126.215 292.145 128.78 292.363L129.034 289.374ZM113.363 288.631C110.745 288.606 108.127 288.632 105.516 288.709L105.605 291.708C108.176 291.632 110.755 291.606 113.335 291.631L113.363 288.631ZM97.6735 289.101C95.0526 289.286 92.4431 289.525 89.8507 289.821L90.1903 292.801C92.7389 292.511 95.3056 292.276 97.8848 292.093L97.6735 289.101ZM82.0634 290.887C79.4605 291.304 76.881 291.782 74.3307 292.32L74.9507 295.256C77.4515 294.727 79.9827 294.259 82.5387 293.849L82.0634 290.887ZM66.6761 294.148C64.1212 294.831 61.6032 295.581 59.1285 296.399L60.0702 299.247C62.4877 298.448 64.9501 297.715 67.4511 297.046L66.6761 294.148ZM51.7244 299.107C49.2642 300.099 46.857 301.165 44.5101 302.309L45.8243 305.006C48.1053 303.894 50.448 302.856 52.8457 301.89L51.7244 299.107Z" fill="#B90B0B"/>
<path d="M446.671 146.927L434.066 158.807L450.657 163.783L446.671 146.927ZM81.1915 326.35C81.1915 330.768 84.7732 334.35 89.1915 334.35C93.6097 334.35 97.1915 330.768 97.1915 326.35C97.1915 321.932 93.6097 318.35 89.1915 318.35C84.7732 318.35 81.1915 321.932 81.1915 326.35ZM87.7986 326.907C88.3145 328.198 88.8555 329.461 89.4211 330.695L92.1485 329.445C91.6038 328.257 91.0823 327.039 90.5844 325.794L87.7986 326.907ZM93.1129 337.776C94.5151 340.152 96.0228 342.402 97.631 344.529L100.024 342.719C98.4857 340.685 97.0416 338.53 95.6966 336.251L93.1129 337.776ZM102.878 350.67C104.759 352.62 106.742 354.437 108.821 356.124L110.712 353.795C108.726 352.184 106.833 350.449 105.038 348.587L102.878 350.67ZM115.397 360.835C117.662 362.262 120.016 363.561 122.453 364.736L123.755 362.033C121.417 360.906 119.163 359.661 116.996 358.296L115.397 360.835ZM129.872 367.842C132.371 368.742 134.941 369.528 137.577 370.205L138.323 367.3C135.775 366.645 133.295 365.886 130.888 365.02L129.872 367.842ZM145.457 371.874C148.042 372.311 150.679 372.654 153.366 372.906L153.646 369.92C151.03 369.674 148.466 369.34 145.958 368.916L145.457 371.874ZM161.373 373.387C164.009 373.459 166.685 373.452 169.399 373.367L169.304 370.368C166.647 370.452 164.03 370.459 161.456 370.388L161.373 373.387ZM177.327 372.906C179.958 372.686 182.618 372.397 185.307 372.043L184.914 369.069C182.271 369.417 179.658 369.7 177.077 369.917L177.327 372.906ZM193.157 370.833C195.744 370.379 198.353 369.867 200.981 369.298L200.347 366.366C197.756 366.927 195.185 367.431 192.638 367.878L193.157 370.833ZM208.752 367.469C211.289 366.824 213.841 366.129 216.407 365.385L215.572 362.503C213.037 363.238 210.516 363.925 208.013 364.561L208.752 367.469ZM224.058 363.036C226.543 362.231 229.04 361.382 231.546 360.49L230.539 357.664C228.06 358.546 225.591 359.386 223.133 360.182L224.058 363.036ZM239.05 357.7C241.487 356.756 243.93 355.774 246.378 354.752L245.223 351.984C242.798 352.995 240.379 353.968 237.967 354.903L239.05 357.7ZM253.722 351.58C256.111 350.514 258.502 349.412 260.896 348.275L259.608 345.565C257.236 346.692 254.866 347.784 252.499 348.841L253.722 351.58ZM268.071 344.766C270.413 343.588 272.754 342.377 275.094 341.135L273.687 338.485C271.366 339.717 269.045 340.918 266.723 342.086L268.071 344.766ZM282.096 337.321C284.39 336.041 286.681 334.73 288.967 333.39L287.451 330.802C285.182 332.131 282.909 333.431 280.634 334.702L282.096 337.321ZM295.794 329.297C298.039 327.92 300.278 326.516 302.51 325.084L300.891 322.559C298.676 323.979 296.453 325.373 294.226 326.74L295.794 329.297ZM309.159 320.729C311.352 319.262 313.538 317.769 315.714 316.251L313.997 313.79C311.837 315.297 309.668 316.779 307.491 318.236L309.159 320.729ZM322.181 311.647C324.32 310.093 326.448 308.516 328.565 306.915L326.755 304.522C324.654 306.111 322.541 307.677 320.418 309.219L322.181 311.647ZM334.847 302.069C336.927 300.434 338.994 298.775 341.048 297.095L339.148 294.773C337.11 296.441 335.057 298.087 332.993 299.711L334.847 302.069ZM347.14 292.013C349.156 290.298 351.157 288.562 353.143 286.806L351.155 284.559C349.184 286.302 347.197 288.026 345.196 289.728L347.14 292.013ZM359.036 281.489C360.984 279.697 362.914 277.886 364.826 276.055L362.752 273.888C360.854 275.705 358.938 277.503 357.005 279.282L359.036 281.489ZM370.509 270.504C372.384 268.635 374.24 266.748 376.075 264.842L373.914 262.761C372.094 264.652 370.252 266.525 368.391 268.379L370.509 270.504ZM381.527 259.062C383.325 257.116 385.101 255.151 386.854 253.171L384.607 251.183C382.869 253.147 381.107 255.096 379.323 257.027L381.527 259.062ZM392.051 247.165C393.766 245.14 395.456 243.098 397.119 241.04L394.787 239.154C393.137 241.194 391.462 243.218 389.762 245.227L392.051 247.165ZM402.037 234.813C403.661 232.707 405.256 230.587 406.822 228.451L404.403 226.677C402.851 228.793 401.27 230.894 399.662 232.981L402.037 234.813ZM411.432 222.003C412.954 219.817 414.445 217.617 415.904 215.403L413.398 213.753C411.954 215.945 410.478 218.123 408.97 220.288L411.432 222.003ZM420.181 208.723C421.587 206.46 422.959 204.185 424.295 201.897L421.704 200.384C420.382 202.648 419.025 204.899 417.633 207.139L420.181 208.723ZM428.201 194.984C429.478 192.647 430.717 190.297 431.917 187.936L429.242 186.577C428.056 188.911 426.831 191.234 425.568 193.546L428.201 194.984ZM435.407 180.795C436.539 178.385 437.63 175.964 438.677 173.532L435.921 172.346C434.887 174.747 433.81 177.138 432.692 179.52L435.407 180.795ZM441.701 166.173C442.671 163.693 443.595 161.204 444.472 158.706L441.641 157.712C440.776 160.176 439.864 162.632 438.907 165.08L441.701 166.173Z" fill="#B90B0B"/>
<g filter="url(#filter0_d_235_32367)">
<rect x="79.6281" y="39" width="156.198" height="185.798" rx="11" fill="white"/>
<rect x="80.1281" y="39.5" width="155.198" height="184.798" rx="10.5" stroke="#EFEFEF"/>
</g>
<path d="M104.984 68H101.75V62.2891H104.984V63.0781H102.688V64.6289H104.84V65.4141H102.688V67.207H104.984V68ZM107.82 63.5938C108.367 63.5938 108.78 63.7148 109.059 63.957C109.34 64.1992 109.48 64.5768 109.48 65.0898V68H108.828L108.652 67.3867H108.621C108.499 67.543 108.372 67.6719 108.242 67.7734C108.112 67.875 107.961 67.9505 107.789 68C107.62 68.0521 107.413 68.0781 107.168 68.0781C106.91 68.0781 106.68 68.0312 106.477 67.9375C106.273 67.8411 106.113 67.6953 105.996 67.5C105.879 67.3047 105.82 67.0573 105.82 66.7578C105.82 66.3125 105.986 65.9779 106.316 65.7539C106.65 65.5299 107.152 65.4062 107.824 65.3828L108.574 65.3555V65.1289C108.574 64.8294 108.504 64.6159 108.363 64.4883C108.225 64.3607 108.03 64.2969 107.777 64.2969C107.561 64.2969 107.352 64.3281 107.148 64.3906C106.945 64.4531 106.747 64.5299 106.555 64.6211L106.258 63.9727C106.469 63.8607 106.708 63.7695 106.977 63.6992C107.247 63.6289 107.529 63.5938 107.82 63.5938ZM108.57 65.9336L108.012 65.9531C107.553 65.9688 107.232 66.0469 107.047 66.1875C106.862 66.3281 106.77 66.5208 106.77 66.7656C106.77 66.9792 106.833 67.1354 106.961 67.2344C107.089 67.3307 107.257 67.3789 107.465 67.3789C107.783 67.3789 108.046 67.2891 108.254 67.1094C108.465 66.9271 108.57 66.6602 108.57 66.3086V65.9336ZM113.672 66.7656C113.672 67.0495 113.603 67.2891 113.465 67.4844C113.327 67.6797 113.125 67.8281 112.859 67.9297C112.596 68.0286 112.273 68.0781 111.891 68.0781C111.589 68.0781 111.328 68.056 111.109 68.0117C110.893 67.9701 110.689 67.9049 110.496 67.8164V67.0234C110.702 67.1198 110.932 67.2031 111.188 67.2734C111.445 67.3438 111.689 67.3789 111.918 67.3789C112.22 67.3789 112.438 67.332 112.57 67.2383C112.703 67.1419 112.77 67.0143 112.77 66.8555C112.77 66.7617 112.742 66.6784 112.688 66.6055C112.635 66.5299 112.536 66.4531 112.391 66.375C112.247 66.2943 112.036 66.1979 111.758 66.0859C111.484 65.9766 111.254 65.8672 111.066 65.7578C110.879 65.6484 110.737 65.5169 110.641 65.3633C110.544 65.207 110.496 65.0078 110.496 64.7656C110.496 64.3828 110.647 64.0924 110.949 63.8945C111.254 63.694 111.656 63.5938 112.156 63.5938C112.422 63.5938 112.672 63.6211 112.906 63.6758C113.143 63.7279 113.375 63.8047 113.602 63.9062L113.312 64.5977C113.117 64.5117 112.921 64.4414 112.723 64.3867C112.527 64.3294 112.328 64.3008 112.125 64.3008C111.888 64.3008 111.707 64.3372 111.582 64.4102C111.46 64.4831 111.398 64.5872 111.398 64.7227C111.398 64.8242 111.428 64.9102 111.488 64.9805C111.548 65.0508 111.651 65.1211 111.797 65.1914C111.945 65.2617 112.151 65.349 112.414 65.4531C112.672 65.5521 112.895 65.6562 113.082 65.7656C113.272 65.8724 113.418 66.0039 113.52 66.1602C113.621 66.3164 113.672 66.5182 113.672 66.7656ZM114.012 63.6758H115.012L115.898 66.1445C115.938 66.2565 115.973 66.3672 116.004 66.4766C116.038 66.5833 116.066 66.6888 116.09 66.793C116.116 66.8971 116.137 67.0013 116.152 67.1055H116.176C116.202 66.9701 116.238 66.819 116.285 66.6523C116.335 66.4831 116.389 66.3138 116.449 66.1445L117.301 63.6758H118.289L116.434 68.5938C116.327 68.875 116.195 69.1146 116.039 69.3125C115.885 69.513 115.703 69.6641 115.492 69.7656C115.281 69.8698 115.04 69.9219 114.77 69.9219C114.639 69.9219 114.526 69.9141 114.43 69.8984C114.333 69.8854 114.251 69.8711 114.184 69.8555V69.1211C114.238 69.1341 114.307 69.1458 114.391 69.1562C114.474 69.1667 114.56 69.1719 114.648 69.1719C114.812 69.1719 114.954 69.1393 115.074 69.0742C115.194 69.0091 115.296 68.9167 115.379 68.7969C115.462 68.6797 115.531 68.5456 115.586 68.3945L115.738 67.9883L114.012 63.6758ZM122.719 63.5938C123.266 63.5938 123.678 63.7148 123.957 63.957C124.238 64.1992 124.379 64.5768 124.379 65.0898V68H123.727L123.551 67.3867H123.52C123.397 67.543 123.271 67.6719 123.141 67.7734C123.01 67.875 122.859 67.9505 122.688 68C122.518 68.0521 122.311 68.0781 122.066 68.0781C121.809 68.0781 121.578 68.0312 121.375 67.9375C121.172 67.8411 121.012 67.6953 120.895 67.5C120.777 67.3047 120.719 67.0573 120.719 66.7578C120.719 66.3125 120.884 65.9779 121.215 65.7539C121.548 65.5299 122.051 65.4062 122.723 65.3828L123.473 65.3555V65.1289C123.473 64.8294 123.402 64.6159 123.262 64.4883C123.124 64.3607 122.928 64.2969 122.676 64.2969C122.46 64.2969 122.25 64.3281 122.047 64.3906C121.844 64.4531 121.646 64.5299 121.453 64.6211L121.156 63.9727C121.367 63.8607 121.607 63.7695 121.875 63.6992C122.146 63.6289 122.427 63.5938 122.719 63.5938ZM123.469 65.9336L122.91 65.9531C122.452 65.9688 122.13 66.0469 121.945 66.1875C121.76 66.3281 121.668 66.5208 121.668 66.7656C121.668 66.9792 121.732 67.1354 121.859 67.2344C121.987 67.3307 122.155 67.3789 122.363 67.3789C122.681 67.3789 122.944 67.2891 123.152 67.1094C123.363 66.9271 123.469 66.6602 123.469 66.3086V65.9336ZM127.918 63.5938C128.405 63.5938 128.784 63.7201 129.055 63.9727C129.328 64.2227 129.465 64.625 129.465 65.1797V68H128.547V65.3516C128.547 65.0156 128.478 64.7643 128.34 64.5977C128.202 64.4284 127.988 64.3438 127.699 64.3438C127.28 64.3438 126.988 64.4727 126.824 64.7305C126.663 64.9883 126.582 65.362 126.582 65.8516V68H125.664V63.6758H126.379L126.508 64.2617H126.559C126.652 64.1107 126.768 63.987 126.906 63.8906C127.047 63.7917 127.203 63.7174 127.375 63.668C127.549 63.6185 127.73 63.5938 127.918 63.5938ZM132.203 68.0781C131.688 68.0781 131.273 67.8906 130.961 67.5156C130.651 67.138 130.496 66.582 130.496 65.8477C130.496 65.1055 130.654 64.5443 130.969 64.1641C131.286 63.7839 131.704 63.5938 132.223 63.5938C132.441 63.5938 132.633 63.6237 132.797 63.6836C132.961 63.7409 133.102 63.819 133.219 63.918C133.339 64.0169 133.44 64.1276 133.523 64.25H133.566C133.553 64.1693 133.538 64.0534 133.52 63.9023C133.504 63.7487 133.496 63.6068 133.496 63.4766V61.9219H134.418V68H133.699L133.535 67.4102H133.496C133.418 67.5352 133.319 67.6484 133.199 67.75C133.082 67.849 132.941 67.9284 132.777 67.9883C132.616 68.0482 132.424 68.0781 132.203 68.0781ZM132.461 67.332C132.854 67.332 133.132 67.2188 133.293 66.9922C133.454 66.7656 133.538 66.4258 133.543 65.9727V65.8516C133.543 65.3672 133.465 64.9961 133.309 64.7383C133.152 64.4779 132.867 64.3477 132.453 64.3477C132.122 64.3477 131.87 64.4818 131.695 64.75C131.523 65.0156 131.438 65.3867 131.438 65.8633C131.438 66.3398 131.523 66.7044 131.695 66.957C131.87 67.207 132.125 67.332 132.461 67.332ZM139.973 64.375H138.922V68H138.004V64.375H137.297V63.9336L138.004 63.6641V63.3633C138.004 62.9961 138.061 62.7044 138.176 62.4883C138.293 62.2721 138.46 62.1172 138.676 62.0234C138.895 61.9271 139.155 61.8789 139.457 61.8789C139.655 61.8789 139.836 61.8958 140 61.9297C140.164 61.9609 140.302 61.9974 140.414 62.0391L140.176 62.7344C140.087 62.7057 139.988 62.6797 139.879 62.6562C139.77 62.6302 139.652 62.6172 139.527 62.6172C139.319 62.6172 139.165 62.6823 139.066 62.8125C138.97 62.9427 138.922 63.1328 138.922 63.3828V63.6758H139.973V64.375ZM142.406 63.5938C142.953 63.5938 143.366 63.7148 143.645 63.957C143.926 64.1992 144.066 64.5768 144.066 65.0898V68H143.414L143.238 67.3867H143.207C143.085 67.543 142.958 67.6719 142.828 67.7734C142.698 67.875 142.547 67.9505 142.375 68C142.206 68.0521 141.999 68.0781 141.754 68.0781C141.496 68.0781 141.266 68.0312 141.062 67.9375C140.859 67.8411 140.699 67.6953 140.582 67.5C140.465 67.3047 140.406 67.0573 140.406 66.7578C140.406 66.3125 140.572 65.9779 140.902 65.7539C141.236 65.5299 141.738 65.4062 142.41 65.3828L143.16 65.3555V65.1289C143.16 64.8294 143.09 64.6159 142.949 64.4883C142.811 64.3607 142.616 64.2969 142.363 64.2969C142.147 64.2969 141.938 64.3281 141.734 64.3906C141.531 64.4531 141.333 64.5299 141.141 64.6211L140.844 63.9727C141.055 63.8607 141.294 63.7695 141.562 63.6992C141.833 63.6289 142.115 63.5938 142.406 63.5938ZM143.156 65.9336L142.598 65.9531C142.139 65.9688 141.818 66.0469 141.633 66.1875C141.448 66.3281 141.355 66.5208 141.355 66.7656C141.355 66.9792 141.419 67.1354 141.547 67.2344C141.674 67.3307 141.842 67.3789 142.051 67.3789C142.368 67.3789 142.632 67.2891 142.84 67.1094C143.051 66.9271 143.156 66.6602 143.156 66.3086V65.9336ZM148.258 66.7656C148.258 67.0495 148.189 67.2891 148.051 67.4844C147.913 67.6797 147.711 67.8281 147.445 67.9297C147.182 68.0286 146.859 68.0781 146.477 68.0781C146.174 68.0781 145.914 68.056 145.695 68.0117C145.479 67.9701 145.275 67.9049 145.082 67.8164V67.0234C145.288 67.1198 145.518 67.2031 145.773 67.2734C146.031 67.3438 146.275 67.3789 146.504 67.3789C146.806 67.3789 147.023 67.332 147.156 67.2383C147.289 67.1419 147.355 67.0143 147.355 66.8555C147.355 66.7617 147.328 66.6784 147.273 66.6055C147.221 66.5299 147.122 66.4531 146.977 66.375C146.833 66.2943 146.622 66.1979 146.344 66.0859C146.07 65.9766 145.84 65.8672 145.652 65.7578C145.465 65.6484 145.323 65.5169 145.227 65.3633C145.13 65.207 145.082 65.0078 145.082 64.7656C145.082 64.3828 145.233 64.0924 145.535 63.8945C145.84 63.694 146.242 63.5938 146.742 63.5938C147.008 63.5938 147.258 63.6211 147.492 63.6758C147.729 63.7279 147.961 63.8047 148.188 63.9062L147.898 64.5977C147.703 64.5117 147.507 64.4414 147.309 64.3867C147.113 64.3294 146.914 64.3008 146.711 64.3008C146.474 64.3008 146.293 64.3372 146.168 64.4102C146.046 64.4831 145.984 64.5872 145.984 64.7227C145.984 64.8242 146.014 64.9102 146.074 64.9805C146.134 65.0508 146.237 65.1211 146.383 65.1914C146.531 65.2617 146.737 65.349 147 65.4531C147.258 65.5521 147.48 65.6562 147.668 65.7656C147.858 65.8724 148.004 66.0039 148.105 66.1602C148.207 66.3164 148.258 66.5182 148.258 66.7656ZM150.859 67.3359C150.979 67.3359 151.098 67.3255 151.215 67.3047C151.332 67.2812 151.439 67.2539 151.535 67.2227V67.918C151.434 67.9622 151.302 68 151.141 68.0312C150.979 68.0625 150.811 68.0781 150.637 68.0781C150.392 68.0781 150.172 68.0378 149.977 67.957C149.781 67.8737 149.626 67.7318 149.512 67.5312C149.397 67.3307 149.34 67.0534 149.34 66.6992V64.375H148.75V63.9648L149.383 63.6406L149.684 62.7148H150.262V63.6758H151.5V64.375H150.262V66.6875C150.262 66.9062 150.316 67.069 150.426 67.1758C150.535 67.2826 150.68 67.3359 150.859 67.3359Z" fill="black"/>
<rect x="96.4773" y="114.594" width="122.499" height="84.7022" rx="11" fill="#F8F8F8"/>
<rect x="165.697" y="188.823" width="42.3511" height="20.4925" rx="10.2462" fill="#B90B0B"/>
<path d="M186.389 206.672C186.389 207.222 186.254 207.696 185.983 208.094C185.716 208.492 185.331 208.796 184.828 209.008C184.328 209.219 183.732 209.325 183.038 209.325C182.699 209.325 182.375 209.306 182.067 209.268C181.758 209.23 181.466 209.175 181.191 209.103C180.92 209.027 180.672 208.936 180.448 208.83V207.396C180.825 207.561 181.246 207.711 181.711 207.846C182.177 207.977 182.651 208.043 183.133 208.043C183.526 208.043 183.852 207.992 184.11 207.891C184.373 207.785 184.568 207.637 184.694 207.446C184.821 207.252 184.885 207.025 184.885 206.767C184.885 206.492 184.811 206.259 184.663 206.069C184.515 205.878 184.29 205.705 183.99 205.548C183.694 205.388 183.321 205.216 182.873 205.034C182.568 204.911 182.276 204.772 181.997 204.615C181.722 204.459 181.476 204.275 181.26 204.063C181.045 203.851 180.873 203.602 180.746 203.314C180.623 203.022 180.562 202.679 180.562 202.286C180.562 201.761 180.687 201.312 180.937 200.94C181.191 200.568 181.546 200.282 182.003 200.083C182.464 199.884 183.002 199.785 183.615 199.785C184.102 199.785 184.559 199.835 184.986 199.937C185.418 200.039 185.841 200.182 186.256 200.369L185.774 201.594C185.393 201.437 185.022 201.312 184.663 201.219C184.307 201.126 183.943 201.08 183.571 201.08C183.249 201.08 182.976 201.128 182.752 201.226C182.528 201.323 182.356 201.46 182.238 201.638C182.124 201.812 182.067 202.019 182.067 202.26C182.067 202.531 182.132 202.76 182.263 202.946C182.399 203.128 182.606 203.295 182.885 203.447C183.169 203.6 183.533 203.769 183.977 203.955C184.489 204.167 184.923 204.389 185.278 204.622C185.638 204.854 185.913 205.134 186.104 205.459C186.294 205.781 186.389 206.185 186.389 206.672ZM183.679 219.038C184.305 219.038 184.843 219.167 185.291 219.425C185.74 219.683 186.085 220.049 186.326 220.523C186.567 220.997 186.688 221.564 186.688 222.225V223.024H181.997C182.014 223.706 182.196 224.23 182.543 224.599C182.894 224.967 183.385 225.151 184.015 225.151C184.464 225.151 184.866 225.109 185.221 225.024C185.581 224.935 185.951 224.806 186.332 224.637V225.849C185.981 226.014 185.623 226.135 185.259 226.211C184.895 226.287 184.46 226.325 183.952 226.325C183.262 226.325 182.655 226.192 182.13 225.925C181.609 225.654 181.201 225.252 180.905 224.719C180.613 224.186 180.467 223.524 180.467 222.732C180.467 221.945 180.6 221.277 180.867 220.727C181.133 220.176 181.508 219.757 181.99 219.47C182.473 219.182 183.036 219.038 183.679 219.038ZM183.679 220.162C183.209 220.162 182.828 220.314 182.536 220.619C182.248 220.923 182.079 221.37 182.028 221.958H185.228C185.223 221.607 185.164 221.296 185.05 221.025C184.94 220.754 184.771 220.542 184.542 220.39C184.318 220.238 184.03 220.162 183.679 220.162ZM184.542 236.038C185.333 236.038 185.949 236.243 186.389 236.654C186.834 237.06 187.056 237.714 187.056 238.615V243.198H185.564V238.895C185.564 238.349 185.452 237.94 185.228 237.669C185.003 237.394 184.656 237.257 184.187 237.257C183.505 237.257 183.031 237.466 182.765 237.885C182.502 238.304 182.371 238.911 182.371 239.707V243.198H180.88V236.171H182.041L182.251 237.124H182.333C182.485 236.878 182.674 236.677 182.898 236.521C183.127 236.36 183.38 236.239 183.66 236.159C183.943 236.078 184.237 236.038 184.542 236.038ZM183.241 260.325C182.403 260.325 181.73 260.021 181.222 259.411C180.719 258.798 180.467 257.894 180.467 256.701C180.467 255.495 180.723 254.583 181.235 253.965C181.751 253.347 182.43 253.038 183.273 253.038C183.628 253.038 183.939 253.087 184.206 253.184C184.472 253.277 184.701 253.404 184.891 253.565C185.086 253.726 185.251 253.906 185.386 254.104H185.456C185.435 253.973 185.41 253.785 185.38 253.54C185.355 253.29 185.342 253.059 185.342 252.848V250.321H186.84V260.198H185.672L185.405 259.24H185.342C185.215 259.443 185.054 259.627 184.859 259.792C184.669 259.953 184.441 260.082 184.174 260.179C183.912 260.277 183.601 260.325 183.241 260.325ZM183.66 259.113C184.299 259.113 184.749 258.929 185.012 258.561C185.274 258.192 185.41 257.64 185.418 256.904V256.707C185.418 255.92 185.291 255.317 185.037 254.898C184.783 254.475 184.32 254.263 183.647 254.263C183.11 254.263 182.699 254.481 182.416 254.917C182.136 255.349 181.997 255.952 181.997 256.726C181.997 257.5 182.136 258.093 182.416 258.503C182.699 258.91 183.114 259.113 183.66 259.113Z" fill="white"/>
<rect x="96.4773" y="81.3511" width="53.7358" height="10.0185" rx="5.00927" fill="#F2F2F2"/>
<rect x="96.4773" y="95.9233" width="80.1483" height="10.0185" rx="5.00927" fill="#F2F2F2"/>
<rect x="154.768" y="69.9668" width="194.451" height="326.969" rx="30" fill="#F2F2F2"/>
<path d="M154.768 99.9668C154.768 83.3982 168.199 69.9668 184.768 69.9668H319.218C335.787 69.9668 349.218 83.3983 349.218 99.9668V150.57H154.768V99.9668Z" fill="#B90B0B"/>
<path d="M217.86 116.877H288.901M217.86 124.619H258.817" stroke="#918EFF" stroke-width="5" stroke-linecap="round"/>
<rect x="310.055" y="108.675" width="24.1356" height="24.1356" rx="12.0678" fill="white"/>
<path d="M322.364 119.872L324.859 117.377L325.97 118.487L323.474 120.983L325.995 123.503L324.884 124.613L322.364 122.093L319.875 124.582L318.765 123.472L321.254 120.983L318.708 118.438L319.819 117.327L322.364 119.872Z" fill="#263238"/>
<rect x="171.617" y="222.977" width="156.198" height="34.1541" rx="11" fill="white"/>
<path d="M208.959 236.638H292.295M208.959 244.38H257.005" stroke="#DCDCDC" stroke-width="5" stroke-linecap="round"/>
<rect x="173" y="172" width="156.198" height="34.1541" rx="11" fill="white"/>
<mask id="mask0_235_32367" style="mask-type:alpha" maskUnits="userSpaceOnUse" x="182" y="179" width="21" height="22">
<circle cx="192.354" cy="189.987" r="10.2462" fill="url(#paint0_linear_235_32367)"/>
</mask>
<g mask="url(#mask0_235_32367)">
</g>
<g clip-path="url(#clip0_235_32367)">
<path d="M189.562 183.252C189.141 183.257 188.887 183.282 188.682 183.386C188.447 183.506 188.256 183.697 188.136 183.933C188.032 184.137 188.007 184.391 188.002 184.812M195.187 183.252C195.609 183.257 195.863 183.282 196.067 183.386C196.303 183.506 196.494 183.697 196.614 183.933C196.718 184.137 196.742 184.391 196.748 184.812M196.748 190.437C196.742 190.859 196.718 191.113 196.614 191.317C196.494 191.553 196.303 191.744 196.067 191.864C195.863 191.968 195.609 191.993 195.187 191.998M196.75 187V188.25M191.75 183.25H193M186.25 195.75H191C191.7 195.75 192.05 195.75 192.317 195.614C192.553 195.494 192.744 195.303 192.864 195.067C193 194.8 193 194.45 193 193.75V189C193 188.3 193 187.95 192.864 187.683C192.744 187.447 192.553 187.256 192.317 187.136C192.05 187 191.7 187 191 187H186.25C185.55 187 185.2 187 184.932 187.136C184.697 187.256 184.506 187.447 184.386 187.683C184.25 187.95 184.25 188.3 184.25 189V193.75C184.25 194.45 184.25 194.8 184.386 195.067C184.506 195.303 184.697 195.494 184.932 195.614C185.2 195.75 185.55 195.75 186.25 195.75Z" stroke="#B90B0B" stroke-width="2" stroke-linecap="round" stroke-linejoin="round"/>
</g>
<g clip-path="url(#clip1_235_32367)">
<path d="M189.562 233.252C189.141 233.257 188.887 233.282 188.682 233.386C188.447 233.506 188.256 233.697 188.136 233.933C188.032 234.137 188.007 234.391 188.002 234.812M195.187 233.252C195.609 233.257 195.863 233.282 196.067 233.386C196.303 233.506 196.494 233.697 196.614 233.933C196.718 234.137 196.742 234.391 196.748 234.812M196.748 240.437C196.742 240.859 196.718 241.113 196.614 241.317C196.494 241.553 196.303 241.744 196.067 241.864C195.863 241.968 195.609 241.993 195.187 241.998M196.75 237V238.25M191.75 233.25H193M186.25 245.75H191C191.7 245.75 192.05 245.75 192.317 245.614C192.553 245.494 192.744 245.303 192.864 245.067C193 244.8 193 244.45 193 243.75V239C193 238.3 193 237.95 192.864 237.683C192.744 237.447 192.553 237.256 192.317 237.136C192.05 237 191.7 237 191 237H186.25C185.55 237 185.2 237 184.932 237.136C184.697 237.256 184.506 237.447 184.386 237.683C184.25 237.95 184.25 238.3 184.25 239V243.75C184.25 244.45 184.25 244.8 184.386 245.067C184.506 245.303 184.697 245.494 184.932 245.614C185.2 245.75 185.55 245.75 186.25 245.75Z" stroke="#B90B0B" stroke-width="2" stroke-linecap="round" stroke-linejoin="round"/>
</g>
<path d="M210.342 185.661H293.678M210.342 193.403H258.388" stroke="#DCDCDC" stroke-width="5" stroke-linecap="round"/>
<rect x="173.027" y="267.194" width="155.198" height="33.1541" rx="10.5" fill="#D4E9EE" stroke="#8BBDCA" stroke-dasharray="2 2"/>
<g filter="url(#filter1_d_235_32367)">
<rect x="117.88" y="265.784" width="156.198" height="34.1541" rx="11" fill="white"/>
<rect x="118.38" y="266.284" width="155.198" height="33.1541" rx="10.5" stroke="#EFEFEF"/>
</g>
<path d="M158.41 278.99H241.746M158.41 286.731H206.456" stroke="#DCDCDC" stroke-width="5" stroke-linecap="round"/>
<rect x="173.893" y="334.547" width="119.312" height="5.00927" rx="2.50463" fill="#D6D6D6"/>
<rect x="173.893" y="345.021" width="71.4959" height="5.00927" rx="2.50463" fill="#E0E0E0"/>
<g filter="url(#filter2_d_235_32367)">
<rect x="144.749" y="332.726" width="19.5817" height="19.5817" rx="9.79084" fill="white"/>
<rect x="145.249" y="333.226" width="18.5817" height="18.5817" rx="9.29084" stroke="#EFEFEF"/>
</g>
<path d="M153.203 345.003V344.498C153.203 344.188 153.248 343.915 153.338 343.678C153.429 343.437 153.573 343.209 153.773 342.995C153.972 342.776 154.235 342.553 154.563 342.325C154.857 342.125 155.092 341.945 155.268 341.786C155.448 341.626 155.579 341.469 155.659 341.314C155.745 341.155 155.787 340.975 155.787 340.775C155.787 340.479 155.674 340.253 155.446 340.098C155.218 339.943 154.9 339.866 154.492 339.866C154.084 339.866 153.678 339.928 153.274 340.05C152.876 340.173 152.47 340.335 152.057 340.536L151.281 339.039C151.755 338.784 152.27 338.579 152.826 338.425C153.381 338.265 153.989 338.186 154.648 338.186C155.664 338.186 156.45 338.42 157.005 338.889C157.565 339.354 157.845 339.946 157.845 340.665C157.845 341.048 157.781 341.38 157.653 341.663C157.529 341.94 157.34 342.2 157.083 342.441C156.832 342.678 156.516 342.929 156.136 343.193C155.852 343.393 155.633 343.562 155.481 343.698C155.329 343.835 155.225 343.972 155.168 344.108C155.116 344.24 155.09 344.402 155.09 344.593V345.003H153.203ZM152.975 347.339C152.975 346.911 153.096 346.611 153.338 346.438C153.585 346.265 153.882 346.178 154.228 346.178C154.565 346.178 154.855 346.265 155.097 346.438C155.344 346.611 155.467 346.911 155.467 347.339C155.467 347.749 155.344 348.045 155.097 348.228C154.855 348.41 154.565 348.501 154.228 348.501C153.882 348.501 153.585 348.41 153.338 348.228C153.096 348.045 152.975 347.749 152.975 347.339Z" fill="#B90B0B"/>
<g filter="url(#filter3_d_235_32367)">
<rect x="145.204" y="361.87" width="19.5817" height="19.5817" rx="9.79084" fill="white"/>
<rect x="145.704" y="362.37" width="18.5817" height="18.5817" rx="9.29084" stroke="#EFEFEF"/>
</g>
<path d="M153.203 373.755V373.203C153.203 372.865 153.248 372.567 153.338 372.309C153.429 372.046 153.573 371.797 153.773 371.564C153.972 371.325 154.235 371.082 154.563 370.833C154.857 370.615 155.092 370.419 155.268 370.245C155.448 370.071 155.579 369.899 155.659 369.731C155.745 369.557 155.788 369.36 155.788 369.142C155.788 368.819 155.674 368.573 155.446 368.404C155.218 368.235 154.9 368.151 154.492 368.151C154.084 368.151 153.678 368.218 153.274 368.352C152.876 368.486 152.47 368.662 152.057 368.881L151.281 367.249C151.756 366.971 152.271 366.747 152.826 366.578C153.381 366.404 153.989 366.317 154.648 366.317C155.664 366.317 156.45 366.573 157.005 367.085C157.565 367.592 157.845 368.238 157.845 369.023C157.845 369.44 157.781 369.803 157.653 370.111C157.529 370.414 157.34 370.697 157.083 370.96C156.832 371.219 156.516 371.492 156.136 371.78C155.852 371.999 155.633 372.182 155.481 372.331C155.33 372.48 155.225 372.629 155.168 372.779C155.116 372.923 155.09 373.099 155.09 373.308V373.755H153.203ZM152.975 376.303C152.975 375.836 153.096 375.509 153.338 375.32C153.585 375.131 153.882 375.037 154.228 375.037C154.565 375.037 154.855 375.131 155.097 375.32C155.344 375.509 155.467 375.836 155.467 376.303C155.467 376.751 155.344 377.074 155.097 377.272C154.855 377.471 154.565 377.57 154.228 377.57C153.882 377.57 153.585 377.471 153.338 377.272C153.096 377.074 152.975 376.751 152.975 376.303Z" fill="#B90B0B"/>
<path d="M323.261 345.021L326.449 341.606L323.261 338.19" stroke="black" stroke-width="2.5" stroke-linecap="round" stroke-linejoin="round"/>
<rect x="174.804" y="363.237" width="119.312" height="5.00927" rx="2.50463" fill="#D6D6D6"/>
<rect x="174.804" y="373.711" width="71.4959" height="5.00927" rx="2.50463" fill="#E0E0E0"/>
<path d="M324.171 373.711L327.359 370.296L324.171 366.88" stroke="black" stroke-width="2.5" stroke-linecap="round" stroke-linejoin="round"/>
<g clip-path="url(#clip2_235_32367)">
<path d="M138.562 277.252C138.14 277.257 137.887 277.282 137.682 277.386C137.447 277.506 137.256 277.697 137.136 277.933C137.032 278.137 137.007 278.391 137.002 278.812M144.187 277.252C144.609 277.257 144.862 277.282 145.067 277.386C145.302 277.506 145.494 277.697 145.614 277.933C145.718 278.137 145.742 278.391 145.748 278.812M145.748 284.437C145.742 284.859 145.718 285.113 145.614 285.317C145.494 285.553 145.302 285.744 145.067 285.864C144.862 285.968 144.609 285.993 144.187 285.998M145.75 281V282.25M140.75 277.25H142M135.25 289.75H140C140.7 289.75 141.05 289.75 141.317 289.614C141.552 289.494 141.744 289.303 141.864 289.067C142 288.8 142 288.45 142 287.75V283C142 282.3 142 281.95 141.864 281.683C141.744 281.447 141.552 281.256 141.317 281.136C141.05 281 140.7 281 140 281H135.25C134.55 281 134.2 281 133.932 281.136C133.697 281.256 133.506 281.447 133.386 281.683C133.25 281.95 133.25 282.3 133.25 283V287.75C133.25 288.45 133.25 288.8 133.386 289.067C133.506 289.303 133.697 289.494 133.932 289.614C134.2 289.75 134.55 289.75 135.25 289.75Z" stroke="#B90B0B" stroke-width="2" stroke-linecap="round" stroke-linejoin="round"/>
</g>
<g filter="url(#filter4_d_235_32367)">
<rect x="285.464" y="253.033" width="156.198" height="178.968" rx="11" fill="white"/>
<rect x="285.964" y="253.533" width="155.198" height="177.968" rx="10.5" stroke="#EFEFEF"/>
</g>
<rect x="407.963" y="375.988" width="15.0278" height="15.0278" rx="7.5139" fill="#AFADFF"/>
<rect x="329.637" y="400.579" width="71.4959" height="3.18772" rx="1.59386" fill="#FF3D6B" fill-opacity="0.53"/>
<rect x="329.637" y="407.409" width="24.1356" height="3.18772" rx="1.59386" fill="#FF3D6B" fill-opacity="0.45"/>
<rect x="300.492" y="282.633" width="122.499" height="84.7022" rx="11" fill="#B90B0B"/>
<path d="M323.988 321H323.047V316.086H321.375V315.29H325.656V316.086H323.988V321ZM330.266 318.829C330.266 319.188 330.219 319.507 330.125 319.786C330.031 320.064 329.894 320.3 329.715 320.493C329.535 320.683 329.319 320.829 329.066 320.93C328.814 321.029 328.529 321.079 328.211 321.079C327.914 321.079 327.642 321.029 327.394 320.93C327.147 320.829 326.932 320.683 326.75 320.493C326.57 320.3 326.431 320.064 326.332 319.786C326.233 319.507 326.184 319.188 326.184 318.829C326.184 318.352 326.266 317.948 326.43 317.618C326.596 317.284 326.833 317.03 327.141 316.856C327.448 316.681 327.814 316.594 328.238 316.594C328.637 316.594 328.988 316.681 329.293 316.856C329.598 317.03 329.836 317.284 330.008 317.618C330.18 317.951 330.266 318.355 330.266 318.829ZM327.129 318.829C327.129 319.144 327.167 319.413 327.242 319.637C327.32 319.861 327.44 320.033 327.602 320.153C327.763 320.27 327.971 320.329 328.227 320.329C328.482 320.329 328.69 320.27 328.852 320.153C329.013 320.033 329.131 319.861 329.207 319.637C329.282 319.413 329.32 319.144 329.32 318.829C329.32 318.514 329.282 318.247 329.207 318.028C329.131 317.806 329.013 317.639 328.852 317.524C328.69 317.407 328.48 317.348 328.223 317.348C327.842 317.348 327.565 317.476 327.391 317.731C327.216 317.986 327.129 318.352 327.129 318.829ZM333.539 316.594C334.052 316.594 334.463 316.782 334.773 317.157C335.086 317.532 335.242 318.089 335.242 318.829C335.242 319.318 335.169 319.731 335.023 320.067C334.88 320.4 334.678 320.653 334.418 320.825C334.16 320.994 333.859 321.079 333.516 321.079C333.297 321.079 333.107 321.05 332.945 320.993C332.784 320.935 332.646 320.861 332.531 320.77C332.417 320.676 332.32 320.575 332.242 320.465H332.187C332.2 320.569 332.212 320.685 332.223 320.813C332.236 320.938 332.242 321.053 332.242 321.157V322.918H331.32V316.676H332.07L332.199 317.274H332.242C332.323 317.152 332.421 317.038 332.535 316.934C332.652 316.83 332.793 316.748 332.957 316.688C333.124 316.625 333.318 316.594 333.539 316.594ZM333.293 317.344C333.04 317.344 332.837 317.395 332.684 317.497C332.532 317.596 332.422 317.745 332.352 317.946C332.284 318.146 332.247 318.398 332.242 318.7V318.829C332.242 319.149 332.275 319.421 332.34 319.645C332.407 319.866 332.518 320.036 332.672 320.153C332.828 320.267 333.039 320.325 333.305 320.325C333.529 320.325 333.713 320.264 333.859 320.141C334.008 320.019 334.118 319.844 334.191 319.618C334.264 319.391 334.301 319.124 334.301 318.817C334.301 318.351 334.217 317.989 334.051 317.731C333.887 317.473 333.634 317.344 333.293 317.344ZM342.152 316.676V321H341.43L341.305 320.418H341.254C341.163 320.567 341.047 320.691 340.906 320.79C340.766 320.886 340.609 320.958 340.437 321.004C340.266 321.054 340.085 321.079 339.894 321.079C339.569 321.079 339.29 321.024 339.059 320.915C338.829 320.803 338.654 320.631 338.531 320.399C338.409 320.167 338.348 319.868 338.348 319.5V316.676H339.269V319.329C339.269 319.665 339.337 319.916 339.473 320.083C339.611 320.249 339.824 320.333 340.113 320.333C340.392 320.333 340.613 320.275 340.777 320.161C340.941 320.046 341.057 319.877 341.125 319.653C341.195 319.429 341.23 319.154 341.23 318.829V316.676H342.152ZM345.687 316.594C346.2 316.594 346.612 316.782 346.922 317.157C347.234 317.532 347.391 318.089 347.391 318.829C347.391 319.318 347.318 319.731 347.172 320.067C347.029 320.4 346.827 320.653 346.566 320.825C346.309 320.994 346.008 321.079 345.664 321.079C345.445 321.079 345.255 321.05 345.094 320.993C344.932 320.935 344.794 320.861 344.68 320.77C344.565 320.676 344.469 320.575 344.391 320.465H344.336C344.349 320.569 344.361 320.685 344.371 320.813C344.384 320.938 344.391 321.053 344.391 321.157V322.918H343.469V316.676H344.219L344.348 317.274H344.391C344.471 317.152 344.569 317.038 344.684 316.934C344.801 316.83 344.941 316.748 345.105 316.688C345.272 316.625 345.466 316.594 345.687 316.594ZM345.441 317.344C345.189 317.344 344.986 317.395 344.832 317.497C344.681 317.596 344.57 317.745 344.5 317.946C344.432 318.146 344.396 318.398 344.391 318.7V318.829C344.391 319.149 344.423 319.421 344.488 319.645C344.556 319.866 344.667 320.036 344.82 320.153C344.977 320.267 345.187 320.325 345.453 320.325C345.677 320.325 345.862 320.264 346.008 320.141C346.156 320.019 346.267 319.844 346.34 319.618C346.413 319.391 346.449 319.124 346.449 318.817C346.449 318.351 346.366 317.989 346.199 317.731C346.035 317.473 345.782 317.344 345.441 317.344ZM355.418 316.594C355.902 316.594 356.267 316.719 356.512 316.969C356.759 317.219 356.883 317.62 356.883 318.172V321H355.965V318.336C355.965 318.008 355.901 317.761 355.773 317.594C355.646 317.428 355.452 317.344 355.191 317.344C354.827 317.344 354.564 317.461 354.402 317.696C354.243 317.928 354.164 318.265 354.164 318.708V321H353.246V318.336C353.246 318.118 353.217 317.935 353.16 317.79C353.105 317.641 353.021 317.53 352.906 317.458C352.792 317.382 352.647 317.344 352.473 317.344C352.22 317.344 352.018 317.402 351.867 317.516C351.719 317.631 351.612 317.8 351.547 318.024C351.482 318.245 351.449 318.517 351.449 318.84V321H350.531V316.676H351.246L351.375 317.258H351.426C351.514 317.107 351.624 316.984 351.754 316.887C351.887 316.788 352.034 316.715 352.195 316.668C352.357 316.619 352.525 316.594 352.699 316.594C353.022 316.594 353.294 316.652 353.516 316.766C353.737 316.878 353.902 317.05 354.012 317.282H354.082C354.217 317.047 354.406 316.874 354.648 316.762C354.891 316.65 355.147 316.594 355.418 316.594ZM361.992 318.829C361.992 319.188 361.945 319.507 361.852 319.786C361.758 320.064 361.621 320.3 361.441 320.493C361.262 320.683 361.046 320.829 360.793 320.93C360.54 321.029 360.255 321.079 359.937 321.079C359.641 321.079 359.368 321.029 359.121 320.93C358.874 320.829 358.659 320.683 358.477 320.493C358.297 320.3 358.157 320.064 358.059 319.786C357.96 319.507 357.91 319.188 357.91 318.829C357.91 318.352 357.992 317.948 358.156 317.618C358.323 317.284 358.56 317.03 358.867 316.856C359.174 316.681 359.54 316.594 359.965 316.594C360.363 316.594 360.715 316.681 361.019 316.856C361.324 317.03 361.562 317.284 361.734 317.618C361.906 317.951 361.992 318.355 361.992 318.829ZM358.855 318.829C358.855 319.144 358.893 319.413 358.969 319.637C359.047 319.861 359.167 320.033 359.328 320.153C359.49 320.27 359.698 320.329 359.953 320.329C360.208 320.329 360.417 320.27 360.578 320.153C360.74 320.033 360.858 319.861 360.934 319.637C361.009 319.413 361.047 319.144 361.047 318.829C361.047 318.514 361.009 318.247 360.934 318.028C360.858 317.806 360.74 317.639 360.578 317.524C360.417 317.407 360.207 317.348 359.949 317.348C359.569 317.348 359.292 317.476 359.117 317.731C358.943 317.986 358.855 318.352 358.855 318.829ZM365.238 316.594C365.311 316.594 365.391 316.598 365.477 316.606C365.562 316.614 365.637 316.624 365.699 316.637L365.613 317.497C365.559 317.481 365.491 317.469 365.41 317.461C365.332 317.454 365.262 317.45 365.199 317.45C365.035 317.45 364.879 317.477 364.73 317.532C364.582 317.584 364.45 317.665 364.336 317.774C364.221 317.881 364.131 318.015 364.066 318.176C364.001 318.338 363.969 318.525 363.969 318.739V321H363.047V316.676H363.766L363.891 317.438H363.934C364.019 317.284 364.126 317.144 364.254 317.016C364.381 316.889 364.527 316.787 364.691 316.711C364.858 316.633 365.04 316.594 365.238 316.594ZM368.223 316.594C368.608 316.594 368.939 316.674 369.215 316.833C369.491 316.991 369.703 317.217 369.852 317.508C370 317.8 370.074 318.149 370.074 318.555V319.047H367.187C367.198 319.467 367.31 319.79 367.523 320.016C367.74 320.243 368.042 320.356 368.43 320.356C368.706 320.356 368.953 320.33 369.172 320.278C369.393 320.223 369.621 320.144 369.855 320.04V320.786C369.639 320.887 369.419 320.961 369.195 321.008C368.971 321.055 368.703 321.079 368.391 321.079C367.966 321.079 367.592 320.997 367.269 320.833C366.949 320.666 366.698 320.418 366.516 320.09C366.336 319.762 366.246 319.355 366.246 318.868C366.246 318.383 366.328 317.972 366.492 317.633C366.656 317.295 366.887 317.037 367.184 316.86C367.48 316.683 367.827 316.594 368.223 316.594ZM368.223 317.286C367.934 317.286 367.699 317.379 367.519 317.567C367.342 317.754 367.238 318.029 367.207 318.391H369.176C369.173 318.175 369.137 317.984 369.066 317.817C368.999 317.65 368.894 317.52 368.754 317.426C368.616 317.333 368.439 317.286 368.223 317.286ZM374.797 320.336C374.917 320.336 375.035 320.326 375.152 320.305C375.269 320.282 375.376 320.254 375.473 320.223V320.918C375.371 320.963 375.24 321 375.078 321.032C374.917 321.063 374.749 321.079 374.574 321.079C374.329 321.079 374.109 321.038 373.914 320.958C373.719 320.874 373.564 320.732 373.449 320.532C373.335 320.331 373.277 320.054 373.277 319.7V317.375H372.687V316.965L373.32 316.641L373.621 315.715H374.199V316.676H375.437V317.375H374.199V319.688C374.199 319.907 374.254 320.069 374.363 320.176C374.473 320.283 374.617 320.336 374.797 320.336ZM377.269 314.922V316.45C377.269 316.609 377.264 316.764 377.254 316.915C377.246 317.066 377.237 317.183 377.227 317.266H377.277C377.368 317.115 377.48 316.991 377.613 316.895C377.746 316.796 377.894 316.722 378.059 316.672C378.225 316.623 378.402 316.598 378.59 316.598C378.921 316.598 379.202 316.654 379.434 316.766C379.665 316.875 379.842 317.046 379.965 317.278C380.09 317.51 380.152 317.81 380.152 318.18V321H379.234V318.352C379.234 318.016 379.165 317.765 379.027 317.598C378.889 317.429 378.676 317.344 378.387 317.344C378.108 317.344 377.887 317.403 377.723 317.52C377.561 317.635 377.445 317.805 377.375 318.032C377.305 318.256 377.269 318.529 377.269 318.852V321H376.352V314.922H377.269ZM383.133 316.594C383.68 316.594 384.092 316.715 384.371 316.958C384.652 317.2 384.793 317.577 384.793 318.09V321H384.141L383.965 320.387H383.934C383.811 320.543 383.685 320.672 383.555 320.774C383.424 320.875 383.273 320.951 383.102 321C382.932 321.053 382.725 321.079 382.48 321.079C382.223 321.079 381.992 321.032 381.789 320.938C381.586 320.842 381.426 320.696 381.309 320.5C381.191 320.305 381.133 320.058 381.133 319.758C381.133 319.313 381.298 318.978 381.629 318.754C381.962 318.53 382.465 318.407 383.137 318.383L383.887 318.356V318.129C383.887 317.83 383.816 317.616 383.676 317.489C383.538 317.361 383.342 317.297 383.09 317.297C382.874 317.297 382.664 317.329 382.461 317.391C382.258 317.454 382.06 317.53 381.867 317.622L381.57 316.973C381.781 316.861 382.021 316.77 382.289 316.7C382.56 316.629 382.841 316.594 383.133 316.594ZM383.883 318.934L383.324 318.954C382.866 318.969 382.544 319.047 382.359 319.188C382.174 319.329 382.082 319.521 382.082 319.766C382.082 319.98 382.146 320.136 382.273 320.235C382.401 320.331 382.569 320.379 382.777 320.379C383.095 320.379 383.358 320.29 383.566 320.11C383.777 319.928 383.883 319.661 383.883 319.309V318.934ZM388.332 316.594C388.819 316.594 389.198 316.721 389.469 316.973C389.742 317.223 389.879 317.625 389.879 318.18V321H388.961V318.352C388.961 318.016 388.892 317.765 388.754 317.598C388.616 317.429 388.402 317.344 388.113 317.344C387.694 317.344 387.402 317.473 387.238 317.731C387.077 317.989 386.996 318.362 386.996 318.852V321H386.078V316.676H386.793L386.922 317.262H386.973C387.066 317.111 387.182 316.987 387.32 316.891C387.461 316.792 387.617 316.718 387.789 316.668C387.963 316.619 388.144 316.594 388.332 316.594ZM397.019 319.747H396.246V321H395.34V319.747H392.742V319.051L395.352 315.274H396.246V318.985H397.019V319.747ZM395.34 318.985V317.567C395.34 317.45 395.341 317.331 395.344 317.211C395.349 317.089 395.354 316.972 395.359 316.86C395.365 316.748 395.37 316.645 395.375 316.551C395.38 316.455 395.384 316.375 395.387 316.313H395.355C395.306 316.417 395.251 316.524 395.191 316.633C395.131 316.74 395.068 316.844 395 316.946L393.594 318.985H395.34ZM401.391 318.141C401.391 318.602 401.354 319.015 401.281 319.379C401.211 319.741 401.099 320.049 400.945 320.301C400.792 320.554 400.591 320.747 400.344 320.879C400.096 321.012 399.797 321.079 399.445 321.079C399.005 321.079 398.642 320.963 398.355 320.731C398.069 320.497 397.857 320.161 397.719 319.723C397.581 319.283 397.512 318.756 397.512 318.141C397.512 317.527 397.574 317 397.699 316.563C397.827 316.123 398.032 315.786 398.316 315.551C398.6 315.317 398.977 315.2 399.445 315.2C399.888 315.2 400.253 315.317 400.539 315.551C400.828 315.783 401.042 316.119 401.18 316.559C401.32 316.997 401.391 317.524 401.391 318.141ZM398.437 318.141C398.437 318.623 398.469 319.025 398.531 319.348C398.596 319.671 398.703 319.913 398.852 320.075C399 320.234 399.198 320.313 399.445 320.313C399.693 320.313 399.891 320.234 400.039 320.075C400.187 319.916 400.294 319.675 400.359 319.352C400.427 319.029 400.461 318.625 400.461 318.141C400.461 317.662 400.428 317.261 400.363 316.938C400.298 316.615 400.191 316.373 400.043 316.211C399.894 316.047 399.695 315.965 399.445 315.965C399.195 315.965 398.996 316.047 398.848 316.211C398.702 316.373 398.596 316.615 398.531 316.938C398.469 317.261 398.437 317.662 398.437 318.141ZM343.707 331.079C343.298 331.079 342.944 330.999 342.644 330.84C342.345 330.681 342.115 330.438 341.953 330.11C341.792 329.782 341.711 329.365 341.711 328.86C341.711 328.334 341.799 327.904 341.977 327.571C342.154 327.237 342.398 326.991 342.711 326.833C343.026 326.674 343.387 326.594 343.793 326.594C344.051 326.594 344.284 326.62 344.492 326.672C344.703 326.722 344.881 326.783 345.027 326.856L344.754 327.59C344.595 327.525 344.432 327.471 344.266 327.426C344.099 327.382 343.939 327.36 343.785 327.36C343.532 327.36 343.322 327.416 343.152 327.528C342.986 327.64 342.861 327.806 342.777 328.028C342.697 328.249 342.656 328.524 342.656 328.852C342.656 329.17 342.698 329.438 342.781 329.657C342.865 329.873 342.988 330.037 343.152 330.149C343.316 330.258 343.518 330.313 343.758 330.313C343.995 330.313 344.207 330.284 344.394 330.227C344.582 330.17 344.759 330.096 344.926 330.004V330.801C344.762 330.895 344.586 330.964 344.398 331.008C344.211 331.055 343.98 331.079 343.707 331.079ZM349.711 326.676V331H348.988L348.863 330.418H348.812C348.721 330.567 348.605 330.691 348.465 330.79C348.324 330.886 348.168 330.958 347.996 331.004C347.824 331.054 347.643 331.079 347.453 331.079C347.128 331.079 346.849 331.024 346.617 330.915C346.388 330.803 346.212 330.631 346.09 330.399C345.967 330.167 345.906 329.868 345.906 329.5V326.676H346.828V329.329C346.828 329.665 346.896 329.916 347.031 330.083C347.169 330.249 347.383 330.333 347.672 330.333C347.95 330.333 348.172 330.275 348.336 330.161C348.5 330.046 348.616 329.877 348.684 329.653C348.754 329.429 348.789 329.154 348.789 328.829V326.676H349.711ZM353.219 326.594C353.292 326.594 353.371 326.598 353.457 326.606C353.543 326.614 353.617 326.624 353.68 326.637L353.594 327.497C353.539 327.481 353.471 327.469 353.391 327.461C353.312 327.454 353.242 327.45 353.18 327.45C353.016 327.45 352.859 327.477 352.711 327.532C352.562 327.584 352.431 327.665 352.316 327.774C352.202 327.881 352.112 328.015 352.047 328.176C351.982 328.338 351.949 328.525 351.949 328.739V331H351.027V326.676H351.746L351.871 327.438H351.914C352 327.284 352.107 327.144 352.234 327.016C352.362 326.889 352.508 326.787 352.672 326.711C352.838 326.633 353.021 326.594 353.219 326.594ZM356.672 326.594C356.745 326.594 356.824 326.598 356.91 326.606C356.996 326.614 357.07 326.624 357.133 326.637L357.047 327.497C356.992 327.481 356.924 327.469 356.844 327.461C356.766 327.454 356.695 327.45 356.633 327.45C356.469 327.45 356.312 327.477 356.164 327.532C356.016 327.584 355.884 327.665 355.769 327.774C355.655 327.881 355.565 328.015 355.5 328.176C355.435 328.338 355.402 328.525 355.402 328.739V331H354.48V326.676H355.199L355.324 327.438H355.367C355.453 327.284 355.56 327.144 355.687 327.016C355.815 326.889 355.961 326.787 356.125 326.711C356.292 326.633 356.474 326.594 356.672 326.594ZM359.656 326.594C360.042 326.594 360.372 326.674 360.648 326.833C360.924 326.991 361.137 327.217 361.285 327.508C361.434 327.8 361.508 328.149 361.508 328.555V329.047H358.621C358.631 329.467 358.743 329.79 358.957 330.016C359.173 330.243 359.475 330.356 359.863 330.356C360.139 330.356 360.387 330.33 360.605 330.278C360.827 330.223 361.055 330.144 361.289 330.04V330.786C361.073 330.887 360.853 330.961 360.629 331.008C360.405 331.055 360.137 331.079 359.824 331.079C359.4 331.079 359.026 330.997 358.703 330.833C358.383 330.666 358.131 330.418 357.949 330.09C357.769 329.762 357.68 329.355 357.68 328.868C357.68 328.383 357.762 327.972 357.926 327.633C358.09 327.295 358.32 327.037 358.617 326.86C358.914 326.683 359.26 326.594 359.656 326.594ZM359.656 327.286C359.367 327.286 359.133 327.379 358.953 327.567C358.776 327.754 358.672 328.029 358.641 328.391H360.609C360.607 328.175 360.57 327.984 360.5 327.817C360.432 327.65 360.328 327.52 360.187 327.426C360.049 327.333 359.872 327.286 359.656 327.286ZM364.797 326.594C365.284 326.594 365.663 326.721 365.934 326.973C366.207 327.223 366.344 327.625 366.344 328.18V331H365.426V328.352C365.426 328.016 365.357 327.765 365.219 327.598C365.081 327.429 364.867 327.344 364.578 327.344C364.159 327.344 363.867 327.473 363.703 327.731C363.542 327.989 363.461 328.362 363.461 328.852V331H362.543V326.676H363.258L363.387 327.262H363.437C363.531 327.111 363.647 326.987 363.785 326.891C363.926 326.792 364.082 326.718 364.254 326.668C364.428 326.619 364.609 326.594 364.797 326.594ZM369.371 331.079C368.962 331.079 368.608 330.999 368.309 330.84C368.009 330.681 367.779 330.438 367.617 330.11C367.456 329.782 367.375 329.365 367.375 328.86C367.375 328.334 367.463 327.904 367.641 327.571C367.818 327.237 368.062 326.991 368.375 326.833C368.69 326.674 369.051 326.594 369.457 326.594C369.715 326.594 369.948 326.62 370.156 326.672C370.367 326.722 370.546 326.783 370.691 326.856L370.418 327.59C370.259 327.525 370.096 327.471 369.93 327.426C369.763 327.382 369.603 327.36 369.449 327.36C369.197 327.36 368.986 327.416 368.816 327.528C368.65 327.64 368.525 327.806 368.441 328.028C368.361 328.249 368.32 328.524 368.32 328.852C368.32 329.17 368.362 329.438 368.445 329.657C368.529 329.873 368.652 330.037 368.816 330.149C368.98 330.258 369.182 330.313 369.422 330.313C369.659 330.313 369.871 330.284 370.059 330.227C370.246 330.17 370.423 330.096 370.59 330.004V330.801C370.426 330.895 370.25 330.964 370.062 331.008C369.875 331.055 369.644 331.079 369.371 331.079ZM372.523 326.676V331H371.605V326.676H372.523ZM372.07 325.02C372.211 325.02 372.332 325.058 372.434 325.133C372.538 325.209 372.59 325.339 372.59 325.524C372.59 325.706 372.538 325.836 372.434 325.915C372.332 325.99 372.211 326.028 372.07 326.028C371.924 326.028 371.801 325.99 371.699 325.915C371.6 325.836 371.551 325.706 371.551 325.524C371.551 325.339 371.6 325.209 371.699 325.133C371.801 325.058 371.924 325.02 372.07 325.02ZM375.562 326.594C375.948 326.594 376.279 326.674 376.555 326.833C376.831 326.991 377.043 327.217 377.191 327.508C377.34 327.8 377.414 328.149 377.414 328.555V329.047H374.527C374.538 329.467 374.65 329.79 374.863 330.016C375.079 330.243 375.381 330.356 375.769 330.356C376.046 330.356 376.293 330.33 376.512 330.278C376.733 330.223 376.961 330.144 377.195 330.04V330.786C376.979 330.887 376.759 330.961 376.535 331.008C376.311 331.055 376.043 331.079 375.73 331.079C375.306 331.079 374.932 330.997 374.609 330.833C374.289 330.666 374.038 330.418 373.855 330.09C373.676 329.762 373.586 329.355 373.586 328.868C373.586 328.383 373.668 327.972 373.832 327.633C373.996 327.295 374.227 327.037 374.523 326.86C374.82 326.683 375.167 326.594 375.562 326.594ZM375.562 327.286C375.273 327.286 375.039 327.379 374.859 327.567C374.682 327.754 374.578 328.029 374.547 328.391H376.516C376.513 328.175 376.477 327.984 376.406 327.817C376.338 327.65 376.234 327.52 376.094 327.426C375.956 327.333 375.779 327.286 375.562 327.286ZM381.355 329.766C381.355 330.05 381.286 330.29 381.148 330.485C381.01 330.68 380.809 330.829 380.543 330.93C380.28 331.029 379.957 331.079 379.574 331.079C379.272 331.079 379.012 331.056 378.793 331.012C378.577 330.971 378.372 330.905 378.18 330.817V330.024C378.385 330.12 378.616 330.204 378.871 330.274C379.129 330.344 379.372 330.379 379.602 330.379C379.904 330.379 380.121 330.333 380.254 330.239C380.387 330.142 380.453 330.015 380.453 329.856C380.453 329.762 380.426 329.679 380.371 329.606C380.319 329.53 380.22 329.454 380.074 329.375C379.931 329.295 379.72 329.198 379.441 329.086C379.168 328.977 378.937 328.868 378.75 328.758C378.562 328.649 378.421 328.517 378.324 328.364C378.228 328.208 378.18 328.008 378.18 327.766C378.18 327.383 378.331 327.093 378.633 326.895C378.937 326.694 379.34 326.594 379.84 326.594C380.105 326.594 380.355 326.622 380.59 326.676C380.827 326.728 381.059 326.805 381.285 326.907L380.996 327.598C380.801 327.512 380.604 327.442 380.406 327.387C380.211 327.33 380.012 327.301 379.809 327.301C379.572 327.301 379.391 327.338 379.266 327.411C379.143 327.484 379.082 327.588 379.082 327.723C379.082 327.825 379.112 327.911 379.172 327.981C379.232 328.051 379.335 328.122 379.48 328.192C379.629 328.262 379.835 328.349 380.098 328.454C380.355 328.553 380.578 328.657 380.766 328.766C380.956 328.873 381.102 329.004 381.203 329.161C381.305 329.317 381.355 329.519 381.355 329.766Z" fill="white"/>
<path d="M303.224 378.72H386.56M303.224 386.461H351.27" stroke="#9FE870" stroke-width="5" stroke-linecap="round"/>
<circle cx="180.553" cy="117.659" r="12.5527" fill="#F2F0F2"/>
<mask id="mask1_235_32367" style="mask-type:alpha" maskUnits="userSpaceOnUse" x="168" y="105" width="26" height="26">
<circle cx="180.553" cy="117.66" r="12.5527" fill="#FCFCFC"/>
</mask>
<g mask="url(#mask1_235_32367)">
<rect x="172.079" y="127.387" width="17.26" height="3.13818" fill="#D90026"/>
<rect x="172.079" y="127.387" width="17.26" height="3.13818" fill="#D90026"/>
<rect x="168.313" y="121.111" width="24.7916" height="3.13818" fill="#D90026"/>
<rect x="168.313" y="121.111" width="24.7916" height="3.13818" fill="#D90026"/>
<rect x="168.313" y="114.521" width="24.7916" height="3.13818" fill="#D90026"/>
<rect x="168.313" y="114.521" width="24.7916" height="3.13818" fill="#D90026"/>
<rect x="168.313" y="108.245" width="24.7916" height="3.13818" fill="#D90026"/>
<rect x="168.313" y="108.245" width="24.7916" height="3.13818" fill="#D90026"/>
<rect x="168" y="105.107" width="12.8665" height="12.5527" fill="#0052B5"/>
<path d="M178.356 115.619L177.415 116.09L177.729 115.149L177.101 114.521H178.042L178.356 113.58L178.827 114.521H179.611L178.984 115.149L179.298 116.09L178.356 115.619Z" fill="#EFEFEF"/>
<path d="M173.963 115.619L173.022 116.09L173.335 115.149L172.708 114.521H173.649L173.963 113.58L174.434 114.521H175.218L174.591 115.149L174.905 116.09L173.963 115.619Z" fill="#EFEFEF"/>
<path d="M169.568 115.619L168.627 116.09L168.941 115.149L168.313 114.521H169.254L169.568 113.58L170.039 114.521H170.823L170.196 115.149L170.51 116.09L169.568 115.619Z" fill="#EFEFEF"/>
<path d="M178.356 112.168L177.415 112.639L177.729 111.698L177.101 111.07H178.042L178.356 110.128L178.827 111.07H179.611L178.984 111.698L179.298 112.639L178.356 112.168Z" fill="#EFEFEF"/>
<path d="M178.356 108.715L177.415 109.186L177.729 108.244L177.101 107.617H178.042L178.356 106.675L178.827 107.617H179.611L178.984 108.244L179.298 109.186L178.356 108.715Z" fill="#EFEFEF"/>
<path d="M178.356 105.263L177.415 105.734L177.729 104.793L177.101 104.165H178.042L178.356 103.224L178.827 104.165H179.611L178.984 104.793L179.298 105.734L178.356 105.263Z" fill="#EFEFEF"/>
<path d="M173.963 108.715L173.022 109.186L173.335 108.244L172.708 107.617H173.649L173.963 106.675L174.434 107.617H175.218L174.591 108.244L174.905 109.186L173.963 108.715Z" fill="#EFEFEF"/>
<path d="M173.963 112.168L173.022 112.639L173.335 111.698L172.708 111.07H173.649L173.963 110.128L174.434 111.07H175.218L174.591 111.698L174.905 112.639L173.963 112.168Z" fill="#EFEFEF"/>
<path d="M169.568 112.168L168.627 112.639L168.941 111.698L168.313 111.07H169.254L169.568 110.128L170.039 111.07H170.823L170.196 111.698L170.51 112.639L169.568 112.168Z" fill="#EFEFEF"/>
</g>
<circle cx="196.5" cy="116.5" r="13.5" fill="white"/>
<path d="M138.41 139.455C138.41 149.246 130.253 157.183 120.19 157.183C110.127 157.183 101.97 149.246 101.97 139.455C101.97 129.665 110.127 121.728 120.19 121.728C130.253 121.728 138.41 129.665 138.41 139.455Z" fill="url(#paint1_linear_235_32367)"/>
<defs>
<filter id="filter0_d_235_32367" x="0.628113" y="0" width="278.198" height="307.798" filterUnits="userSpaceOnUse" color-interpolation-filters="sRGB">
<feFlood flood-opacity="0" result="BackgroundImageFix"/>
<feColorMatrix in="SourceAlpha" type="matrix" values="0 0 0 0 0 0 0 0 0 0 0 0 0 0 0 0 0 0 127 0" result="hardAlpha"/>
<feOffset dx="-18" dy="22"/>
<feGaussianBlur stdDeviation="30.5"/>
<feComposite in2="hardAlpha" operator="out"/>
<feColorMatrix type="matrix" values="0 0 0 0 0.629167 0 0 0 0 0.629167 0 0 0 0 0.629167 0 0 0 0.25 0"/>
<feBlend mode="normal" in2="BackgroundImageFix" result="effect1_dropShadow_235_32367"/>
<feBlend mode="normal" in="SourceGraphic" in2="effect1_dropShadow_235_32367" result="shape"/>
</filter>
<filter id="filter1_d_235_32367" x="38.8804" y="226.784" width="278.198" height="156.154" filterUnits="userSpaceOnUse" color-interpolation-filters="sRGB">
<feFlood flood-opacity="0" result="BackgroundImageFix"/>
<feColorMatrix in="SourceAlpha" type="matrix" values="0 0 0 0 0 0 0 0 0 0 0 0 0 0 0 0 0 0 127 0" result="hardAlpha"/>
<feOffset dx="-18" dy="22"/>
<feGaussianBlur stdDeviation="30.5"/>
<feComposite in2="hardAlpha" operator="out"/>
<feColorMatrix type="matrix" values="0 0 0 0 0.629167 0 0 0 0 0.629167 0 0 0 0 0.629167 0 0 0 0.25 0"/>
<feBlend mode="normal" in2="BackgroundImageFix" result="effect1_dropShadow_235_32367"/>
<feBlend mode="normal" in="SourceGraphic" in2="effect1_dropShadow_235_32367" result="shape"/>
</filter>
<filter id="filter2_d_235_32367" x="65.7487" y="293.726" width="141.582" height="141.582" filterUnits="userSpaceOnUse" color-interpolation-filters="sRGB">
<feFlood flood-opacity="0" result="BackgroundImageFix"/>
<feColorMatrix in="SourceAlpha" type="matrix" values="0 0 0 0 0 0 0 0 0 0 0 0 0 0 0 0 0 0 127 0" result="hardAlpha"/>
<feOffset dx="-18" dy="22"/>
<feGaussianBlur stdDeviation="30.5"/>
<feComposite in2="hardAlpha" operator="out"/>
<feColorMatrix type="matrix" values="0 0 0 0 0.629167 0 0 0 0 0.629167 0 0 0 0 0.629167 0 0 0 0.25 0"/>
<feBlend mode="normal" in2="BackgroundImageFix" result="effect1_dropShadow_235_32367"/>
<feBlend mode="normal" in="SourceGraphic" in2="effect1_dropShadow_235_32367" result="shape"/>
</filter>
<filter id="filter3_d_235_32367" x="66.2039" y="322.87" width="141.582" height="141.582" filterUnits="userSpaceOnUse" color-interpolation-filters="sRGB">
<feFlood flood-opacity="0" result="BackgroundImageFix"/>
<feColorMatrix in="SourceAlpha" type="matrix" values="0 0 0 0 0 0 0 0 0 0 0 0 0 0 0 0 0 0 127 0" result="hardAlpha"/>
<feOffset dx="-18" dy="22"/>
<feGaussianBlur stdDeviation="30.5"/>
<feComposite in2="hardAlpha" operator="out"/>
<feColorMatrix type="matrix" values="0 0 0 0 0.629167 0 0 0 0 0.629167 0 0 0 0 0.629167 0 0 0 0.25 0"/>
<feBlend mode="normal" in2="BackgroundImageFix" result="effect1_dropShadow_235_32367"/>
<feBlend mode="normal" in="SourceGraphic" in2="effect1_dropShadow_235_32367" result="shape"/>
</filter>
<filter id="filter4_d_235_32367" x="206.464" y="214.033" width="278.198" height="300.967" filterUnits="userSpaceOnUse" color-interpolation-filters="sRGB">
<feFlood flood-opacity="0" result="BackgroundImageFix"/>
<feColorMatrix in="SourceAlpha" type="matrix" values="0 0 0 0 0 0 0 0 0 0 0 0 0 0 0 0 0 0 127 0" result="hardAlpha"/>
<feOffset dx="-18" dy="22"/>
<feGaussianBlur stdDeviation="30.5"/>
<feComposite in2="hardAlpha" operator="out"/>
<feColorMatrix type="matrix" values="0 0 0 0 0.629167 0 0 0 0 0.629167 0 0 0 0 0.629167 0 0 0 0.25 0"/>
<feBlend mode="normal" in2="BackgroundImageFix" result="effect1_dropShadow_235_32367"/>
<feBlend mode="normal" in="SourceGraphic" in2="effect1_dropShadow_235_32367" result="shape"/>
</filter>
<linearGradient id="paint0_linear_235_32367" x1="182.107" y1="181.278" x2="203.881" y2="203.564" gradientUnits="userSpaceOnUse">
<stop stop-color="#FF4747"/>
<stop offset="1" stop-color="#FF65CB"/>
</linearGradient>
<linearGradient id="paint1_linear_235_32367" x1="120.19" y1="121.728" x2="120.19" y2="157.183" gradientUnits="userSpaceOnUse">
<stop stop-color="white" stop-opacity="0.5"/>
<stop offset="1" stop-color="white" stop-opacity="0"/>
</linearGradient>
<clipPath id="clip0_235_32367">
<rect width="15" height="15" fill="white" transform="translate(183 182)"/>
</clipPath>
<clipPath id="clip1_235_32367">
<rect width="15" height="15" fill="white" transform="translate(183 232)"/>
</clipPath>
<clipPath id="clip2_235_32367">
<rect width="15" height="15" fill="white" transform="translate(132 276)"/>
</clipPath>
</defs>
</svg>
