<svg width="239" height="35" viewBox="0 0 239 35" fill="none" xmlns="http://www.w3.org/2000/svg">
<rect y="8.71289" width="72.0863" height="19.0845" rx="9.54225" fill="#B90B0B"/>
<path d="M30.7821 20.2005H29.9871V15.2523H27.8486V14.6865H32.9112V15.2523H30.7821V20.2005Z" fill="white"/>
<path d="M38.2156 18.1262C38.2156 18.4656 38.1613 18.7686 38.0528 19.0351C37.9444 19.3016 37.7879 19.5267 37.5833 19.7102C37.3788 19.8938 37.1308 20.0346 36.8395 20.1326C36.5513 20.2282 36.2243 20.2759 35.8586 20.2759C35.5177 20.2759 35.2047 20.2282 34.9195 20.1326C34.6375 20.0346 34.3927 19.8938 34.185 19.7102C33.9805 19.5267 33.8208 19.3016 33.7062 19.0351C33.5946 18.7686 33.5388 18.4656 33.5388 18.1262C33.5388 17.6736 33.6333 17.2889 33.8224 16.9721C34.0115 16.6527 34.2811 16.4101 34.6313 16.2442C34.9846 16.0757 35.4046 15.9915 35.8911 15.9915C36.356 15.9915 36.762 16.0757 37.1091 16.2442C37.4593 16.4126 37.7305 16.6565 37.9227 16.9758C38.1179 17.2927 38.2156 17.6761 38.2156 18.1262ZM34.3384 18.1262C34.3384 18.4581 34.3927 18.7459 34.5011 18.9898C34.6096 19.2337 34.777 19.4223 35.0032 19.5556C35.2295 19.6888 35.5208 19.7555 35.8772 19.7555C36.2305 19.7555 36.5203 19.6888 36.7465 19.5556C36.9759 19.4223 37.1448 19.2337 37.2532 18.9898C37.3617 18.7459 37.416 18.4581 37.416 18.1262C37.416 17.7968 37.3617 17.5127 37.2532 17.2738C37.1448 17.0324 36.9774 16.8464 36.7512 16.7156C36.5249 16.5849 36.2321 16.5195 35.8725 16.5195C35.3426 16.5195 34.9536 16.6615 34.7057 16.9457C34.4608 17.2298 34.3384 17.6233 34.3384 18.1262Z" fill="white"/>
<path d="M41.9439 15.9915C42.5793 15.9915 43.086 16.1687 43.4641 16.5233C43.8422 16.8778 44.0313 17.4108 44.0313 18.1224C44.0313 18.5926 43.9445 18.9873 43.7709 19.3067C43.5974 19.626 43.3525 19.8674 43.0364 20.0308C42.7234 20.1942 42.353 20.2759 41.9253 20.2759C41.6557 20.2759 41.4186 20.247 41.2141 20.1892C41.0095 20.1314 40.8344 20.0534 40.6887 19.9554C40.5431 19.8573 40.4222 19.7504 40.3261 19.6348H40.2703C40.2796 19.7328 40.2905 19.851 40.3029 19.9893C40.3184 20.1276 40.3261 20.2483 40.3261 20.3514V22.0486H39.5498V16.0669H40.1867L40.2889 16.6779H40.3261C40.4253 16.5522 40.5462 16.4378 40.6887 16.3347C40.8313 16.2291 41.0049 16.1461 41.2094 16.0858C41.4171 16.0229 41.6619 15.9915 41.9439 15.9915ZM41.8091 16.5195C41.4558 16.5195 41.1707 16.5748 40.9537 16.6854C40.7399 16.7961 40.5834 16.962 40.4842 17.1833C40.385 17.402 40.3323 17.6773 40.3261 18.0092V18.1299C40.3261 18.4794 40.3726 18.7749 40.4656 19.0162C40.5617 19.2576 40.7182 19.4412 40.9351 19.5669C41.1552 19.6926 41.4496 19.7555 41.8184 19.7555C42.1345 19.7555 42.398 19.6863 42.6087 19.548C42.8195 19.4097 42.976 19.2174 43.0783 18.971C43.1836 18.7221 43.2363 18.4367 43.2363 18.1148C43.2363 17.6271 43.1185 17.2399 42.883 16.9532C42.6506 16.6641 42.2926 16.5195 41.8091 16.5195Z" fill="white"/>
<path d="M52.0598 16.0669V20.2005H51.4276L51.316 19.6197H51.2742C51.1688 19.763 51.0324 19.8837 50.8651 19.9818C50.6977 20.0798 50.5087 20.1527 50.2979 20.2005C50.0903 20.2508 49.8687 20.2759 49.6331 20.2759C49.2302 20.2759 48.8924 20.2231 48.6197 20.1175C48.3469 20.0119 48.1408 19.8485 48.0014 19.6272C47.865 19.406 47.7968 19.1218 47.7968 18.7749V16.0669H48.5778V18.7296C48.5778 19.0741 48.6739 19.3318 48.8661 19.5028C49.0582 19.6712 49.3511 19.7555 49.7447 19.7555C50.1228 19.7555 50.4234 19.6976 50.6466 19.582C50.8728 19.4663 51.0355 19.2966 51.1347 19.0728C51.2339 18.8465 51.2835 18.5699 51.2835 18.2431V16.0669H52.0598Z" fill="white"/>
<path d="M56.0857 15.9915C56.7211 15.9915 57.2278 16.1687 57.6059 16.5233C57.984 16.8778 58.1731 17.4108 58.1731 18.1224C58.1731 18.5926 58.0863 18.9873 57.9127 19.3067C57.7392 19.626 57.4943 19.8674 57.1782 20.0308C56.8652 20.1942 56.4948 20.2759 56.0671 20.2759C55.7975 20.2759 55.5604 20.247 55.3559 20.1892C55.1513 20.1314 54.9762 20.0534 54.8305 19.9554C54.6849 19.8573 54.564 19.7504 54.4679 19.6348H54.4121C54.4214 19.7328 54.4323 19.851 54.4447 19.9893C54.4602 20.1276 54.4679 20.2483 54.4679 20.3514V22.0486H53.6916V16.0669H54.3285L54.4307 16.6779H54.4679C54.5671 16.5522 54.688 16.4378 54.8305 16.3347C54.9731 16.2291 55.1467 16.1461 55.3512 16.0858C55.5589 16.0229 55.8037 15.9915 56.0857 15.9915ZM55.9509 16.5195C55.5976 16.5195 55.3125 16.5748 55.0955 16.6854C54.8817 16.7961 54.7252 16.962 54.626 17.1833C54.5268 17.402 54.4741 17.6773 54.4679 18.0092V18.1299C54.4679 18.4794 54.5144 18.7749 54.6074 19.0162C54.7035 19.2576 54.86 19.4412 55.0769 19.5669C55.297 19.6926 55.5914 19.7555 55.9602 19.7555C56.2763 19.7555 56.5398 19.6863 56.7505 19.548C56.9613 19.4097 57.1178 19.2174 57.22 18.971C57.3254 18.7221 57.3781 18.4367 57.3781 18.1148C57.3781 17.6271 57.2603 17.2399 57.0248 16.9532C56.7923 16.6641 56.4344 16.5195 55.9509 16.5195Z" fill="white"/>
<path d="M20.0418 22.43C17.6019 22.43 15.6187 20.6345 15.6187 18.4255C15.6187 16.2164 17.6019 14.4209 20.0418 14.4209C20.2105 14.4209 20.3504 14.5476 20.3504 14.7003C20.3504 14.853 20.2105 14.9797 20.0418 14.9797C17.9434 14.9797 16.2358 16.5256 16.2358 18.4255C16.2358 20.3253 17.9434 21.8713 20.0418 21.8713C22.1403 21.8713 23.8478 20.3253 23.8478 18.4255C23.8478 18.2727 23.9877 18.1461 24.1564 18.1461C24.3251 18.1461 24.465 18.2727 24.465 18.4255C24.465 20.6345 22.4818 22.43 20.0418 22.43Z" fill="white"/>
<rect x="78.207" y="8.71289" width="72.0863" height="19.0845" rx="9.54225" fill="#B90B0B"/>
<path d="M93.4934 19.9319H92.6411C92.0381 19.9319 91.5439 19.5199 91.5439 19.0123C91.5439 18.8615 91.6981 18.7365 91.884 18.7365C92.0699 18.7365 92.224 18.8615 92.224 19.0123C92.224 19.2146 92.4099 19.3801 92.6411 19.3801H93.4934C93.6703 19.3801 93.8108 19.2514 93.8108 19.0932C93.8108 18.8946 93.7428 18.8652 93.5887 18.8211L92.224 18.4348C91.9338 18.3503 91.5439 18.1811 91.5439 17.6404C91.5439 17.1806 91.9928 16.8018 92.5414 16.8018H93.3937C93.9967 16.8018 94.4909 17.2137 94.4909 17.7213C94.4909 17.8721 94.3367 17.9972 94.1508 17.9972C93.965 17.9972 93.8108 17.8721 93.8108 17.7213C93.8108 17.519 93.6249 17.3535 93.3937 17.3535H92.5414C92.3646 17.3535 92.224 17.4822 92.224 17.6404C92.224 17.839 92.292 17.8684 92.4462 17.9126L93.8108 18.2988C94.101 18.3834 94.4909 18.5526 94.4909 19.0932C94.4909 19.5567 94.042 19.9319 93.4934 19.9319Z" fill="white"/>
<path d="M93.0178 20.3C92.8319 20.3 92.6777 20.175 92.6777 20.0242V16.7138C92.6777 16.563 92.8319 16.438 93.0178 16.438C93.2036 16.438 93.3578 16.563 93.3578 16.7138V20.0242C93.3578 20.175 93.2036 20.3 93.0178 20.3Z" fill="white"/>
<path d="M93.0178 22.323C90.3293 22.323 88.144 20.5502 88.144 18.369C88.144 16.1879 90.3293 14.415 93.0178 14.415C93.2037 14.415 93.3578 14.5401 93.3578 14.6909C93.3578 14.8417 93.2037 14.9668 93.0178 14.9668C90.7056 14.9668 88.8241 16.4932 88.8241 18.369C88.8241 20.2449 90.7056 21.7713 93.0178 21.7713C95.33 21.7713 97.2115 20.2449 97.2115 18.369C97.2115 18.2182 97.3657 18.0932 97.5515 18.0932C97.7374 18.0932 97.8916 18.2182 97.8916 18.369C97.8916 20.5502 95.7063 22.323 93.0178 22.323Z" fill="white"/>
<path d="M97.5515 16.438C97.3656 16.438 97.2114 16.313 97.2114 16.1622V14.9668H95.738C95.5521 14.9668 95.3979 14.8417 95.3979 14.6909C95.3979 14.5401 95.5521 14.415 95.738 14.415H97.5515C97.7374 14.415 97.8915 14.5401 97.8915 14.6909V16.1622C97.8915 16.313 97.7374 16.438 97.5515 16.438Z" fill="white"/>
<path d="M95.2847 16.8054C95.1986 16.8054 95.1124 16.7797 95.0444 16.7245C94.9129 16.6178 94.9129 16.4413 95.0444 16.3346L97.3113 14.4955C97.4428 14.3889 97.6604 14.3889 97.7918 14.4955C97.9233 14.6022 97.9233 14.7787 97.7918 14.8854L95.525 16.7245C95.457 16.7797 95.3708 16.8054 95.2847 16.8054Z" fill="white"/>
<path d="M106.832 21.286H106.037V16.3377H103.898V15.772H108.961V16.3377H106.832V21.286Z" fill="white"/>
<path d="M112.187 17.0769C112.29 17.0769 112.397 17.082 112.508 17.092C112.62 17.0996 112.719 17.1109 112.806 17.126L112.708 17.7068C112.624 17.6892 112.531 17.6754 112.429 17.6653C112.327 17.6552 112.231 17.6502 112.141 17.6502C111.936 17.6502 111.743 17.6842 111.56 17.752C111.38 17.8174 111.222 17.913 111.086 18.0387C110.949 18.1619 110.842 18.3115 110.765 18.4875C110.687 18.661 110.649 18.8546 110.649 19.0683V21.286H109.872V17.1524H110.514L110.597 17.9142H110.63C110.735 17.7608 110.862 17.6213 111.011 17.4956C111.16 17.3673 111.332 17.2655 111.527 17.1901C111.726 17.1147 111.946 17.0769 112.187 17.0769Z" fill="white"/>
<path d="M115.674 17.0845C116.281 17.0845 116.732 17.1951 117.027 17.4164C117.321 17.6376 117.468 17.9909 117.468 18.4762V21.286H116.906L116.757 20.675H116.72C116.577 20.8258 116.429 20.9528 116.274 21.0559C116.119 21.1565 115.939 21.2332 115.734 21.286C115.533 21.3363 115.285 21.3614 114.991 21.3614C114.681 21.3614 114.405 21.3174 114.163 21.2294C113.924 21.1414 113.735 21.0081 113.596 20.8296C113.46 20.6511 113.391 20.4248 113.391 20.1507C113.391 19.7384 113.593 19.4216 113.996 19.2003C114.399 18.979 115.012 18.8584 115.837 18.8382L116.715 18.8081V18.5554C116.715 18.1983 116.621 17.9482 116.432 17.8048C116.243 17.6615 115.976 17.5899 115.632 17.5899C115.366 17.5899 115.111 17.6213 114.87 17.6842C114.628 17.747 114.399 17.8212 114.182 17.9067L113.945 17.4315C114.174 17.3359 114.437 17.2542 114.735 17.1863C115.032 17.1184 115.345 17.0845 115.674 17.0845ZM116.706 19.2493L115.93 19.2757C115.294 19.2959 114.846 19.3801 114.586 19.5284C114.326 19.6768 114.196 19.8867 114.196 20.1583C114.196 20.3946 114.284 20.5694 114.461 20.6825C114.637 20.7957 114.871 20.8522 115.163 20.8522C115.615 20.8522 115.985 20.7504 116.274 20.5467C116.562 20.3431 116.706 20.0376 116.706 19.6303V19.2493Z" fill="white"/>
<path d="M121.471 17.0769C122.075 17.0769 122.533 17.1976 122.842 17.439C123.152 17.6779 123.307 18.0626 123.307 18.5931V21.286H122.545V18.6346C122.545 18.2901 122.447 18.0324 122.252 17.8614C122.06 17.6904 121.764 17.605 121.364 17.605C120.8 17.605 120.403 17.7344 120.174 17.9934C119.945 18.2524 119.83 18.6283 119.83 19.1211V21.286H119.058V17.1524H119.681L119.797 17.7483H119.839C119.948 17.6024 120.086 17.4805 120.253 17.3824C120.42 17.2819 120.608 17.2064 120.816 17.1561C121.023 17.1033 121.242 17.0769 121.471 17.0769Z" fill="white"/>
<path d="M128.193 20.1545C128.193 20.4185 128.111 20.641 127.947 20.8221C127.786 21.0006 127.553 21.1351 127.25 21.2256C126.949 21.3161 126.589 21.3614 126.171 21.3614C125.815 21.3614 125.506 21.3388 125.246 21.2935C124.986 21.2483 124.758 21.1841 124.563 21.1012V20.5241C124.77 20.6071 125.018 20.6825 125.306 20.7504C125.595 20.8183 125.889 20.8522 126.19 20.8522C126.63 20.8522 126.949 20.7944 127.147 20.6788C127.346 20.5631 127.445 20.4059 127.445 20.2073C127.445 20.0942 127.405 19.9948 127.324 19.9094C127.246 19.8214 127.115 19.7371 126.929 19.6567C126.743 19.5737 126.486 19.4832 126.157 19.3851C125.832 19.2845 125.55 19.1852 125.311 19.0872C125.075 18.9866 124.893 18.8646 124.762 18.7213C124.635 18.578 124.572 18.3919 124.572 18.1631C124.572 17.8136 124.745 17.5459 125.093 17.3598C125.443 17.1712 125.901 17.0769 126.469 17.0769C126.775 17.0769 127.062 17.1021 127.329 17.1524C127.598 17.2001 127.849 17.2655 128.082 17.3485L127.821 17.8501C127.611 17.7772 127.386 17.7156 127.147 17.6653C126.909 17.615 126.665 17.5899 126.417 17.5899C126.061 17.5899 125.787 17.6376 125.595 17.7332C125.406 17.8287 125.311 17.9595 125.311 18.1254C125.311 18.2537 125.354 18.3593 125.441 18.4422C125.531 18.5252 125.674 18.6032 125.869 18.6761C126.064 18.749 126.321 18.8345 126.641 18.9325C126.96 19.0281 127.236 19.1274 127.468 19.2305C127.701 19.3311 127.879 19.4543 128.003 19.6001C128.13 19.7434 128.193 19.9282 128.193 20.1545Z" fill="white"/>
<path d="M131.703 17.6427H130.434V21.286H129.662V17.6427H128.76V17.3409L129.662 17.1335V16.8582C129.662 16.5112 129.726 16.2296 129.853 16.0134C129.98 15.7946 130.164 15.6337 130.406 15.5306C130.648 15.4275 130.942 15.376 131.289 15.376C131.485 15.376 131.663 15.3898 131.824 15.4175C131.988 15.4451 132.132 15.4766 132.256 15.5118L132.056 16.0058C131.951 15.9782 131.832 15.953 131.699 15.9304C131.568 15.9052 131.435 15.8927 131.299 15.8927C131.004 15.8927 130.786 15.9706 130.643 16.1265C130.504 16.2799 130.434 16.5213 130.434 16.8506V17.1524H131.703V17.6427Z" fill="white"/>
<path d="M134.604 17.0769C135.038 17.0769 135.41 17.1549 135.72 17.3108C136.03 17.4667 136.267 17.6854 136.431 17.967C136.595 18.2461 136.677 18.573 136.677 18.9476V19.3361H133.158C133.168 19.8214 133.316 20.191 133.605 20.4449C133.893 20.6989 134.299 20.8258 134.823 20.8258C135.145 20.8258 135.43 20.802 135.678 20.7542C135.926 20.7064 136.183 20.636 136.45 20.543V21.0936C136.192 21.1867 135.937 21.2545 135.683 21.2973C135.432 21.34 135.134 21.3614 134.79 21.3614C134.3 21.3614 133.873 21.2809 133.507 21.12C133.144 20.9566 132.862 20.7177 132.661 20.4034C132.459 20.0891 132.359 19.7044 132.359 19.2493C132.359 18.8043 132.45 18.4196 132.633 18.0953C132.819 17.7684 133.079 17.5169 133.414 17.3409C133.752 17.1649 134.148 17.0769 134.604 17.0769ZM134.595 17.5899C134.183 17.5899 133.854 17.6992 133.609 17.918C133.364 18.1367 133.219 18.4422 133.172 18.8345H135.869C135.865 18.5881 135.817 18.3718 135.724 18.1858C135.635 17.9972 135.497 17.8514 135.311 17.7483C135.125 17.6427 134.886 17.5899 134.595 17.5899Z" fill="white"/>
<path d="M140.304 17.0769C140.406 17.0769 140.513 17.082 140.624 17.092C140.736 17.0996 140.835 17.1109 140.922 17.126L140.824 17.7068C140.741 17.6892 140.648 17.6754 140.545 17.6653C140.443 17.6552 140.347 17.6502 140.257 17.6502C140.053 17.6502 139.859 17.6842 139.676 17.752C139.496 17.8174 139.338 17.913 139.202 18.0387C139.065 18.1619 138.958 18.3115 138.881 18.4875C138.804 18.661 138.765 18.8546 138.765 19.0683V21.286H137.988V17.1524H138.63L138.714 17.9142H138.746C138.852 17.7608 138.979 17.6213 139.127 17.4956C139.276 17.3673 139.448 17.2655 139.643 17.1901C139.842 17.1147 140.062 17.0769 140.304 17.0769Z" fill="white"/>
<rect x="156.414" y="8.71289" width="72.0863" height="19.0845" rx="9.54225" fill="#B90B0B"/>
<path d="M173.039 22.5664C172.917 22.5664 172.803 22.5112 172.744 22.4266C172.685 22.342 172.685 22.2354 172.749 22.1508L173.225 21.5071C173.32 21.3747 173.529 21.3342 173.692 21.4114C173.855 21.4887 173.905 21.6579 173.81 21.7903L173.687 21.9558C174.939 21.7167 175.877 20.8045 175.877 19.7158C175.877 19.565 176.031 19.4399 176.217 19.4399C176.403 19.4399 176.557 19.565 176.557 19.7158C176.553 21.2864 174.975 22.5664 173.039 22.5664Z" fill="white"/>
<path d="M166.238 17.0493C166.053 17.0493 165.898 16.9242 165.898 16.7734C165.898 15.2028 167.476 13.9229 169.412 13.9229C169.534 13.9229 169.648 13.978 169.707 14.0626C169.766 14.1472 169.766 14.2539 169.702 14.3385L169.226 14.9822C169.131 15.1146 168.922 15.155 168.759 15.0778C168.596 15.0006 168.546 14.8314 168.641 14.699L168.764 14.5334C167.512 14.7725 166.574 15.6847 166.574 16.7734C166.578 16.9242 166.424 17.0493 166.238 17.0493Z" fill="white"/>
<path d="M170.06 19.7563H168.786C168.6 19.7563 168.446 19.6312 168.446 19.4804V18.6528C168.446 18.502 168.6 18.377 168.786 18.377H170.06C170.514 18.377 170.913 18.7006 170.913 19.0684C170.913 19.4436 170.527 19.7563 170.06 19.7563ZM169.126 19.2045H170.06C170.156 19.2045 170.233 19.142 170.233 19.0648C170.233 19.0096 170.156 18.925 170.06 18.925H169.126V19.2045Z" fill="white"/>
<path d="M170.242 20.5839H168.782C168.596 20.5839 168.442 20.4588 168.442 20.308V19.4805C168.442 19.3296 168.596 19.2046 168.782 19.2046H170.242C170.75 19.2046 171.167 19.5136 171.167 19.8961C171.167 20.2786 170.754 20.5839 170.242 20.5839ZM169.126 20.0322H170.246C170.391 20.0322 170.491 19.9586 170.491 19.8924C170.491 19.8262 170.391 19.7526 170.246 19.7526H169.126V20.0322Z" fill="white"/>
<path d="M169.603 20.9957C169.417 20.9957 169.263 20.8706 169.263 20.7198V20.3042C169.263 20.1534 169.417 20.0283 169.603 20.0283C169.789 20.0283 169.943 20.1534 169.943 20.3042V20.7198C169.943 20.8743 169.789 20.9957 169.603 20.9957Z" fill="white"/>
<path d="M169.603 18.9249C169.417 18.9249 169.263 18.7998 169.263 18.649V18.2334C169.263 18.0826 169.417 17.9575 169.603 17.9575C169.789 17.9575 169.943 18.0826 169.943 18.2334V18.649C169.943 18.8035 169.789 18.9249 169.603 18.9249Z" fill="white"/>
<path d="M169.716 22.0256C167.984 22.0256 166.579 20.8817 166.579 19.4803C166.579 18.079 167.989 16.9351 169.716 16.9351C169.798 16.9351 169.87 16.9387 169.952 16.9424C171.489 17.0381 172.731 18.0459 172.844 19.2854C172.849 19.3663 172.853 19.4215 172.853 19.4803C172.858 20.8817 171.448 22.0256 169.716 22.0256ZM169.716 17.4831C168.36 17.4831 167.259 18.3769 167.259 19.4767C167.259 20.5764 168.36 21.4702 169.716 21.4702C171.072 21.4702 172.178 20.5764 172.178 19.4767C172.178 19.4289 172.173 19.381 172.169 19.3332C172.078 18.3475 171.103 17.5603 169.906 17.4868C169.847 17.4868 169.784 17.4831 169.716 17.4831Z" fill="white"/>
<path d="M172.735 19.5798H172.513C172.337 19.5798 172.187 19.4694 172.173 19.326C172.083 18.3513 171.112 17.5642 169.911 17.4906C169.734 17.4796 169.598 17.3582 169.598 17.2148V17.0345C169.598 15.6295 171.008 14.4893 172.74 14.4893C174.472 14.4893 175.877 15.6332 175.877 17.0345C175.877 18.4359 174.463 19.5798 172.735 19.5798ZM170.274 16.972C171.552 17.1596 172.577 17.9872 172.808 19.0281C174.132 18.995 175.193 18.1122 175.193 17.0345C175.193 15.9348 174.091 15.041 172.735 15.041C171.403 15.0373 170.314 15.898 170.274 16.972Z" fill="white"/>
<path d="M190.618 15.6387L188.801 21.1527H188.006L186.658 17.4415C186.617 17.3359 186.579 17.2303 186.541 17.1247C186.507 17.0166 186.475 16.9147 186.444 16.8192C186.413 16.7211 186.386 16.6356 186.365 16.5627C186.346 16.4873 186.332 16.4307 186.323 16.393C186.317 16.4307 186.304 16.486 186.286 16.559C186.27 16.6319 186.249 16.7161 186.221 16.8117C186.196 16.9072 186.165 17.009 186.128 17.1171C186.094 17.2253 186.056 17.3346 186.016 17.4453L184.705 21.1527H183.91L182.106 15.6387H182.929L184.022 19.0972C184.059 19.2129 184.093 19.3273 184.124 19.4404C184.158 19.551 184.188 19.6592 184.212 19.7648C184.24 19.8704 184.265 19.9735 184.287 20.074C184.308 20.1746 184.329 20.2727 184.347 20.3682C184.363 20.2701 184.383 20.1683 184.408 20.0627C184.432 19.9546 184.459 19.8452 184.487 19.7346C184.518 19.624 184.55 19.5121 184.584 19.3989C184.621 19.2858 184.66 19.1726 184.701 19.0595L185.923 15.6387H186.737L188.01 19.0859C188.054 19.2041 188.094 19.321 188.131 19.4366C188.169 19.5523 188.201 19.6654 188.229 19.7761C188.26 19.8842 188.286 19.9885 188.308 20.0891C188.333 20.1872 188.354 20.2802 188.373 20.3682C188.395 20.245 188.421 20.1155 188.452 19.9797C188.483 19.844 188.519 19.7019 188.559 19.5536C188.602 19.4052 188.649 19.2518 188.699 19.0934L189.791 15.6387H190.618Z" fill="white"/>
<path d="M192.348 17.0191V21.1527H191.576V17.0191H192.348ZM191.971 15.4728C192.098 15.4728 192.207 15.5067 192.297 15.5746C192.39 15.64 192.436 15.743 192.436 15.8839C192.436 16.0221 192.39 16.1252 192.297 16.1931C192.207 16.261 192.098 16.295 191.971 16.295C191.838 16.295 191.726 16.261 191.637 16.1931C191.55 16.1252 191.506 16.0221 191.506 15.8839C191.506 15.743 191.55 15.64 191.637 15.5746C191.726 15.5067 191.838 15.4728 191.971 15.4728Z" fill="white"/>
<path d="M195.63 20.7152C195.757 20.7152 195.887 20.7064 196.02 20.6888C196.154 20.6712 196.262 20.6498 196.346 20.6247V21.1112C196.256 21.1439 196.13 21.1715 195.969 21.1942C195.811 21.2168 195.656 21.2281 195.504 21.2281C195.235 21.2281 194.99 21.1904 194.77 21.115C194.55 21.037 194.373 20.9063 194.24 20.7227C194.11 20.5392 194.045 20.2852 194.045 19.9609V17.5094H193.319V17.2039L194.049 16.9587L194.356 16.0611H194.821V17.0191H196.313V17.5094H194.821V19.942C194.821 20.201 194.894 20.3946 195.04 20.5228C195.188 20.6511 195.385 20.7152 195.63 20.7152Z" fill="white"/>
<path d="M198.15 15.2842V17.0379C198.15 17.1385 198.147 17.2403 198.14 17.3434C198.134 17.444 198.123 17.537 198.108 17.6225H198.159C198.264 17.4767 198.398 17.3548 198.559 17.2567C198.723 17.1561 198.909 17.0807 199.117 17.0304C199.324 16.9776 199.544 16.9512 199.777 16.9512C200.186 16.9512 200.527 17.004 200.799 17.1096C201.075 17.2152 201.281 17.3786 201.418 17.5999C201.557 17.8212 201.627 18.1078 201.627 18.4598V21.1527H200.865V18.5013C200.865 18.1568 200.767 17.8991 200.572 17.7281C200.38 17.5572 200.084 17.4717 199.684 17.4717C199.306 17.4717 199.003 17.5308 198.777 17.6489C198.554 17.7646 198.393 17.9356 198.294 18.1619C198.198 18.3882 198.15 18.6647 198.15 18.9916V21.1527H197.378V15.2842H198.15Z" fill="white"/>
<path d="M205.03 21.2281C204.385 21.2281 203.874 21.0496 203.496 20.6926C203.121 20.3355 202.933 19.805 202.933 19.101C202.933 18.3894 203.125 17.8526 203.51 17.4905C203.894 17.1259 204.405 16.9437 205.044 16.9437C205.313 16.9437 205.549 16.9726 205.75 17.0304C205.952 17.0882 206.125 17.1662 206.271 17.2642C206.417 17.3598 206.539 17.4692 206.638 17.5924H206.694C206.682 17.5144 206.669 17.4076 206.657 17.2718C206.645 17.136 206.638 17.0254 206.638 16.9399V15.2842H207.41V21.1527H206.787L206.671 20.5643H206.638C206.542 20.6875 206.42 20.7994 206.271 20.9C206.125 21.0006 205.95 21.081 205.746 21.1414C205.544 21.1992 205.306 21.2281 205.03 21.2281ZM205.151 20.7076C205.696 20.7076 206.082 20.5819 206.308 20.3305C206.535 20.0791 206.648 19.7057 206.648 19.2103V19.0972C206.648 18.5717 206.539 18.1681 206.322 17.8865C206.108 17.6049 205.718 17.4641 205.151 17.4641C204.677 17.4641 204.322 17.6125 204.086 17.9092C203.851 18.2033 203.733 18.6056 203.733 19.1161C203.733 19.624 203.849 20.0162 204.082 20.2928C204.317 20.5694 204.673 20.7076 205.151 20.7076Z" fill="white"/>
<path d="M211.362 16.9437C211.464 16.9437 211.571 16.9487 211.682 16.9587C211.794 16.9663 211.893 16.9776 211.98 16.9927L211.882 17.5735C211.799 17.5559 211.706 17.5421 211.603 17.532C211.501 17.522 211.405 17.5169 211.315 17.5169C211.111 17.5169 210.917 17.5509 210.734 17.6188C210.554 17.6841 210.396 17.7797 210.26 17.9054C210.123 18.0286 210.017 18.1782 209.939 18.3542C209.862 18.5277 209.823 18.7213 209.823 18.935V21.1527H209.047V17.0191H209.688L209.772 17.7809H209.804C209.91 17.6276 210.037 17.488 210.185 17.3623C210.334 17.2341 210.506 17.1322 210.701 17.0568C210.9 16.9814 211.12 16.9437 211.362 16.9437Z" fill="white"/>
<path d="M214.848 16.9512C215.456 16.9512 215.907 17.0618 216.201 17.2831C216.496 17.5044 216.643 17.8576 216.643 18.3429V21.1527H216.08L215.931 20.5417H215.894C215.752 20.6926 215.603 20.8195 215.448 20.9226C215.293 21.0232 215.113 21.0999 214.909 21.1527C214.707 21.203 214.459 21.2281 214.165 21.2281C213.855 21.2281 213.579 21.1841 213.337 21.0961C213.099 21.0081 212.91 20.8748 212.77 20.6963C212.634 20.5178 212.566 20.2915 212.566 20.0175C212.566 19.6051 212.767 19.2883 213.17 19.067C213.573 18.8458 214.187 18.7251 215.011 18.705L215.89 18.6748V18.4221C215.89 18.0651 215.795 17.8149 215.606 17.6716C215.417 17.5282 215.15 17.4566 214.806 17.4566C214.54 17.4566 214.286 17.488 214.044 17.5509C213.802 17.6137 213.573 17.6879 213.356 17.7734L213.119 17.2982C213.348 17.2026 213.612 17.1209 213.909 17.053C214.207 16.9851 214.52 16.9512 214.848 16.9512ZM215.88 19.1161L215.104 19.1425C214.469 19.1626 214.021 19.2468 213.76 19.3951C213.5 19.5435 213.37 19.7534 213.37 20.025C213.37 20.2613 213.458 20.4361 213.635 20.5492C213.812 20.6624 214.046 20.719 214.337 20.719C214.789 20.719 215.16 20.6171 215.448 20.4135C215.736 20.2098 215.88 19.9043 215.88 19.497V19.1161Z" fill="white"/>
<path d="M222.379 21.1451L221.473 18.7389C221.433 18.6358 221.394 18.5352 221.357 18.4372C221.323 18.3366 221.29 18.2411 221.259 18.1505C221.231 18.0575 221.205 17.972 221.18 17.8941C221.158 17.8136 221.14 17.7445 221.124 17.6866H221.092C221.079 17.7445 221.062 17.8136 221.041 17.8941C221.019 17.972 220.992 18.0575 220.961 18.1505C220.934 18.2436 220.903 18.3416 220.869 18.4447C220.834 18.5453 220.796 18.6471 220.752 18.7502L219.804 21.1451H218.935L217.531 17.0115H218.33L219.065 19.2933C219.114 19.4442 219.161 19.5938 219.204 19.7421C219.251 19.888 219.289 20.0263 219.32 20.157C219.355 20.2852 219.379 20.3971 219.395 20.4927H219.432C219.451 20.4298 219.471 20.3544 219.492 20.2664C219.517 20.1784 219.544 20.0853 219.571 19.9873C219.602 19.8867 219.635 19.7874 219.669 19.6893C219.703 19.5888 219.737 19.4945 219.771 19.4065L220.71 17.0115H221.543L222.449 19.4027C222.496 19.5234 222.541 19.6491 222.584 19.7798C222.63 19.9106 222.672 20.0376 222.709 20.1608C222.747 20.2815 222.773 20.3896 222.788 20.4851H222.826C222.838 20.3996 222.861 20.294 222.895 20.1683C222.93 20.0426 222.968 19.9043 223.012 19.7534C223.058 19.6026 223.106 19.4492 223.156 19.2933L223.9 17.0115H224.685L223.277 21.1451H222.379Z" fill="white"/>
<rect x="151.5" y="2.21289" width="85.5833" height="31.0419" rx="6.5" stroke="#FF0000" stroke-width="3"/>
</svg>
