<svg width="530" height="508" viewBox="0 0 530 508" fill="none" xmlns="http://www.w3.org/2000/svg">
<path d="M102 308.217L119.314 307.75L110.253 292.989L102 308.217ZM290.832 361.944C293.654 358.543 293.185 353.5 289.784 350.679C286.384 347.857 281.341 348.326 278.519 351.726C275.698 355.127 276.167 360.17 279.567 362.992C282.967 365.813 288.011 365.344 290.832 361.944ZM286.116 357.254C286.51 355.897 286.818 354.549 287.041 353.211L284.082 352.718C283.878 353.937 283.598 355.17 283.235 356.416L286.116 357.254ZM287.354 344.981C287.099 342.227 286.484 339.542 285.541 336.937L282.72 337.958C283.58 340.334 284.137 342.768 284.367 345.257L287.354 344.981ZM281.918 329.608C280.504 327.37 278.843 325.208 276.964 323.126L274.737 325.136C276.513 327.104 278.067 329.131 279.382 331.211L281.918 329.608ZM271.178 317.534C269.194 315.844 267.058 314.216 264.786 312.654L263.087 315.127C265.281 316.635 267.334 318.2 269.233 319.818L271.178 317.534ZM257.978 308.396C255.714 307.106 253.352 305.87 250.901 304.691L249.601 307.395C251.992 308.545 254.293 309.748 256.492 311.002L257.978 308.396ZM243.619 301.461C241.2 300.472 238.714 299.535 236.169 298.65L235.183 301.483C237.68 302.351 240.116 303.27 242.483 304.238L243.619 301.461ZM228.59 296.221C226.073 295.481 223.51 294.79 220.91 294.15L220.193 297.063C222.751 297.692 225.27 298.372 227.743 299.099L228.59 296.221ZM213.15 292.415C210.569 291.895 207.959 291.424 205.326 291.005L204.854 293.968C207.447 294.381 210.017 294.844 212.557 295.356L213.15 292.415ZM197.454 289.912C194.831 289.601 192.192 289.341 189.544 289.134L189.31 292.125C191.918 292.329 194.517 292.585 197.101 292.891L197.454 289.912ZM181.61 288.671C178.962 288.571 176.311 288.523 173.662 288.531L173.671 291.531C176.278 291.523 178.888 291.57 181.496 291.669L181.61 288.671ZM165.714 288.722C163.058 288.843 160.41 289.022 157.778 289.26L158.048 292.248C160.635 292.014 163.237 291.838 165.85 291.719L165.714 288.722ZM149.872 290.161C147.229 290.527 144.607 290.956 142.015 291.451L142.577 294.398C145.118 293.913 147.689 293.492 150.283 293.133L149.872 290.161ZM134.23 293.156C131.63 293.803 129.068 294.52 126.55 295.311L127.449 298.173C129.906 297.401 132.411 296.7 134.954 296.068L134.23 293.156ZM119.013 297.953C116.507 298.928 114.058 299.985 111.672 301.124L112.965 303.831C115.28 302.725 117.662 301.698 120.101 300.749L119.013 297.953Z" fill="#B90B0B"/>
<path d="M491 154.722L478.388 166.593L494.974 171.58L491 154.722ZM145.207 324.264C145.207 328.682 148.789 332.264 153.207 332.264C157.625 332.264 161.207 328.682 161.207 324.264C161.207 319.846 157.625 316.264 153.207 316.264C148.789 316.264 145.207 319.846 145.207 324.264ZM151.814 324.82C152.337 326.129 152.887 327.407 153.464 328.654L156.187 327.394C155.633 326.196 155.103 324.967 154.6 323.707L151.814 324.82ZM157.271 335.821C158.715 338.202 160.273 340.447 161.94 342.558L164.295 340.699C162.706 338.686 161.218 336.543 159.836 334.265L157.271 335.821ZM167.428 348.657C169.393 350.573 171.467 352.345 173.645 353.976L175.443 351.575C173.369 350.021 171.393 348.334 169.523 346.509L167.428 348.657ZM180.49 358.455C182.848 359.796 185.3 361 187.838 362.072L189.005 359.309C186.572 358.281 184.226 357.128 181.973 355.847L180.49 358.455ZM195.518 364.838C198.074 365.61 200.7 366.267 203.392 366.812L203.987 363.871C201.383 363.344 198.848 362.71 196.386 361.966L195.518 364.838ZM211.418 368.083C214.077 368.395 216.789 368.608 219.549 368.727L219.679 365.73C216.988 365.614 214.349 365.406 211.767 365.104L211.418 368.083ZM227.629 368.81C230.279 368.753 232.967 368.617 235.691 368.404L235.456 365.413C232.787 365.622 230.155 365.755 227.565 365.81L227.629 368.81ZM243.777 367.556C246.401 367.214 249.053 366.806 251.729 366.331L251.206 363.377C248.573 363.844 245.966 364.246 243.39 364.582L243.777 367.556ZM259.64 364.757C262.249 364.182 264.879 363.548 267.526 362.857L266.768 359.955C264.157 360.636 261.565 361.261 258.994 361.827L259.64 364.757ZM275.241 360.698C277.802 359.934 280.377 359.119 282.964 358.254L282.012 355.409C279.456 356.263 276.912 357.069 274.383 357.824L275.241 360.698ZM290.531 355.594C293.033 354.672 295.544 353.706 298.061 352.696L296.944 349.911C294.452 350.911 291.968 351.867 289.494 352.779L290.531 355.594ZM305.485 349.599C307.929 348.541 310.377 347.443 312.828 346.306L311.566 343.584C309.138 344.71 306.713 345.798 304.293 346.846L305.485 349.599ZM320.093 342.826C322.48 341.647 324.867 340.431 327.254 339.181L325.862 336.524C323.496 337.763 321.129 338.968 318.764 340.137L320.093 342.826ZM334.348 335.36C336.679 334.07 339.007 332.747 341.33 331.393L339.819 328.801C337.515 330.144 335.206 331.456 332.895 332.735L334.348 335.36ZM348.245 327.26C350.519 325.867 352.787 324.445 355.048 322.993L353.427 320.469C351.184 321.909 348.934 323.32 346.678 324.701L348.245 327.26ZM361.777 318.572C363.993 317.082 366.2 315.565 368.397 314.022L366.673 311.567C364.493 313.099 362.303 314.604 360.104 316.082L361.777 318.572ZM374.934 309.328C377.089 307.746 379.233 306.139 381.364 304.507L379.54 302.125C377.425 303.745 375.298 305.339 373.159 306.909L374.934 309.328ZM387.699 299.551C389.79 297.881 391.868 296.186 393.929 294.469L392.009 292.164C389.963 293.868 387.902 295.55 385.827 297.207L387.699 299.551ZM400.054 289.259C402.077 287.502 404.082 285.722 406.07 283.922L404.056 281.698C402.084 283.485 400.093 285.251 398.086 286.994L400.054 289.259ZM411.972 278.461C413.92 276.619 415.85 274.756 417.758 272.874L415.651 270.738C413.758 272.606 411.844 274.453 409.911 276.281L411.972 278.461ZM423.421 267.164C425.289 265.238 427.135 263.293 428.957 261.329L426.758 259.288C424.951 261.236 423.121 263.165 421.267 265.075L423.421 267.164ZM434.361 255.369C436.142 253.36 437.897 251.333 439.625 249.288L437.334 247.351C435.621 249.378 433.881 251.388 432.116 253.38L434.361 255.369ZM444.746 243.078C446.43 240.986 448.085 238.876 449.709 236.75L447.326 234.928C445.717 237.034 444.077 239.124 442.409 241.198L444.746 243.078ZM454.518 230.289C456.094 228.113 457.638 225.92 459.148 223.713L456.672 222.019C455.177 224.204 453.649 226.374 452.088 228.529L454.518 230.289ZM463.607 217C465.063 214.74 466.483 212.465 467.866 210.177L465.298 208.626C463.93 210.889 462.526 213.139 461.085 215.375L463.607 217ZM471.932 203.214C473.253 200.87 474.534 198.513 475.774 196.144L473.116 194.753C471.891 197.094 470.625 199.423 469.318 201.74L471.932 203.214ZM479.396 188.936C480.565 186.51 481.69 184.073 482.769 181.624L480.023 180.415C478.959 182.832 477.848 185.238 476.694 187.633L479.396 188.936ZM485.889 174.183C486.886 171.68 487.834 169.165 488.731 166.641L485.904 165.637C485.02 168.125 484.085 170.604 483.102 173.073L485.889 174.183Z" fill="#B90B0B"/>
<rect x="225.499" y="194.311" width="40.0188" height="19.364" rx="9.68198" fill="#B90B0B"/>
<path d="M245.415 211.809C245.415 212.359 245.279 212.833 245.008 213.23C244.742 213.628 244.357 213.933 243.853 214.145C243.354 214.356 242.757 214.462 242.063 214.462C241.724 214.462 241.401 214.443 241.092 214.405C240.783 214.367 240.491 214.312 240.216 214.24C239.945 214.164 239.697 214.073 239.473 213.967V212.532C239.85 212.697 240.271 212.847 240.736 212.983C241.202 213.114 241.676 213.18 242.158 213.18C242.552 213.18 242.878 213.129 243.136 213.027C243.398 212.922 243.593 212.773 243.72 212.583C243.847 212.388 243.91 212.162 243.91 211.904C243.91 211.629 243.836 211.396 243.688 211.206C243.54 211.015 243.316 210.842 243.015 210.685C242.719 210.524 242.347 210.353 241.898 210.171C241.593 210.048 241.301 209.909 241.022 209.752C240.747 209.595 240.501 209.411 240.286 209.2C240.07 208.988 239.898 208.738 239.771 208.451C239.649 208.159 239.587 207.816 239.587 207.422C239.587 206.898 239.712 206.449 239.962 206.077C240.216 205.704 240.571 205.419 241.028 205.22C241.49 205.021 242.027 204.921 242.641 204.921C243.127 204.921 243.584 204.972 244.012 205.074C244.443 205.175 244.867 205.319 245.281 205.505L244.799 206.73C244.418 206.574 244.048 206.449 243.688 206.356C243.333 206.263 242.969 206.216 242.596 206.216C242.275 206.216 242.002 206.265 241.777 206.362C241.553 206.46 241.382 206.597 241.263 206.775C241.149 206.948 241.092 207.156 241.092 207.397C241.092 207.668 241.157 207.896 241.289 208.083C241.424 208.264 241.631 208.432 241.911 208.584C242.194 208.736 242.558 208.906 243.002 209.092C243.514 209.303 243.948 209.526 244.304 209.758C244.663 209.991 244.938 210.27 245.129 210.596C245.319 210.918 245.415 211.322 245.415 211.809ZM242.704 224.175C243.33 224.175 243.868 224.304 244.316 224.562C244.765 224.82 245.11 225.186 245.351 225.66C245.592 226.134 245.713 226.701 245.713 227.361V228.161H241.022C241.039 228.842 241.221 229.367 241.568 229.735C241.919 230.104 242.41 230.288 243.041 230.288C243.489 230.288 243.891 230.245 244.247 230.161C244.606 230.072 244.977 229.943 245.357 229.773V230.986C245.006 231.151 244.649 231.271 244.285 231.348C243.921 231.424 243.485 231.462 242.977 231.462C242.287 231.462 241.68 231.329 241.155 231.062C240.635 230.791 240.226 230.389 239.93 229.856C239.638 229.323 239.492 228.66 239.492 227.869C239.492 227.082 239.625 226.413 239.892 225.863C240.159 225.313 240.533 224.894 241.016 224.606C241.498 224.319 242.061 224.175 242.704 224.175ZM242.704 225.298C242.234 225.298 241.854 225.451 241.562 225.755C241.274 226.06 241.104 226.507 241.054 227.095H244.253C244.249 226.743 244.189 226.432 244.075 226.162C243.965 225.891 243.796 225.679 243.567 225.527C243.343 225.375 243.055 225.298 242.704 225.298ZM243.567 241.175C244.359 241.175 244.974 241.38 245.415 241.791C245.859 242.197 246.081 242.851 246.081 243.752V248.335H244.589V244.031C244.589 243.485 244.477 243.077 244.253 242.806C244.029 242.531 243.682 242.394 243.212 242.394C242.531 242.394 242.057 242.603 241.79 243.022C241.528 243.441 241.396 244.048 241.396 244.844V248.335H239.905V241.308H241.066L241.276 242.26H241.358C241.511 242.015 241.699 241.814 241.923 241.657C242.152 241.496 242.406 241.376 242.685 241.295C242.969 241.215 243.263 241.175 243.567 241.175ZM242.266 265.462C241.428 265.462 240.755 265.157 240.248 264.548C239.744 263.934 239.492 263.031 239.492 261.837C239.492 260.631 239.748 259.719 240.26 259.102C240.777 258.484 241.456 258.175 242.298 258.175C242.653 258.175 242.964 258.223 243.231 258.321C243.498 258.414 243.726 258.541 243.917 258.702C244.111 258.862 244.276 259.042 244.412 259.241H244.481C244.46 259.11 244.435 258.922 244.405 258.676C244.38 258.427 244.367 258.196 244.367 257.984V255.458H245.865V265.335H244.697L244.431 264.376H244.367C244.24 264.58 244.079 264.764 243.885 264.929C243.694 265.09 243.466 265.219 243.199 265.316C242.937 265.413 242.626 265.462 242.266 265.462ZM242.685 264.25C243.324 264.25 243.775 264.065 244.037 263.697C244.299 263.329 244.435 262.777 244.443 262.041V261.844C244.443 261.057 244.316 260.454 244.062 260.035C243.809 259.611 243.345 259.4 242.672 259.4C242.135 259.4 241.724 259.618 241.441 260.054C241.162 260.485 241.022 261.088 241.022 261.863C241.022 262.637 241.162 263.23 241.441 263.64C241.724 264.046 242.139 264.25 242.685 264.25Z" fill="white"/>
<rect x="215.172" y="82" width="183.742" height="308.963" rx="30" fill="#F2F2F2"/>
<path d="M215.171 112C215.171 95.4315 228.603 82 245.171 82H368.914C385.482 82 398.914 95.4315 398.914 112V158.165H215.171V112Z" fill="#B90B0B"/>
<path d="M253 123H320.128M253 130.315H291.702" stroke="#918EFF" stroke-width="5" stroke-linecap="round"/>
<rect x="361.908" y="118.577" width="22.8064" height="22.8064" rx="11.4032" fill="white"/>
<path d="M373.538 129.157L375.896 126.799L376.946 127.848L374.588 130.206L376.969 132.588L375.92 133.637L373.538 131.255L371.187 133.607L370.137 132.558L372.489 130.206L370.084 127.801L371.133 126.752L373.538 129.157Z" fill="#263238"/>
<rect x="231.095" y="226.584" width="147.596" height="32.2733" rx="11" fill="white"/>
<path d="M266.38 239.492H345.127M266.38 246.807H311.78" stroke="#DCDCDC" stroke-width="5" stroke-linecap="round"/>
<rect x="232.453" y="268.394" width="146.596" height="31.2733" rx="10.5" fill="#D4E9EE" stroke="#8BBDCA" stroke-dasharray="2 2"/>
<g filter="url(#filter0_d_235_32256)">
<rect x="180.316" y="267.033" width="147.596" height="32.2733" rx="11" fill="white"/>
<rect x="180.816" y="267.533" width="146.596" height="31.2733" rx="10.5" stroke="#EFEFEF"/>
</g>
<path d="M218.615 279.511H297.362M218.615 286.827H264.015" stroke="#DCDCDC" stroke-width="5" stroke-linecap="round"/>
<rect x="229.37" y="171.934" width="148.027" height="26.6792" rx="13.3396" fill="white"/>
<path d="M360.83 179.679C359.937 179.679 359.063 179.944 358.32 180.44C357.577 180.937 356.998 181.642 356.656 182.468C356.314 183.294 356.224 184.202 356.399 185.078C356.573 185.955 357.003 186.76 357.635 187.392C358.267 188.024 359.072 188.454 359.949 188.628C360.825 188.803 361.734 188.713 362.559 188.371C363.385 188.029 364.09 187.45 364.587 186.707C365.083 185.964 365.348 185.091 365.348 184.197C365.348 182.999 364.872 181.849 364.025 181.002C363.178 180.155 362.028 179.679 360.83 179.679V179.679Z" stroke="#DCDCDC" stroke-width="2" stroke-miterlimit="10"/>
<path d="M364.058 187.425L367.5 190.868" stroke="#DCDCDC" stroke-width="2" stroke-miterlimit="10" stroke-linecap="round"/>
<rect x="233.245" y="332.009" width="112.741" height="4.73341" rx="2.36671" fill="#D6D6D6"/>
<rect x="233.245" y="341.906" width="67.5587" height="4.73341" rx="2.36671" fill="#E0E0E0"/>
<g filter="url(#filter1_d_235_32256)">
<rect x="205.705" y="330.287" width="18.5033" height="18.5033" rx="9.25166" fill="white"/>
<rect x="206.205" y="330.787" width="17.5033" height="17.5033" rx="8.75166" stroke="#EFEFEF"/>
</g>
<path d="M213.694 341.889V341.411C213.694 341.119 213.736 340.86 213.822 340.637C213.907 340.409 214.044 340.193 214.232 339.991C214.42 339.785 214.669 339.574 214.979 339.359C215.257 339.169 215.479 338.999 215.645 338.849C215.815 338.698 215.939 338.55 216.015 338.403C216.096 338.253 216.136 338.083 216.136 337.893C216.136 337.614 216.028 337.401 215.813 337.254C215.598 337.108 215.297 337.035 214.912 337.035C214.526 337.035 214.142 337.093 213.761 337.209C213.384 337.325 213.001 337.478 212.611 337.667L211.877 336.254C212.326 336.013 212.813 335.819 213.337 335.673C213.862 335.522 214.436 335.447 215.06 335.447C216.019 335.447 216.762 335.668 217.286 336.112C217.816 336.551 218.08 337.11 218.08 337.79C218.08 338.151 218.02 338.466 217.899 338.732C217.782 338.995 217.603 339.24 217.36 339.468C217.123 339.692 216.824 339.929 216.466 340.178C216.196 340.368 215.99 340.527 215.847 340.656C215.703 340.785 215.604 340.914 215.551 341.043C215.501 341.168 215.477 341.321 215.477 341.502V341.889H213.694ZM213.479 344.097C213.479 343.692 213.593 343.408 213.822 343.244C214.055 343.081 214.335 342.999 214.663 342.999C214.981 342.999 215.255 343.081 215.483 343.244C215.717 343.408 215.833 343.692 215.833 344.097C215.833 344.484 215.717 344.764 215.483 344.936C215.255 345.108 214.981 345.194 214.663 345.194C214.335 345.194 214.055 345.108 213.822 344.936C213.593 344.764 213.479 344.484 213.479 344.097Z" fill="#B90B0B"/>
<g filter="url(#filter2_d_235_32256)">
<rect x="206.134" y="357.829" width="18.5033" height="18.5033" rx="9.25166" fill="white"/>
<rect x="206.634" y="358.329" width="17.5033" height="17.5033" rx="8.75166" stroke="#EFEFEF"/>
</g>
<path d="M213.693 369.058V368.537C213.693 368.218 213.735 367.936 213.821 367.692C213.906 367.443 214.043 367.208 214.231 366.988C214.419 366.762 214.668 366.532 214.978 366.298C215.256 366.091 215.478 365.906 215.644 365.741C215.814 365.577 215.938 365.415 216.014 365.255C216.095 365.091 216.135 364.906 216.135 364.699C216.135 364.394 216.027 364.162 215.812 364.002C215.597 363.842 215.296 363.763 214.911 363.763C214.525 363.763 214.141 363.826 213.76 363.953C213.383 364.079 213 364.246 212.61 364.453L211.876 362.911C212.325 362.648 212.812 362.436 213.336 362.277C213.861 362.112 214.435 362.03 215.059 362.03C216.018 362.03 216.761 362.272 217.285 362.756C217.815 363.234 218.079 363.845 218.079 364.586C218.079 364.981 218.019 365.324 217.898 365.615C217.781 365.901 217.602 366.169 217.359 366.417C217.122 366.661 216.823 366.92 216.465 367.192C216.196 367.399 215.989 367.572 215.846 367.713C215.702 367.854 215.603 367.995 215.55 368.136C215.5 368.272 215.476 368.438 215.476 368.636V369.058H213.693ZM213.478 371.466C213.478 371.025 213.592 370.715 213.821 370.537C214.054 370.358 214.334 370.269 214.662 370.269C214.98 370.269 215.254 370.358 215.482 370.537C215.716 370.715 215.832 371.025 215.832 371.466C215.832 371.889 215.716 372.194 215.482 372.382C215.254 372.57 214.98 372.664 214.662 372.664C214.334 372.664 214.054 372.57 213.821 372.382C213.592 372.194 213.478 371.889 213.478 371.466Z" fill="#B90B0B"/>
<path d="M374.388 341.906L377.4 338.678L374.388 335.451" stroke="black" stroke-width="2.5" stroke-linecap="round" stroke-linejoin="round"/>
<rect x="234.105" y="359.121" width="112.741" height="4.73341" rx="2.36671" fill="#D6D6D6"/>
<rect x="234.105" y="369.019" width="67.5587" height="4.73341" rx="2.36671" fill="#E0E0E0"/>
<path d="M375.246 369.019L378.258 365.791L375.246 362.564" stroke="black" stroke-width="2.5" stroke-linecap="round" stroke-linejoin="round"/>
<g filter="url(#filter3_d_235_32256)">
<rect x="338.671" y="254.985" width="147.596" height="169.112" rx="11" fill="white"/>
<rect x="339.171" y="255.485" width="146.596" height="168.112" rx="10.5" stroke="#EFEFEF"/>
</g>
<rect x="454.423" y="371.169" width="14.2002" height="14.2002" rx="7.10012" fill="#AFADFF"/>
<rect x="380.411" y="394.406" width="67.5587" height="3.01217" rx="1.50609" fill="#FF3D6B" fill-opacity="0.53"/>
<rect x="380.411" y="400.861" width="22.8064" height="3.01217" rx="1.50609" fill="#FF3D6B" fill-opacity="0.45"/>
<rect x="352.871" y="282.956" width="115.753" height="80.0377" rx="11" fill="#B90B0B"/>
<path d="M389.828 322.72C390.628 322.72 391.288 322.817 391.808 323.012C392.333 323.206 392.722 323.503 392.976 323.9C393.234 324.298 393.363 324.804 393.363 325.417C393.363 325.875 393.279 326.264 393.109 326.585C392.94 326.907 392.718 327.174 392.443 327.385C392.168 327.597 391.874 327.766 391.561 327.893L394.195 332H392.475L390.234 328.28H388.742V332H387.219V322.72H389.828ZM389.726 323.989H388.742V327.023H389.796C390.503 327.023 391.015 326.892 391.332 326.63C391.654 326.368 391.815 325.98 391.815 325.468C391.815 324.931 391.643 324.55 391.3 324.326C390.962 324.101 390.437 323.989 389.726 323.989ZM400.777 332H395.522V322.72H400.777V324.002H397.045V326.522H400.543V327.798H397.045V330.711H400.777V332ZM406.738 323.881C406.294 323.881 405.896 323.962 405.545 324.123C405.198 324.283 404.903 324.516 404.662 324.821C404.421 325.121 404.237 325.487 404.11 325.919C403.983 326.346 403.92 326.829 403.92 327.366C403.92 328.086 404.021 328.706 404.224 329.226C404.427 329.742 404.736 330.14 405.151 330.419C405.566 330.694 406.09 330.832 406.725 330.832C407.119 330.832 407.502 330.794 407.874 330.718C408.247 330.642 408.632 330.538 409.029 330.407V331.702C408.653 331.85 408.272 331.958 407.887 332.025C407.502 332.093 407.057 332.127 406.554 332.127C405.606 332.127 404.819 331.93 404.193 331.537C403.57 331.143 403.105 330.589 402.796 329.874C402.491 329.158 402.339 328.32 402.339 327.36C402.339 326.657 402.436 326.014 402.631 325.43C402.826 324.846 403.109 324.343 403.482 323.919C403.854 323.492 404.313 323.164 404.859 322.936C405.409 322.703 406.038 322.586 406.744 322.586C407.21 322.586 407.667 322.639 408.115 322.745C408.568 322.847 408.987 322.993 409.372 323.183L408.839 324.44C408.517 324.288 408.181 324.156 407.83 324.046C407.478 323.936 407.115 323.881 406.738 323.881ZM416.278 332H411.023V322.72H416.278V324.002H412.546V326.522H416.044V327.798H412.546V330.711H416.278V332ZM418.284 332V322.72H419.808V332H418.284ZM429.139 322.72L425.895 332H424.283L421.039 322.72H422.601L424.556 328.534C424.615 328.703 424.679 328.909 424.746 329.15C424.818 329.391 424.884 329.634 424.943 329.88C425.006 330.125 425.055 330.343 425.089 330.534C425.123 330.343 425.169 330.125 425.229 329.88C425.292 329.634 425.358 329.391 425.425 329.15C425.493 328.909 425.557 328.701 425.616 328.528L427.577 322.72H429.139ZM435.613 332H430.358V322.72H435.613V324.002H431.881V326.522H435.379V327.798H431.881V330.711H435.613V332Z" fill="white"/>
<path d="M355.455 373.752H434.201M355.455 381.067H400.854" stroke="#9FE870" stroke-width="5" stroke-linecap="round"/>
<g filter="url(#filter4_d_235_32256)">
<rect x="79" y="39" width="147.596" height="169.112" rx="11" fill="white"/>
<rect x="79.5" y="39.5" width="146.596" height="168.112" rx="10.5" stroke="#EFEFEF"/>
</g>
<rect x="194.752" y="155.184" width="14.2002" height="14.2002" rx="7.10012" fill="#AFADFF"/>
<rect x="120.74" y="178.421" width="67.5587" height="3.01217" rx="1.50609" fill="#FF3D6B" fill-opacity="0.53"/>
<rect x="120.74" y="184.875" width="22.8064" height="3.01217" rx="1.50609" fill="#FF3D6B" fill-opacity="0.45"/>
<rect x="93.2002" y="66.9702" width="115.753" height="80.0377" rx="11" fill="#B90B0B"/>
<path d="M95.7836 157.767H174.53M95.7836 165.082H141.183" stroke="#9FE870" stroke-width="5" stroke-linecap="round"/>
<path d="M124.828 100.72C125.627 100.72 126.288 100.817 126.808 101.012C127.333 101.206 127.722 101.503 127.976 101.9C128.234 102.298 128.363 102.804 128.363 103.417C128.363 103.875 128.279 104.264 128.109 104.585C127.94 104.907 127.718 105.174 127.443 105.385C127.168 105.597 126.874 105.766 126.561 105.893L129.195 110H127.475L125.234 106.28H123.742V110H122.219V100.72H124.828ZM124.726 101.989H123.742V105.023H124.796C125.503 105.023 126.015 104.892 126.332 104.63C126.654 104.368 126.814 103.98 126.814 103.468C126.814 102.931 126.643 102.55 126.3 102.326C125.962 102.101 125.437 101.989 124.726 101.989ZM135.777 110H130.521V100.72H135.777V102.002H132.045V104.522H135.542V105.798H132.045V108.711H135.777V110ZM146.022 105.347C146.022 106.071 145.929 106.731 145.743 107.328C145.557 107.924 145.278 108.434 144.905 108.857C144.533 109.281 144.063 109.6 143.496 109.816L145.705 112.209H143.674L141.928 110.121C141.886 110.121 141.844 110.121 141.801 110.121C141.763 110.125 141.725 110.127 141.687 110.127C140.946 110.127 140.303 110.013 139.757 109.784C139.216 109.556 138.765 109.23 138.405 108.807C138.05 108.383 137.783 107.878 137.605 107.29C137.428 106.701 137.339 106.05 137.339 105.334C137.339 104.378 137.495 103.544 137.809 102.833C138.126 102.118 138.606 101.564 139.25 101.17C139.897 100.773 140.714 100.574 141.7 100.574C142.665 100.574 143.466 100.771 144.105 101.164C144.744 101.558 145.223 102.112 145.54 102.827C145.862 103.538 146.022 104.378 146.022 105.347ZM138.938 105.347C138.938 106.062 139.036 106.682 139.23 107.207C139.425 107.728 139.723 108.13 140.125 108.413C140.532 108.692 141.052 108.832 141.687 108.832C142.326 108.832 142.847 108.692 143.249 108.413C143.651 108.13 143.947 107.728 144.137 107.207C144.328 106.682 144.423 106.062 144.423 105.347C144.423 104.26 144.205 103.409 143.769 102.795C143.337 102.178 142.648 101.869 141.7 101.869C141.065 101.869 140.542 102.008 140.132 102.288C139.726 102.567 139.425 102.967 139.23 103.487C139.036 104.004 138.938 104.624 138.938 105.347ZM155.303 100.72V106.725C155.303 107.372 155.165 107.952 154.89 108.464C154.619 108.976 154.209 109.382 153.659 109.683C153.109 109.979 152.417 110.127 151.583 110.127C150.394 110.127 149.488 109.816 148.866 109.194C148.248 108.568 147.939 107.736 147.939 106.699V100.72H149.463V106.566C149.463 107.34 149.645 107.912 150.009 108.28C150.373 108.648 150.917 108.832 151.64 108.832C152.139 108.832 152.546 108.745 152.859 108.572C153.176 108.394 153.409 108.136 153.557 107.797C153.709 107.455 153.786 107.042 153.786 106.56V100.72H155.303ZM162.933 110H157.677V100.72H162.933V102.002H159.2V104.522H162.698V105.798H159.2V108.711H162.933V110ZM170.296 107.474C170.296 108.024 170.16 108.498 169.89 108.896C169.623 109.293 169.238 109.598 168.734 109.81C168.235 110.021 167.638 110.127 166.944 110.127C166.606 110.127 166.282 110.108 165.973 110.07C165.664 110.032 165.372 109.977 165.097 109.905C164.826 109.829 164.579 109.738 164.354 109.632V108.197C164.731 108.362 165.152 108.513 165.618 108.648C166.083 108.779 166.557 108.845 167.04 108.845C167.433 108.845 167.759 108.794 168.017 108.692C168.279 108.587 168.474 108.438 168.601 108.248C168.728 108.053 168.792 107.827 168.792 107.569C168.792 107.294 168.717 107.061 168.569 106.871C168.421 106.68 168.197 106.507 167.896 106.35C167.6 106.189 167.228 106.018 166.779 105.836C166.475 105.713 166.183 105.574 165.903 105.417C165.628 105.26 165.383 105.076 165.167 104.865C164.951 104.653 164.78 104.403 164.653 104.116C164.53 103.824 164.469 103.481 164.469 103.087C164.469 102.563 164.594 102.114 164.843 101.742C165.097 101.369 165.453 101.084 165.91 100.885C166.371 100.686 166.908 100.586 167.522 100.586C168.009 100.586 168.466 100.637 168.893 100.739C169.325 100.84 169.748 100.984 170.163 101.17L169.68 102.396C169.299 102.239 168.929 102.114 168.569 102.021C168.214 101.928 167.85 101.881 167.478 101.881C167.156 101.881 166.883 101.93 166.659 102.027C166.434 102.125 166.263 102.262 166.145 102.44C166.03 102.613 165.973 102.821 165.973 103.062C165.973 103.333 166.039 103.561 166.17 103.748C166.305 103.93 166.513 104.097 166.792 104.249C167.076 104.401 167.439 104.571 167.884 104.757C168.396 104.968 168.83 105.191 169.185 105.423C169.545 105.656 169.82 105.935 170.01 106.261C170.201 106.583 170.296 106.987 170.296 107.474ZM175.304 110H173.774V102.015H171.058V100.72H178.015V102.015H175.304V110Z" fill="white"/>
<path d="M254.576 104.474C254.576 105.024 254.441 105.498 254.17 105.896C253.903 106.293 253.518 106.598 253.015 106.81C252.515 107.021 251.919 107.127 251.225 107.127C250.886 107.127 250.562 107.108 250.253 107.07C249.944 107.032 249.653 106.977 249.377 106.905C249.107 106.829 248.859 106.738 248.635 106.632V105.197C249.011 105.362 249.432 105.513 249.898 105.648C250.363 105.779 250.837 105.845 251.32 105.845C251.713 105.845 252.039 105.794 252.297 105.692C252.56 105.587 252.754 105.438 252.881 105.248C253.008 105.053 253.072 104.827 253.072 104.569C253.072 104.294 252.998 104.061 252.85 103.871C252.701 103.68 252.477 103.507 252.177 103.35C251.881 103.189 251.508 103.018 251.06 102.836C250.755 102.713 250.463 102.574 250.184 102.417C249.909 102.26 249.663 102.076 249.447 101.865C249.231 101.653 249.06 101.403 248.933 101.116C248.81 100.824 248.749 100.481 248.749 100.087C248.749 99.5627 248.874 99.1141 249.124 98.7417C249.377 98.3693 249.733 98.0837 250.19 97.8848C250.651 97.6859 251.189 97.5864 251.802 97.5864C252.289 97.5864 252.746 97.6372 253.173 97.7388C253.605 97.8403 254.028 97.9842 254.443 98.1704L253.96 99.3955C253.58 99.2389 253.209 99.1141 252.85 99.021C252.494 98.9279 252.13 98.8813 251.758 98.8813C251.436 98.8813 251.163 98.93 250.939 99.0273C250.715 99.1247 250.543 99.2622 250.425 99.4399C250.311 99.6134 250.253 99.8208 250.253 100.062C250.253 100.333 250.319 100.561 250.45 100.748C250.586 100.93 250.793 101.097 251.072 101.249C251.356 101.401 251.72 101.571 252.164 101.757C252.676 101.968 253.11 102.191 253.465 102.423C253.825 102.656 254.1 102.935 254.291 103.261C254.481 103.583 254.576 103.987 254.576 104.474ZM261.622 107H256.366V97.7197H261.622V99.002H257.89V101.522H261.387V102.798H257.89V105.711H261.622V107ZM271.372 107H269.5L264.955 99.5923H264.897C264.914 99.842 264.929 100.106 264.942 100.386C264.959 100.665 264.972 100.953 264.98 101.249C264.993 101.545 265.003 101.846 265.012 102.15V107H263.628V97.7197H265.488L270.026 105.077H270.071C270.062 104.861 270.052 104.613 270.039 104.334C270.026 104.055 270.014 103.767 270.001 103.471C269.993 103.17 269.986 102.88 269.982 102.601V97.7197H271.372V107ZM281.344 102.271C281.344 103.316 281.15 104.19 280.76 104.893C280.371 105.591 279.806 106.118 279.065 106.473C278.325 106.824 277.432 107 276.387 107H273.81V97.7197H276.666C277.627 97.7197 278.456 97.8932 279.154 98.2402C279.853 98.583 280.392 99.0929 280.773 99.77C281.154 100.443 281.344 101.277 281.344 102.271ZM279.757 102.315C279.757 101.554 279.637 100.927 279.396 100.437C279.159 99.9456 278.807 99.5817 278.342 99.3447C277.881 99.1035 277.311 98.9829 276.634 98.9829H275.333V105.724H276.412C277.534 105.724 278.371 105.438 278.926 104.867C279.48 104.296 279.757 103.445 279.757 102.315ZM288.231 107H286.721V97.7197H291.964V99.002H288.231V101.896H291.723V103.172H288.231V107ZM293.652 107V97.7197H295.176V107H293.652ZM303.377 107L302.469 104.423H298.921L298.013 107H296.407L299.86 97.6816H301.549L304.996 107H303.377ZM302.076 103.115L301.193 100.576C301.16 100.466 301.111 100.312 301.047 100.113C300.984 99.9097 300.92 99.7044 300.857 99.4971C300.793 99.2855 300.741 99.1077 300.698 98.9639C300.656 99.1374 300.603 99.332 300.54 99.5479C300.48 99.7594 300.421 99.9583 300.362 100.145C300.307 100.331 300.264 100.475 300.235 100.576L299.346 103.115H302.076ZM309.439 107H307.909V99.0146H305.192V97.7197H312.149V99.0146H309.439V107Z" fill="white"/>
<defs>
<filter id="filter0_d_235_32256" x="101.316" y="228.033" width="269.596" height="154.273" filterUnits="userSpaceOnUse" color-interpolation-filters="sRGB">
<feFlood flood-opacity="0" result="BackgroundImageFix"/>
<feColorMatrix in="SourceAlpha" type="matrix" values="0 0 0 0 0 0 0 0 0 0 0 0 0 0 0 0 0 0 127 0" result="hardAlpha"/>
<feOffset dx="-18" dy="22"/>
<feGaussianBlur stdDeviation="30.5"/>
<feComposite in2="hardAlpha" operator="out"/>
<feColorMatrix type="matrix" values="0 0 0 0 0.629167 0 0 0 0 0.629167 0 0 0 0 0.629167 0 0 0 0.25 0"/>
<feBlend mode="normal" in2="BackgroundImageFix" result="effect1_dropShadow_235_32256"/>
<feBlend mode="normal" in="SourceGraphic" in2="effect1_dropShadow_235_32256" result="shape"/>
</filter>
<filter id="filter1_d_235_32256" x="126.705" y="291.287" width="140.503" height="140.503" filterUnits="userSpaceOnUse" color-interpolation-filters="sRGB">
<feFlood flood-opacity="0" result="BackgroundImageFix"/>
<feColorMatrix in="SourceAlpha" type="matrix" values="0 0 0 0 0 0 0 0 0 0 0 0 0 0 0 0 0 0 127 0" result="hardAlpha"/>
<feOffset dx="-18" dy="22"/>
<feGaussianBlur stdDeviation="30.5"/>
<feComposite in2="hardAlpha" operator="out"/>
<feColorMatrix type="matrix" values="0 0 0 0 0.629167 0 0 0 0 0.629167 0 0 0 0 0.629167 0 0 0 0.25 0"/>
<feBlend mode="normal" in2="BackgroundImageFix" result="effect1_dropShadow_235_32256"/>
<feBlend mode="normal" in="SourceGraphic" in2="effect1_dropShadow_235_32256" result="shape"/>
</filter>
<filter id="filter2_d_235_32256" x="127.134" y="318.829" width="140.503" height="140.503" filterUnits="userSpaceOnUse" color-interpolation-filters="sRGB">
<feFlood flood-opacity="0" result="BackgroundImageFix"/>
<feColorMatrix in="SourceAlpha" type="matrix" values="0 0 0 0 0 0 0 0 0 0 0 0 0 0 0 0 0 0 127 0" result="hardAlpha"/>
<feOffset dx="-18" dy="22"/>
<feGaussianBlur stdDeviation="30.5"/>
<feComposite in2="hardAlpha" operator="out"/>
<feColorMatrix type="matrix" values="0 0 0 0 0.629167 0 0 0 0 0.629167 0 0 0 0 0.629167 0 0 0 0.25 0"/>
<feBlend mode="normal" in2="BackgroundImageFix" result="effect1_dropShadow_235_32256"/>
<feBlend mode="normal" in="SourceGraphic" in2="effect1_dropShadow_235_32256" result="shape"/>
</filter>
<filter id="filter3_d_235_32256" x="259.671" y="215.985" width="269.596" height="291.112" filterUnits="userSpaceOnUse" color-interpolation-filters="sRGB">
<feFlood flood-opacity="0" result="BackgroundImageFix"/>
<feColorMatrix in="SourceAlpha" type="matrix" values="0 0 0 0 0 0 0 0 0 0 0 0 0 0 0 0 0 0 127 0" result="hardAlpha"/>
<feOffset dx="-18" dy="22"/>
<feGaussianBlur stdDeviation="30.5"/>
<feComposite in2="hardAlpha" operator="out"/>
<feColorMatrix type="matrix" values="0 0 0 0 0.629167 0 0 0 0 0.629167 0 0 0 0 0.629167 0 0 0 0.25 0"/>
<feBlend mode="normal" in2="BackgroundImageFix" result="effect1_dropShadow_235_32256"/>
<feBlend mode="normal" in="SourceGraphic" in2="effect1_dropShadow_235_32256" result="shape"/>
</filter>
<filter id="filter4_d_235_32256" x="0" y="0" width="269.596" height="291.112" filterUnits="userSpaceOnUse" color-interpolation-filters="sRGB">
<feFlood flood-opacity="0" result="BackgroundImageFix"/>
<feColorMatrix in="SourceAlpha" type="matrix" values="0 0 0 0 0 0 0 0 0 0 0 0 0 0 0 0 0 0 127 0" result="hardAlpha"/>
<feOffset dx="-18" dy="22"/>
<feGaussianBlur stdDeviation="30.5"/>
<feComposite in2="hardAlpha" operator="out"/>
<feColorMatrix type="matrix" values="0 0 0 0 0.629167 0 0 0 0 0.629167 0 0 0 0 0.629167 0 0 0 0.25 0"/>
<feBlend mode="normal" in2="BackgroundImageFix" result="effect1_dropShadow_235_32256"/>
<feBlend mode="normal" in="SourceGraphic" in2="effect1_dropShadow_235_32256" result="shape"/>
</filter>
</defs>
</svg>
