<svg width="491" height="345" viewBox="0 0 491 345" fill="none" xmlns="http://www.w3.org/2000/svg">
<path d="M59.7594 77.0324H89.6536H94.4113C101.039 77.0324 106.411 82.405 106.411 89.0325V104.207C106.411 110.834 111.784 116.207 118.411 116.207H137.981C144.609 116.207 149.981 121.58 149.981 128.207V139.76C149.981 146.388 155.354 151.76 161.981 151.76H182.808C189.435 151.76 194.808 146.388 194.808 139.76V89.0324C194.808 82.405 200.181 77.0324 206.808 77.0324H331.951C338.579 77.0324 343.951 71.6599 343.951 65.0324V12C343.951 5.37258 349.324 0 355.951 0H383.9C390.528 0 395.9 5.37258 395.9 12V28.1622C395.9 34.7896 401.273 40.1622 407.9 40.1622H431.241C437.868 40.1622 443.241 45.5348 443.241 52.1622V65.0324C443.241 71.6599 448.613 77.0324 455.241 77.0324H479C485.627 77.0324 491 82.405 491 89.0325V104.207C491 110.834 485.627 116.207 479 116.207H448.538C441.91 116.207 436.538 121.58 436.538 128.207V139.76C436.538 146.388 441.91 151.76 448.538 151.76H479C485.627 151.76 491 157.133 491 163.76V179.264C491 185.892 485.627 191.264 479 191.264H398.264C391.637 191.264 386.264 196.637 386.264 203.264V302.385C386.264 309.012 380.892 314.385 374.264 314.385H355.951C349.324 314.385 343.951 319.757 343.951 326.385V333C343.951 339.627 338.579 345 331.951 345H304.84C298.213 345 292.84 339.627 292.84 333V326.385C292.84 319.757 287.468 314.385 280.84 314.385H259.595C252.967 314.385 247.595 309.012 247.595 302.385V293.465C247.595 286.837 252.967 281.465 259.595 281.465H287.244C290.335 281.465 292.84 278.959 292.84 275.868C292.84 272.778 290.335 270.272 287.244 270.272H259.595C252.967 270.272 247.595 264.899 247.595 258.272V203.264C247.595 196.637 242.222 191.264 235.595 191.264H206.808C200.181 191.264 194.808 196.637 194.808 203.264V215.476C194.808 222.104 189.435 227.476 182.808 227.476H12C5.37258 227.476 0 222.104 0 215.476V163.76C0 157.133 5.37259 151.76 12 151.76H44.1382C50.7656 151.76 56.1382 157.133 56.1382 163.76V179.264C56.1382 185.892 61.5108 191.264 68.1382 191.264H132.116C138.743 191.264 144.116 185.892 144.116 179.264V163.76C144.116 157.133 138.743 151.76 132.116 151.76H110.87C104.243 151.76 98.8703 146.388 98.8703 139.76V128.207C98.8703 121.58 93.4977 116.207 86.8703 116.207H59.7594C53.132 116.207 47.7594 110.834 47.7594 104.207V89.0324C47.7594 82.405 53.132 77.0324 59.7594 77.0324Z" fill="#D9D9D9" fill-opacity="0.81"/>
<path d="M114.101 73.4113H91.5989C84.9715 73.4113 79.5989 68.0387 79.5989 61.4113V41.9571C79.5989 35.3296 84.9715 29.9571 91.5989 29.9571H114.101C120.729 29.9571 126.101 24.5845 126.101 17.9571V12C126.101 5.37258 131.474 0 138.101 0H170.24C176.867 0 182.24 5.3726 182.24 12V17.9571C182.24 24.5845 187.612 29.9571 194.24 29.9571H266.596C273.224 29.9571 278.596 24.5845 278.596 17.9571V12C278.596 5.37258 283.969 0 290.596 0H312.261C318.888 0 324.261 5.37258 324.261 12V24.8702C324.261 31.4976 318.888 36.8702 312.261 36.8702H290.596C283.969 36.8702 278.596 42.2428 278.596 48.8702V56.4733C278.596 63.1007 273.224 68.4733 266.596 68.4733H187.956C181.328 68.4733 175.956 63.1007 175.956 56.4733V48.8702C175.956 42.2428 170.583 36.8702 163.956 36.8702H147.737C141.11 36.8702 135.737 42.2428 135.737 48.8702V61.4113C135.737 68.0387 141.11 73.4113 147.737 73.4113H170.24C176.867 73.4113 182.24 78.7839 182.24 85.4113V96.3063C182.24 102.934 176.867 108.306 170.24 108.306H138.101C131.474 108.306 126.101 102.934 126.101 96.3063V85.4113C126.101 78.7838 120.729 73.4113 114.101 73.4113Z" fill="#FF1919"/>
<path d="M192.444 172.5H171.198C164.571 172.5 159.198 177.873 159.198 184.5V203.954C159.198 210.582 164.571 215.954 171.198 215.954H192.444C199.071 215.954 204.444 221.327 204.444 227.954V238.52C204.444 245.147 209.816 250.52 216.444 250.52H240.203C246.831 250.52 252.203 245.147 252.203 238.52V220.053C252.203 213.426 246.831 208.053 240.203 208.053H216.444C209.816 208.053 204.444 202.681 204.444 196.053V184.5C204.444 177.873 199.071 172.5 192.444 172.5Z" fill="#FF1919"/>
<path d="M353.019 153.406H428.997H431.241C437.868 153.406 443.241 148.034 443.241 141.406V135.12C443.241 128.493 448.613 123.12 455.241 123.12H478.581C485.208 123.12 490.581 128.493 490.581 135.12V146.344C490.581 152.972 485.208 158.344 478.581 158.344H455.241C448.613 158.344 443.241 163.717 443.241 170.344V182.227C443.241 188.854 437.868 194.227 431.241 194.227H407.481C400.854 194.227 395.481 199.6 395.481 206.227V218.439C395.481 225.066 400.854 230.439 407.481 230.439H431.241C437.868 230.439 443.241 235.811 443.241 242.439V256.955C443.241 263.582 437.868 268.955 431.241 268.955H402.035C395.408 268.955 390.035 263.582 390.035 256.955V242.439C390.035 235.811 384.662 230.439 378.035 230.439H353.019C346.391 230.439 341.019 225.066 341.019 218.439V165.406C341.019 158.779 346.391 153.406 353.019 153.406Z" fill="#F84141" fill-opacity="0.55"/>
</svg>
