<svg width="21" height="20" viewBox="0 0 21 20" fill="none" xmlns="http://www.w3.org/2000/svg">
<path d="M19.2914 10.5586C19.5355 10.3494 19.6575 10.2448 19.7023 10.1203C19.7415 10.011 19.7415 9.89146 19.7023 9.78218C19.6575 9.65768 19.5355 9.55306 19.2914 9.34381L10.8206 2.08319C10.4004 1.72299 10.1903 1.5429 10.0124 1.53848C9.8578 1.53465 9.71012 1.60257 9.61242 1.72245C9.5 1.86038 9.5 2.13712 9.5 2.69059V6.98585C7.36532 7.35931 5.41159 8.44098 3.95971 10.0651C2.37682 11.8357 1.50123 14.1272 1.5 16.5022V17.1142C2.54934 15.8501 3.85951 14.8277 5.34076 14.1171C6.6467 13.4906 8.05842 13.1195 9.5 13.0217V17.2118C9.5 17.7653 9.5 18.0421 9.61242 18.18C9.71012 18.2999 9.8578 18.3678 10.0124 18.364C10.1903 18.3595 10.4004 18.1794 10.8206 17.8192L19.2914 10.5586Z" stroke="#B90B0B" stroke-width="2" stroke-linecap="round" stroke-linejoin="round"/>
</svg>
